<svg width="18" height="18" viewBox="0 0 18 18" fill="none" xmlns="http://www.w3.org/2000/svg">
<path d="M12.375 2.25C14.6535 2.25 16.5 4.125 16.5 6.75C16.5 12 10.875 15 9 16.125C7.125 15 1.5 12 1.5 6.75C1.5 4.125 3.375 2.25 5.625 2.25C7.02 2.25 8.25 3 9 3.75C9.75 3 10.98 2.25 12.375 2.25ZM9.7005 13.953C10.3613 13.536 10.9575 13.1212 11.5155 12.6772C13.7513 10.8997 15 8.95725 15 6.75C15 4.98 13.8473 3.75 12.375 3.75C11.568 3.75 10.695 4.1775 10.0605 4.8105L9 5.871L7.9395 4.8105C7.305 4.1775 6.432 3.75 5.625 3.75C4.17 3.75 3 4.992 3 6.75C3 8.958 4.2495 10.8997 6.48375 12.6772C7.0425 13.1212 7.63875 13.536 8.2995 13.9522C8.52375 14.094 8.74575 14.2297 9 14.3812C9.25425 14.2297 9.47625 14.094 9.7005 13.953Z" fill="#2F2E41"/>
</svg>
