<svg width="16" height="16" viewBox="0 0 16 16" fill="none" xmlns="http://www.w3.org/2000/svg">
<path d="M4.82122 14.3533L0.800057 15.2L1.69382 11.3905C1.10522 10.3475 0.798178 9.18275 0.800057 8.00004C0.800057 4.02349 4.20258 0.800049 8.40005 0.800049C12.5975 0.800049 16 4.02349 16 8.00004C16 11.9766 12.5975 15.2 8.40005 15.2C7.15164 15.2018 5.92216 14.9109 4.82122 14.3533ZM5.04162 12.832L5.5379 13.084C6.41839 13.5297 7.40171 13.762 8.40005 13.76C9.60256 13.76 10.7781 13.4222 11.7779 12.7893C12.7778 12.1564 13.5571 11.2568 14.0172 10.2043C14.4774 9.1518 14.5978 7.99365 14.3632 6.87633C14.1286 5.759 13.5496 4.73266 12.6993 3.92711C11.849 3.12156 10.7656 2.57298 9.5862 2.35072C8.4068 2.12847 7.18431 2.24254 6.07334 2.6785C4.96237 3.11446 4.0128 3.85274 3.34472 4.79996C2.67664 5.74719 2.32006 6.86082 2.32006 8.00004C2.32006 8.96052 2.56706 9.885 3.03446 10.7116L3.2997 11.1817L2.8019 13.3036L5.04162 12.832Z" fill="white"/>
</svg>
