<svg width="11" height="11" viewBox="0 0 11 11" fill="none" xmlns="http://www.w3.org/2000/svg">
<path d="M4.61687 7.54237H6.3253V9.15392H4.61687V7.54237ZM6.3253 6.21688V6.7366H4.61687V5.52794C4.61687 5.31423 4.70687 5.10928 4.86707 4.95817C5.02726 4.80706 5.24454 4.72217 5.47109 4.72217C5.71375 4.72215 5.95142 4.65714 6.15644 4.53469C6.36147 4.41223 6.52541 4.23738 6.6292 4.03048C6.733 3.82357 6.77237 3.59311 6.74274 3.36592C6.71311 3.13873 6.61569 2.92415 6.46183 2.74714C6.30797 2.57014 6.10398 2.43798 5.87361 2.36606C5.64324 2.29413 5.39595 2.2854 5.16052 2.34087C4.92508 2.39633 4.71119 2.51373 4.54372 2.67938C4.37626 2.84504 4.2621 3.05214 4.21454 3.27661L2.53857 2.95994C2.64247 2.4701 2.8824 2.01506 3.23384 1.64136C3.58527 1.26765 4.0356 0.988678 4.53879 0.832953C5.04198 0.677228 5.57999 0.650337 6.09781 0.755031C6.61563 0.859724 7.09469 1.09225 7.48602 1.42883C7.87735 1.76541 8.16691 2.19397 8.32511 2.67072C8.4833 3.14746 8.50445 3.65528 8.3864 4.14226C8.26834 4.62924 8.01532 5.07791 7.65319 5.44242C7.29106 5.80692 6.83282 6.07418 6.3253 6.21688Z" fill="#E0347A"/>
</svg>
