<svg width="95" height="192" viewBox="0 0 95 192" fill="none" xmlns="http://www.w3.org/2000/svg">
<path fill-rule="evenodd" clip-rule="evenodd" d="M9.95451 122.747L9.95273 122.746C9.94812 122.746 9.94344 122.745 9.9387 122.744C9.92727 122.742 9.91555 122.74 9.90403 122.738C9.83546 122.725 9.7672 122.74 9.7098 122.777C9.37774 122.996 9.02033 123.298 8.87539 123.696C8.8001 123.907 8.78439 124.141 8.8593 124.393C8.93324 124.639 9.08616 124.875 9.3115 125.105C9.48055 125.276 9.66175 125.384 9.85833 125.416C10.0517 125.447 10.2215 125.398 10.3604 125.329C10.4972 125.26 10.6213 125.163 10.727 125.077C10.7573 125.052 10.7856 125.028 10.8129 125.005C10.8219 124.998 10.8308 124.99 10.8395 124.983C10.9035 124.93 10.9613 124.882 11.0211 124.84C11.3006 124.644 11.3958 124.311 11.3817 124.012C11.3674 123.717 11.2462 123.394 11.012 123.186L11.0114 123.185C10.651 122.87 10.2936 122.807 9.95451 122.747ZM9.95959 123.358C9.68569 123.552 9.4923 123.751 9.42083 123.95C9.3843 124.049 9.38019 124.146 9.41185 124.252C9.44488 124.362 9.52473 124.507 9.69834 124.684C9.79565 124.783 9.86199 124.808 9.90273 124.814C9.94666 124.821 10.001 124.814 10.0799 124.774C10.1603 124.735 10.2463 124.67 10.349 124.585C10.3705 124.568 10.3945 124.548 10.4184 124.528L10.4461 124.505C10.5179 124.445 10.5959 124.38 10.6726 124.326L10.6736 124.326C10.7599 124.266 10.8097 124.149 10.803 123.994C10.7956 123.835 10.7284 123.702 10.66 123.64C10.4558 123.461 10.2675 123.414 9.95959 123.358Z" fill="#38394F" fill-opacity="0.2"/>
<path fill-rule="evenodd" clip-rule="evenodd" d="M2.05556 125.587L2.04793 125.586C2.04332 125.585 2.03864 125.584 2.0339 125.584C2.02247 125.582 2.01075 125.58 1.99923 125.577C1.92967 125.565 1.86141 125.58 1.805 125.616C1.47194 125.837 1.11454 126.138 0.971188 126.537C0.895302 126.746 0.879588 126.981 0.954501 127.233C1.02844 127.479 1.18136 127.715 1.4067 127.945L1.40729 127.946C1.57475 128.116 1.75695 128.224 1.95353 128.256C2.14593 128.287 2.31672 128.238 2.45557 128.168C2.59144 128.1 2.71546 128.003 2.82116 127.917C2.85147 127.892 2.87979 127.869 2.90712 127.845C2.9819 127.783 3.04791 127.729 3.11689 127.68C3.39578 127.484 3.49098 127.151 3.47688 126.852C3.46257 126.557 3.34136 126.234 3.10721 126.026L3.10562 126.025C2.74825 125.711 2.39199 125.648 2.05556 125.587ZM2.0548 126.197C1.78089 126.391 1.58651 126.592 1.51503 126.79C1.4795 126.889 1.47439 126.986 1.50605 127.092C1.53908 127.203 1.61993 127.347 1.79354 127.524C1.89085 127.622 1.95719 127.647 1.99794 127.653C2.04087 127.661 2.09618 127.654 2.17407 127.614C2.25554 127.574 2.34148 127.509 2.44319 127.426C2.46572 127.408 2.48965 127.388 2.51359 127.368L2.51451 127.367C2.59345 127.301 2.68204 127.228 2.76783 127.166L2.76883 127.165C2.85514 127.106 2.90486 126.988 2.89723 126.834C2.88982 126.676 2.82365 126.542 2.75425 126.481C2.55102 126.301 2.36266 126.254 2.0548 126.197Z" fill="#38394F" fill-opacity="0.2"/>
<path fill-rule="evenodd" clip-rule="evenodd" d="M2.1637 112.416L2.16311 112.416C2.14715 112.415 2.13263 112.415 2.11712 112.415C2.05374 112.412 1.98741 112.43 1.92987 112.466C1.59324 112.678 1.22462 112.959 1.04769 113.295C0.954194 113.472 0.914247 113.665 0.959065 113.859C1.0021 114.05 1.12256 114.224 1.31146 114.387C1.45153 114.507 1.61254 114.576 1.79315 114.58C1.97232 114.585 2.13752 114.528 2.27577 114.457C2.41202 114.388 2.53959 114.297 2.64779 114.216C2.65729 114.209 2.66661 114.202 2.67578 114.195C2.69673 114.179 2.71692 114.164 2.73685 114.15C2.8134 114.091 2.88133 114.04 2.95049 113.994C3.23409 113.806 3.35873 113.528 3.37775 113.287C3.39512 113.051 3.31463 112.803 3.11502 112.661L3.11413 112.659C2.80687 112.442 2.47611 112.429 2.1637 112.416ZM2.10415 112.908C1.82653 113.093 1.62224 113.275 1.53405 113.443C1.49023 113.526 1.47521 113.605 1.49399 113.687C1.51355 113.773 1.5747 113.881 1.71988 114.006C1.80034 114.076 1.86031 114.089 1.8981 114.09C1.93876 114.091 1.9917 114.079 2.06929 114.039C2.15031 113.998 2.23717 113.937 2.34282 113.859C2.35881 113.847 2.37505 113.835 2.39204 113.822L2.41529 113.805L2.4161 113.804C2.49743 113.743 2.58872 113.674 2.67662 113.616L2.67717 113.615C2.76381 113.558 2.82399 113.457 2.83339 113.335C2.84255 113.207 2.79415 113.106 2.73512 113.063C2.56125 112.94 2.38859 112.922 2.10415 112.908Z" fill="#38394F" fill-opacity="0.2"/>
<path fill-rule="evenodd" clip-rule="evenodd" d="M1.33492 103.598L1.33328 103.597L1.33327 103.597C1.31755 103.59 1.30182 103.582 1.2871 103.574C1.22097 103.543 1.14897 103.537 1.08417 103.556C0.6986 103.673 0.268472 103.859 0.029726 104.203C-0.0965237 104.384 -0.168218 104.608 -0.154217 104.872C-0.139653 105.131 -0.0429797 105.404 0.126742 105.69C0.253783 105.905 0.410191 106.062 0.598702 106.149C0.783989 106.234 0.965309 106.236 1.12092 106.21C1.27391 106.184 1.42126 106.126 1.54715 106.073C1.56312 106.067 1.57876 106.06 1.59411 106.053C1.61325 106.045 1.63193 106.037 1.65018 106.029L1.65904 106.025C1.7448 105.988 1.82099 105.956 1.89817 105.929C2.22429 105.821 2.40004 105.526 2.4574 105.233C2.5146 104.944 2.47072 104.598 2.28563 104.329L2.28502 104.328C2.00159 103.918 1.65888 103.753 1.33492 103.598ZM0.512978 104.606C0.631655 104.435 0.872957 104.297 1.19346 104.19C1.48767 104.333 1.66421 104.433 1.82493 104.665C1.87972 104.744 1.91386 104.893 1.88333 105.049C1.85337 105.2 1.77503 105.299 1.67474 105.332L1.67374 105.332C1.58638 105.362 1.49424 105.401 1.40932 105.437C1.39637 105.442 1.38358 105.448 1.37101 105.453C1.34178 105.466 1.31454 105.478 1.28731 105.49L1.28723 105.49C1.16435 105.54 1.06389 105.577 0.973741 105.593C0.886204 105.608 0.828053 105.599 0.786927 105.581C0.748414 105.562 0.68702 105.519 0.614649 105.395C0.483554 105.175 0.43786 105.012 0.43126 104.895C0.425098 104.783 0.452834 104.691 0.512978 104.606Z" fill="#38394F" fill-opacity="0.2"/>
<path fill-rule="evenodd" clip-rule="evenodd" d="M9.16618 78.4836L9.16781 78.4844L9.21499 78.5068C9.28073 78.5395 9.35273 78.5455 9.41853 78.5258C9.80309 78.4101 10.2326 78.2219 10.472 77.8795C10.5976 77.6977 10.671 77.4746 10.656 77.2106C10.6414 76.9521 10.5448 76.6786 10.3745 76.3913C10.2481 76.1776 10.0917 76.0209 9.90418 75.9336C9.71729 75.8473 9.53659 75.8465 9.38099 75.8728C9.22799 75.8991 9.08064 75.9573 8.95475 76.0096C8.95127 76.0111 8.94779 76.0126 8.94433 76.014C8.91212 76.0276 8.88086 76.0407 8.85172 76.0539L8.84426 76.0571C8.75793 76.0942 8.68131 76.1271 8.60313 76.1525C8.27762 76.2624 8.10124 76.5561 8.04385 76.8492C7.98763 77.1373 8.03109 77.4848 8.21554 77.7528L8.21616 77.7539C8.49954 78.1638 8.84224 78.3282 9.16618 78.4836ZM9.30829 77.8929C9.01349 77.7488 8.83696 77.6482 8.67626 77.4168C8.62248 77.3368 8.58796 77.1897 8.6185 77.0334C8.64787 76.8821 8.72682 76.7839 8.8265 76.7502L8.8275 76.7496C8.92979 76.7159 9.03582 76.67 9.13023 76.6289C9.15572 76.6188 9.18004 76.6082 9.20294 76.5983L9.21462 76.5932C9.33689 76.5414 9.43796 76.5054 9.52911 76.4894C9.61564 76.4744 9.67318 76.4825 9.71492 76.502C9.75343 76.5204 9.8142 76.5631 9.88757 76.6862C10.0182 76.9078 10.0639 77.0707 10.0705 77.1879C10.0767 77.2996 10.0489 77.3918 9.98878 77.4768C9.87009 77.6475 9.62818 77.7847 9.30829 77.8929Z" fill="#38394F" fill-opacity="0.2"/>
<path fill-rule="evenodd" clip-rule="evenodd" d="M18.1795 87.3354C18.1038 87.7795 18.2409 88.1094 18.3707 88.4211C18.3735 88.4287 18.3766 88.4362 18.3797 88.4437C18.3828 88.4512 18.3858 88.4586 18.3887 88.4663C18.4149 88.5292 18.4631 88.5816 18.5245 88.6123C18.8857 88.7957 19.329 88.9632 19.7405 88.9073C19.9575 88.8784 20.1632 88.7876 20.3353 88.6131C20.5029 88.4422 20.6214 88.2078 20.6948 87.9167C20.7503 87.6994 20.7449 87.4982 20.6674 87.3191C20.591 87.1421 20.4596 87.0211 20.3277 86.9357C20.1984 86.8502 20.0503 86.788 19.9222 86.7385C19.8924 86.7263 19.8639 86.7151 19.8366 86.7043C19.8298 86.7017 19.8231 86.699 19.8165 86.6964C19.724 86.6616 19.644 86.6304 19.5663 86.5941C19.2533 86.4461 18.9228 86.513 18.678 86.6577C18.4382 86.7997 18.2306 87.0446 18.18 87.3338L18.1795 87.3354ZM18.882 88.1447C18.766 87.8609 18.7065 87.6812 18.7481 87.431C18.7635 87.3454 18.8414 87.2298 18.9706 87.1531C19.0968 87.078 19.222 87.0689 19.318 87.1149C19.4047 87.1553 19.4996 87.1922 19.5871 87.2262L19.6226 87.24C19.641 87.2475 19.6589 87.2542 19.6761 87.2606L19.6761 87.2606C19.6874 87.2648 19.6983 87.2689 19.7089 87.273C19.8344 87.3226 19.9335 87.367 20.0105 87.4168C20.0843 87.4656 20.1198 87.5092 20.1371 87.5482C20.1532 87.5853 20.1673 87.6522 20.1356 87.778C20.0782 88.0016 20.0003 88.1341 19.9238 88.2111C19.8517 88.2842 19.7678 88.3233 19.6649 88.3372C19.4602 88.3646 19.1882 88.2899 18.882 88.1447Z" fill="#38394F" fill-opacity="0.2"/>
<path fill-rule="evenodd" clip-rule="evenodd" d="M18.7461 100.434C18.4451 100.659 18.3477 100.966 18.2563 101.254L18.2432 101.296C18.2242 101.356 18.2264 101.422 18.2492 101.486C18.3833 101.862 18.58 102.286 18.8814 102.548C19.0412 102.685 19.2284 102.777 19.4398 102.79C19.6474 102.805 19.8579 102.742 20.0719 102.612C20.2306 102.514 20.3411 102.384 20.3915 102.215C20.442 102.049 20.4238 101.879 20.3858 101.728C20.3485 101.582 20.2867 101.438 20.2313 101.313C20.2279 101.306 20.2245 101.298 20.2212 101.291C20.2086 101.263 20.1967 101.237 20.1842 101.211L20.1808 101.203C20.1419 101.118 20.1074 101.042 20.0786 100.966C19.956 100.648 19.7011 100.452 19.4586 100.367C19.2197 100.283 18.9439 100.287 18.7469 100.433L18.7461 100.434ZM18.7488 101.45C18.8342 101.187 18.8969 101.031 19.0668 100.904C19.1251 100.86 19.2408 100.844 19.3701 100.889C19.4952 100.933 19.5822 101.016 19.6198 101.114L19.6204 101.115C19.6583 101.215 19.7064 101.32 19.75 101.414C19.7605 101.438 19.7716 101.463 19.7821 101.486L19.7821 101.486L19.787 101.496C19.8417 101.617 19.8818 101.717 19.9037 101.804C19.9254 101.888 19.9244 101.94 19.913 101.977C19.9027 102.013 19.8741 102.065 19.7824 102.121C19.6174 102.221 19.4912 102.248 19.3974 102.242C19.3079 102.236 19.2301 102.199 19.1557 102.135C19.005 102.004 18.869 101.761 18.7488 101.45Z" fill="#38394F" fill-opacity="0.2"/>
<path fill-rule="evenodd" clip-rule="evenodd" d="M8.67754 110.99L8.67395 110.991C8.6666 110.995 8.65911 110.998 8.65162 111.001C8.64413 111.004 8.63665 111.007 8.6293 111.01C8.56636 111.037 8.514 111.085 8.48323 111.146C8.29988 111.507 8.13179 111.95 8.1877 112.361C8.21657 112.578 8.30792 112.785 8.48195 112.956C8.65331 113.125 8.88724 113.242 9.17887 113.316C9.39616 113.372 9.59682 113.366 9.77643 113.289C9.95347 113.213 10.0734 113.082 10.1599 112.949C10.2449 112.819 10.3066 112.673 10.3571 112.544C10.3723 112.507 10.3859 112.472 10.3976 112.438C10.4032 112.424 10.4086 112.41 10.4139 112.396C10.4435 112.321 10.4702 112.253 10.5015 112.188C10.6495 111.875 10.5826 111.544 10.4378 111.3C10.2958 111.06 10.0504 110.851 9.76119 110.801L9.76018 110.801C9.31774 110.726 8.98866 110.862 8.67754 110.99ZM8.75833 112.287C8.73093 112.082 8.80468 111.81 8.95027 111.503C9.23407 111.387 9.41377 111.327 9.6646 111.37C9.75013 111.385 9.86517 111.462 9.94245 111.592C10.017 111.718 10.0261 111.843 9.98062 111.94C9.93864 112.028 9.90079 112.125 9.8657 112.216C9.86194 112.226 9.85821 112.235 9.8545 112.245C9.84321 112.275 9.83237 112.303 9.82098 112.33C9.77239 112.455 9.72857 112.555 9.67823 112.631C9.62992 112.706 9.58637 112.742 9.54732 112.759C9.50975 112.774 9.44332 112.789 9.31754 112.757C9.09299 112.7 8.96141 112.622 8.88451 112.545C8.81081 112.472 8.77176 112.388 8.75833 112.287Z" fill="#38394F" fill-opacity="0.2"/>
<path fill-rule="evenodd" clip-rule="evenodd" d="M-1.62132 87.3884C-1.17045 87.5863 -0.746188 87.5332 -0.344582 87.483L-0.285803 87.4755C-0.204372 87.4651 -0.125582 87.4291 -0.0636953 87.3738C0.305022 87.0464 0.694915 86.6302 0.825821 86.1854C0.895393 85.9513 0.890875 85.7114 0.780462 85.4843C0.671643 85.2631 0.470665 85.0771 0.184433 84.9211C-0.0272115 84.8045 -0.250657 84.7553 -0.482827 84.7879C-0.710694 84.8196 -0.905499 84.924 -1.0611 85.0383C-1.2142 85.1512 -1.35119 85.2879 -1.46499 85.4079C-1.4874 85.4307 -1.50823 85.4527 -1.5283 85.4738C-1.53892 85.485 -1.54933 85.496 -1.55966 85.5067C-1.56967 85.5173 -1.57953 85.5277 -1.58925 85.538C-1.65914 85.6118 -1.7222 85.6785 -1.78884 85.7408C-2.09622 86.0269 -2.17637 86.39 -2.13259 86.6844C-2.08858 86.9732 -1.91704 87.2565 -1.62314 87.388L-1.62132 87.3884ZM-0.408846 86.8748C-0.773646 86.9186 -0.998365 86.9323 -1.25282 86.82C-1.34021 86.7808 -1.42962 86.6696 -1.45328 86.5132C-1.47716 86.3623 -1.42864 86.229 -1.3344 86.1413L-1.33372 86.1395C-1.24243 86.0555 -1.15175 85.9597 -1.06863 85.8718L-1.05386 85.8562C-1.03289 85.8323 -1.01111 85.8098 -0.989944 85.788L-0.978193 85.7759C-0.866324 85.6583 -0.772543 85.5667 -0.681561 85.4997C-0.593747 85.4358 -0.530007 85.4106 -0.477911 85.4027C-0.429551 85.3967 -0.350481 85.3998 -0.227033 85.4668C-0.0088142 85.5866 0.0991856 85.7053 0.148256 85.8046C0.195623 85.9007 0.199042 85.9991 0.166681 86.1087C0.101851 86.3308 -0.107125 86.5932 -0.408846 86.8748Z" fill="#38394F" fill-opacity="0.2"/>
<path fill-rule="evenodd" clip-rule="evenodd" d="M5.34908 84.3386L5.34933 84.3389C5.35126 84.3411 5.35321 84.3434 5.35519 84.3456C5.36386 84.3557 5.37297 84.3662 5.38276 84.3763C5.42889 84.4299 5.4923 84.4646 5.56136 84.4759C5.96565 84.5396 6.44328 84.5622 6.81354 84.3774C7.0093 84.2793 7.17335 84.1251 7.27597 83.9013C7.3767 83.6812 7.40776 83.4149 7.37819 83.107C7.35439 82.8773 7.28035 82.683 7.14561 82.5339C7.01246 82.3852 6.84795 82.3092 6.69226 82.2663C6.54031 82.2255 6.3798 82.2123 6.24028 82.2041C6.20069 82.2012 6.16268 82.1988 6.12625 82.1969C6.02689 82.1925 5.93993 82.1869 5.8543 82.1764C5.50749 82.1316 5.21655 82.3032 5.03474 82.5212C4.85642 82.7359 4.74412 83.0409 4.79507 83.3399L4.79564 83.341C4.8768 83.7969 5.11976 84.0756 5.34908 84.3386ZM5.73855 83.9066C5.53102 83.6668 5.41306 83.51 5.36613 83.2521C5.35209 83.1635 5.38565 83.0274 5.48244 82.9111C5.57575 82.7981 5.69077 82.7492 5.79783 82.7629L5.7984 82.7639C5.90648 82.7771 6.02513 82.7831 6.13024 82.7884C6.1625 82.7899 6.19374 82.7919 6.22239 82.7939C6.35773 82.8018 6.46727 82.8128 6.55668 82.8374C6.64452 82.8616 6.69269 82.8923 6.72226 82.9251C6.75026 82.9573 6.78684 83.0174 6.79983 83.15C6.82344 83.3866 6.79379 83.5396 6.74811 83.639C6.70535 83.734 6.63832 83.7989 6.54652 83.8447C6.3619 83.9368 6.07961 83.9505 5.73855 83.9066Z" fill="#38394F" fill-opacity="0.2"/>
<path fill-rule="evenodd" clip-rule="evenodd" d="M15.1398 93.7199C14.8077 94.0732 14.7297 94.4317 14.6562 94.7698L14.6562 94.7698C14.6522 94.7861 14.6483 94.8025 14.6454 94.8182C14.63 94.8872 14.641 94.9574 14.6768 95.0154C14.8833 95.3563 15.1715 95.7239 15.5661 95.88C15.7735 95.9623 16.0089 95.9855 16.2647 95.9176C16.5139 95.8506 16.7583 95.7037 16.9988 95.4841C17.1779 95.3197 17.293 95.1398 17.3324 94.9441C17.3718 94.7511 17.3297 94.579 17.2655 94.4371C17.2029 94.2981 17.1105 94.1701 17.0285 94.0611C17.0223 94.0531 17.0161 94.0452 17.0101 94.0374C16.9928 94.0152 16.9762 93.9939 16.9605 93.9728C16.9002 93.8958 16.848 93.8287 16.8025 93.7579C16.6169 93.4714 16.2856 93.3661 15.9847 93.3721C15.6887 93.3766 15.359 93.4898 15.1409 93.7193L15.1398 93.7199ZM15.2699 94.7824C15.3393 94.4737 15.3945 94.2862 15.5828 94.0859C15.6475 94.0185 15.7847 93.9556 15.9445 93.9528C16.0988 93.9503 16.2153 94.0045 16.2717 94.0926C16.3261 94.1757 16.3909 94.2598 16.4503 94.3369L16.464 94.3547L16.4787 94.3738C16.4929 94.3921 16.5063 94.4096 16.5189 94.4269C16.5988 94.5319 16.6596 94.6202 16.6974 94.703C16.7336 94.7827 16.7381 94.8383 16.73 94.8814C16.722 94.9219 16.6941 94.9887 16.5912 95.0833C16.406 95.2523 16.2577 95.3289 16.1455 95.3589C16.0371 95.388 15.94 95.3801 15.8431 95.3411C15.6455 95.2638 15.4533 95.0623 15.2699 94.7824Z" fill="#38394F" fill-opacity="0.2"/>
<path fill-rule="evenodd" clip-rule="evenodd" d="M13.1024 103.766C12.6503 103.738 12.3343 103.91 12.0345 104.073L11.9917 104.096C11.9305 104.129 11.8836 104.184 11.8587 104.247C11.7133 104.629 11.5908 105.089 11.6886 105.495C11.7399 105.708 11.852 105.905 12.0445 106.058C12.2328 106.208 12.48 106.301 12.7804 106.343C13.0037 106.375 13.2042 106.348 13.3759 106.251C13.545 106.157 13.6528 106.012 13.7264 105.871C13.7975 105.732 13.8447 105.578 13.8817 105.444C13.8923 105.406 13.9025 105.368 13.9117 105.334C13.9127 105.331 13.9137 105.327 13.9146 105.324C13.9393 105.232 13.9612 105.151 13.9891 105.073C14.1046 104.744 14.0028 104.42 13.8336 104.191C13.6667 103.967 13.3994 103.786 13.105 103.766L13.1024 103.766ZM12.3649 104.555C12.2507 104.877 12.2036 105.157 12.2524 105.359C12.2766 105.459 12.3239 105.539 12.4056 105.604C12.4909 105.672 12.6311 105.735 12.8617 105.769C12.9906 105.787 13.0558 105.766 13.0909 105.746C13.1297 105.725 13.1693 105.683 13.2097 105.605C13.2521 105.522 13.2864 105.418 13.3231 105.288C13.3304 105.261 13.3387 105.23 13.347 105.199C13.3747 105.097 13.4057 104.983 13.4412 104.881L13.4416 104.879C13.4772 104.78 13.4543 104.655 13.3677 104.537C13.277 104.416 13.1543 104.35 13.0669 104.345C12.8115 104.329 12.6366 104.408 12.3649 104.555Z" fill="#38394F" fill-opacity="0.2"/>
<path fill-rule="evenodd" clip-rule="evenodd" d="M0.282786 94.4655L0.278518 94.4679L0.234666 94.4917C0.174497 94.5243 0.126973 94.5779 0.102671 94.6426C-0.043866 95.0244 -0.166483 95.4844 -0.0676536 95.8901C-0.0163161 96.1038 0.0957148 96.3004 0.288312 96.4532C0.476654 96.6031 0.723826 96.6959 1.02278 96.7382C1.24711 96.7695 1.44766 96.7425 1.61992 96.6463C1.78857 96.5507 1.89638 96.4064 1.96899 96.2653C2.04169 96.1268 2.08738 95.9726 2.12544 95.8385C2.13606 95.7997 2.14575 95.7642 2.15543 95.7286L2.15548 95.7284C2.18133 95.6325 2.20446 95.5487 2.23185 95.4678C2.348 95.1394 2.24725 94.8152 2.07703 94.5869C1.91004 94.3621 1.64323 94.1796 1.34766 94.1605L1.34664 94.1611C0.89609 94.1325 0.580342 94.304 0.282786 94.4655ZM0.496333 95.7542C0.446919 95.5513 0.493601 95.2725 0.607329 94.9494C0.880727 94.8035 1.05407 94.7239 1.30954 94.7396C1.39751 94.746 1.5212 94.8108 1.61097 94.9324C1.69853 95.0498 1.72087 95.1737 1.68483 95.2751L1.68538 95.2761C1.64887 95.3791 1.6179 95.4923 1.59121 95.5939C1.58642 95.6101 1.58203 95.6257 1.57775 95.6408C1.57369 95.6552 1.56974 95.6693 1.56565 95.683C1.52955 95.8135 1.49618 95.9175 1.45379 95.9999C1.41232 96.0792 1.37316 96.1189 1.33496 96.141C1.29927 96.1604 1.23356 96.1828 1.10469 96.1644C0.874067 96.1312 0.734266 96.0659 0.648923 95.9987C0.567834 95.9345 0.520487 95.8546 0.496333 95.7542Z" fill="#38394F" fill-opacity="0.2"/>
<path fill-rule="evenodd" clip-rule="evenodd" d="M6.24758 93.407L6.24329 93.4093L6.20046 93.4326C6.13928 93.4658 6.08885 93.514 6.05915 93.5687C5.88153 93.8909 5.71708 94.2762 5.76775 94.5933C5.79376 94.7603 5.87881 94.9072 6.04441 95.0103C6.20632 95.1115 6.42968 95.1605 6.70717 95.1633C6.91544 95.165 7.1074 95.1222 7.27994 95.0265C7.44899 94.9317 7.56579 94.804 7.64906 94.6825C7.73172 94.5624 7.79138 94.4339 7.84134 94.3217C7.85541 94.2893 7.86828 94.2596 7.88114 94.2299L7.8812 94.2297C7.91563 94.1496 7.94624 94.0796 7.98156 94.0109C8.12552 93.7337 8.06347 93.4832 7.92688 93.3168C7.79358 93.1516 7.56049 93.0336 7.28375 93.0493L7.28232 93.049C6.86085 93.0739 6.54512 93.2454 6.24758 93.407ZM6.5029 93.7634C6.36178 94.036 6.28853 94.2659 6.31345 94.4237C6.32612 94.5029 6.36239 94.5624 6.43213 94.6057C6.50557 94.651 6.63056 94.6891 6.84457 94.6917C6.96375 94.6923 7.02849 94.668 7.06418 94.6486C7.10251 94.6268 7.14361 94.5907 7.19102 94.5223C7.23965 94.4514 7.28302 94.3635 7.33075 94.2544C7.33581 94.2425 7.34129 94.2301 7.34693 94.2174L7.34694 94.2174C7.35229 94.2053 7.35778 94.1929 7.36317 94.1803C7.39899 94.0956 7.43965 94.0002 7.48488 93.9133L7.4859 93.9127C7.5295 93.8277 7.52141 93.7301 7.45115 93.6445C7.37882 93.555 7.26939 93.5164 7.18812 93.52C6.94782 93.5346 6.7756 93.6163 6.5029 93.7634Z" fill="#38394F" fill-opacity="0.2"/>
<path fill-rule="evenodd" clip-rule="evenodd" d="M7.79147 63.9494L7.79545 63.9514L7.84258 63.9738C7.90724 64.0069 7.97979 64.0139 8.04517 63.9958C8.43324 63.8867 8.86653 63.708 9.11214 63.37C9.24132 63.1924 9.31704 62.9713 9.30756 62.7079C9.2969 62.4495 9.20521 62.1756 9.04031 61.8863C8.91721 61.6715 8.76348 61.5126 8.57698 61.4222C8.3927 61.3336 8.2113 61.329 8.05455 61.3532C7.90082 61.3757 7.75328 61.4311 7.62621 61.4813C7.59321 61.4941 7.563 61.5065 7.53382 61.5185C7.52986 61.5201 7.52592 61.5217 7.52199 61.5233C7.5119 61.5274 7.50197 61.5314 7.49218 61.5353C7.4131 61.5671 7.34311 61.5952 7.27103 61.6175C6.94298 61.7202 6.76259 62.0112 6.70012 62.3021C6.63781 62.5885 6.67567 62.9352 6.85472 63.2052L6.85594 63.2074C7.13204 63.6184 7.47177 63.7889 7.79147 63.9494ZM7.94648 63.3628C7.65482 63.2149 7.4793 63.1114 7.32295 62.8783C7.26928 62.7986 7.23793 62.6502 7.27183 62.4953C7.30355 62.346 7.38417 62.2485 7.48503 62.217C7.5864 62.1848 7.69201 62.1419 7.78656 62.1035L7.78656 62.1035L7.79071 62.1018C7.80409 62.0964 7.81695 62.0911 7.82957 62.0859L7.82957 62.0859C7.84512 62.0795 7.86031 62.0732 7.87569 62.0672C7.99815 62.0182 8.1008 61.9827 8.19212 61.9694C8.27922 61.9555 8.33631 61.9652 8.377 61.9852C8.41607 62.0046 8.47638 62.0488 8.54756 62.1727C8.67432 62.3942 8.7178 62.5578 8.72166 62.6748C8.72608 62.7856 8.69666 62.8771 8.63585 62.9609C8.51324 63.1291 8.26892 63.2618 7.94648 63.3628Z" fill="#38394F" fill-opacity="0.2"/>
<path fill-rule="evenodd" clip-rule="evenodd" d="M8.87939 69.969L8.88294 69.9702L8.92505 69.9832C8.98257 70.0032 9.05071 70.0021 9.11382 69.9799C9.49125 69.8511 9.91861 69.6616 10.1856 69.363C10.3261 69.2061 10.4206 69.0197 10.4393 68.8081C10.4567 68.6014 10.3985 68.3891 10.2737 68.1737L10.2732 68.1728C10.1796 68.0123 10.0513 67.9001 9.88483 67.8467C9.72031 67.7945 9.54969 67.8098 9.39933 67.8457C9.25244 67.8808 9.10703 67.9402 8.98193 67.9939C8.94946 68.0077 8.91968 68.0209 8.89089 68.0337C8.88699 68.0354 8.88311 68.0371 8.87923 68.0388C8.79047 68.0783 8.71171 68.1124 8.63313 68.142C8.31299 68.2592 8.11193 68.5121 8.02256 68.7534C7.93381 68.9912 7.93322 69.267 8.07382 69.4663L8.07473 69.468C8.29211 69.7708 8.59467 69.8729 8.87939 69.969ZM9.08701 69.4792C8.82741 69.3904 8.67317 69.326 8.54965 69.1534C8.50838 69.0941 8.49335 68.9781 8.54154 68.8496C8.58709 68.7257 8.67332 68.6386 8.77175 68.6026C8.87073 68.566 8.97483 68.5203 9.06802 68.4794L9.06802 68.4794L9.07212 68.4776C9.0853 68.4719 9.09798 68.4663 9.11043 68.4607L9.11043 68.4607C9.12577 68.4539 9.14076 68.4472 9.15588 68.4408C9.27652 68.3884 9.37704 68.349 9.46456 68.3287C9.54816 68.3084 9.60101 68.3102 9.63774 68.3229C9.6721 68.3337 9.72435 68.363 9.77851 68.4556C9.87487 68.6211 9.89875 68.7487 9.89015 68.8427C9.88272 68.9317 9.84539 69.0086 9.77927 69.0826C9.64602 69.2312 9.4017 69.3639 9.08701 69.4792Z" fill="#38394F" fill-opacity="0.2"/>
<path fill-rule="evenodd" clip-rule="evenodd" d="M19.3916 75.2484C19.4059 75.7043 19.6065 76.0083 19.7961 76.2944C19.8006 76.3013 19.8052 76.3081 19.8099 76.3149C19.8146 76.3216 19.8193 76.3284 19.8237 76.3354C19.8623 76.3943 19.9195 76.4365 19.9867 76.456C20.3797 76.5703 20.8499 76.6547 21.2449 76.5228C21.4537 76.4534 21.6395 76.3245 21.7739 76.1183C21.906 75.9173 21.9758 75.6623 21.9907 75.3571C22.0018 75.1299 21.9558 74.9311 21.8446 74.7677C21.734 74.6053 21.5807 74.51 21.4324 74.448C21.2878 74.3879 21.1306 74.3534 20.994 74.3276C20.9844 74.3258 20.9749 74.3239 20.9655 74.322C20.9363 74.3163 20.9083 74.3107 20.881 74.3064C20.7826 74.2879 20.6973 74.2716 20.6134 74.2506C20.2765 74.1617 19.9624 74.2897 19.7494 74.4799C19.5409 74.6664 19.3849 74.9496 19.3921 75.2468L19.3916 75.2484ZM20.2459 75.9235C20.0749 75.662 19.9813 75.4944 19.973 75.2364C19.9702 75.1487 20.024 75.0196 20.1365 74.9185C20.2465 74.8201 20.3674 74.7878 20.4718 74.8151L20.4723 74.8161C20.5599 74.839 20.6546 74.857 20.743 74.8738C20.7617 74.8774 20.7801 74.8809 20.7981 74.8843C20.8237 74.8886 20.8486 74.8932 20.8726 74.8977L20.8901 74.901C21.0225 74.9263 21.13 74.9519 21.215 74.987C21.2984 75.0216 21.3419 75.058 21.3672 75.0949C21.3898 75.1292 21.4176 75.1927 21.4107 75.323C21.3993 75.557 21.3483 75.7033 21.2883 75.7945C21.2314 75.8813 21.1555 75.9359 21.0576 75.9691C20.8611 76.0345 20.5781 76.0109 20.2459 75.9235Z" fill="#38394F" fill-opacity="0.2"/>
<path fill-rule="evenodd" clip-rule="evenodd" d="M25.5498 79.8976C25.5646 80.3545 25.7647 80.6575 25.9543 80.9436C25.9631 80.9574 25.972 80.9713 25.9818 80.9846C26.0204 81.0435 26.0776 81.0857 26.1449 81.1052C26.5374 81.2211 27.0076 81.3055 27.4036 81.173C27.6109 81.1032 27.7976 80.9738 27.9327 80.7685C28.0642 80.5665 28.134 80.3115 28.1494 80.0074C28.1605 79.7802 28.1145 79.5813 28.0027 79.4169C27.8927 79.2555 27.7389 79.1591 27.5911 79.0982C27.4459 79.0371 27.2877 79.0031 27.1522 78.9768C27.135 78.9735 27.1183 78.9704 27.1019 78.9675C27.0803 78.9635 27.0594 78.9597 27.0391 78.9556C26.9413 78.9381 26.855 78.9223 26.7721 78.9007C26.4336 78.8114 26.1201 78.9404 25.9075 79.1291C25.699 79.3156 25.543 79.5988 25.5502 79.896L25.5498 79.8976ZM26.4041 80.5727C26.2331 80.3112 26.1384 80.1441 26.1301 79.8862C26.1283 79.7979 26.1821 79.6688 26.2946 79.5677C26.4042 79.4709 26.5261 79.438 26.6295 79.4658L26.6305 79.4653C26.7318 79.4917 26.8418 79.5122 26.9423 79.5309L26.9562 79.5335C26.9881 79.5388 27.019 79.5447 27.0473 79.5507C27.1807 79.5755 27.2871 79.6016 27.3737 79.6372C27.4561 79.6724 27.5006 79.7082 27.5243 79.7446C27.5479 79.7784 27.5748 79.8424 27.5694 79.9733C27.558 80.2072 27.5054 80.3531 27.4455 80.4442C27.3885 80.5311 27.3143 80.5861 27.2157 80.6183C27.0193 80.6837 26.7363 80.6601 26.4041 80.5727Z" fill="#38394F" fill-opacity="0.2"/>
<path fill-rule="evenodd" clip-rule="evenodd" d="M27.6458 93.5428C27.484 93.8834 27.5164 94.2191 27.5479 94.5359C27.5484 94.5434 27.5492 94.551 27.55 94.5586C27.5508 94.5663 27.5516 94.5739 27.5521 94.5814C27.5586 94.6462 27.5852 94.7104 27.6269 94.7625C27.8726 95.0714 28.1873 95.4034 28.5281 95.5342C28.708 95.6029 28.8942 95.6152 29.0703 95.5428C29.2441 95.4716 29.3924 95.3254 29.5185 95.1137L29.5188 95.1123C29.6125 94.9544 29.6549 94.783 29.6343 94.5996C29.6139 94.4185 29.5373 94.2603 29.4518 94.1313C29.3683 94.0039 29.2647 93.8887 29.1737 93.7911C29.1479 93.7625 29.1233 93.7359 29.0997 93.7114C29.0937 93.705 29.0878 93.6988 29.082 93.6926C29.0236 93.6304 28.9717 93.5752 28.9233 93.517C28.7081 93.2586 28.4288 93.1731 28.2004 93.1888C27.9756 93.2038 27.7538 93.3204 27.6465 93.5424L27.6458 93.5428ZM28.0193 94.5236C27.9926 94.2364 27.9867 94.0592 28.0785 93.8674C28.1095 93.8016 28.198 93.7381 28.3198 93.73C28.4373 93.7216 28.5389 93.767 28.605 93.8471L28.6056 93.8481C28.673 93.9289 28.7503 94.0107 28.8198 94.0838C28.8351 94.1008 28.851 94.1174 28.8661 94.1334L28.8807 94.1488C28.9684 94.2442 29.0382 94.3237 29.0873 94.3989C29.136 94.4717 29.1535 94.5228 29.1584 94.564C29.1625 94.6017 29.1586 94.6644 29.1046 94.7557C29.0077 94.9192 28.9139 94.9959 28.8359 95.0279C28.7603 95.0587 28.6848 95.0558 28.6004 95.023C28.4306 94.9579 28.2308 94.7789 28.0193 94.5236Z" fill="#38394F" fill-opacity="0.2"/>
<path fill-rule="evenodd" clip-rule="evenodd" d="M23.3691 107.72L23.3689 107.72C23.3659 107.727 23.3627 107.733 23.3594 107.739C23.3562 107.746 23.353 107.752 23.35 107.758C23.3231 107.81 23.3146 107.875 23.3287 107.94C23.4078 108.326 23.5412 108.771 23.8029 109.083C23.9405 109.246 24.113 109.372 24.3209 109.429C24.5252 109.484 24.7425 109.468 24.9741 109.387C25.146 109.327 25.2743 109.224 25.3491 109.074C25.4228 108.927 25.4301 108.76 25.4138 108.609C25.3976 108.462 25.3579 108.31 25.32 108.18C25.3138 108.158 25.3075 108.137 25.3013 108.116C25.297 108.101 25.2928 108.087 25.2887 108.073L25.2873 108.068C25.2607 107.977 25.2375 107.898 25.2185 107.819C25.144 107.49 24.918 107.25 24.6897 107.119C24.4647 106.99 24.1912 106.938 23.9744 107.038L23.9736 107.038C23.6424 107.191 23.5016 107.464 23.3691 107.72ZM23.8296 108.007C23.9517 107.775 24.0366 107.637 24.2236 107.552C24.2873 107.522 24.4051 107.53 24.5271 107.6C24.644 107.667 24.7188 107.765 24.7416 107.866L24.7422 107.867C24.7661 107.97 24.7982 108.08 24.8273 108.178C24.8303 108.188 24.8334 108.198 24.8363 108.208L24.8363 108.208L24.8363 108.208C24.8423 108.228 24.848 108.246 24.8529 108.264C24.89 108.391 24.9152 108.495 24.9244 108.582C24.9342 108.666 24.9254 108.717 24.9081 108.75C24.8933 108.781 24.8569 108.825 24.7577 108.86C24.5803 108.922 24.451 108.921 24.3587 108.896C24.2704 108.872 24.1992 108.821 24.1342 108.745C24.0032 108.589 23.9038 108.33 23.8296 108.007Z" fill="#38394F" fill-opacity="0.2"/>
<path fill-rule="evenodd" clip-rule="evenodd" d="M17.8386 115.067C17.3901 115.015 17.0666 115.17 16.7609 115.316C16.7461 115.323 16.7313 115.33 16.7171 115.337C16.654 115.366 16.6046 115.418 16.5768 115.481C16.4117 115.852 16.2671 116.304 16.3432 116.713C16.3837 116.928 16.4853 117.13 16.6682 117.293C16.848 117.452 17.0895 117.558 17.3851 117.616C17.6059 117.659 17.8069 117.642 17.9824 117.556C18.1552 117.47 18.2709 117.332 18.3505 117.195C18.4286 117.061 18.4833 116.91 18.5274 116.778C18.539 116.744 18.5497 116.711 18.5597 116.68C18.5606 116.677 18.5615 116.674 18.5625 116.671C18.5643 116.665 18.5662 116.66 18.568 116.654C18.597 116.566 18.6224 116.49 18.6524 116.415C18.7856 116.094 18.7009 115.766 18.5433 115.529C18.3894 115.297 18.1325 115.102 17.8402 115.067L17.8386 115.067ZM17.0634 115.813C16.9337 116.128 16.8728 116.403 16.9114 116.608C16.9299 116.709 16.9731 116.791 17.0509 116.86C17.132 116.932 17.2684 117.004 17.4964 117.048C17.6229 117.073 17.6895 117.055 17.7256 117.037C17.7653 117.018 17.8063 116.98 17.8513 116.903C17.8976 116.824 17.9365 116.721 17.9792 116.594C17.9858 116.575 17.992 116.556 17.9983 116.535L17.9983 116.535C18.0014 116.526 18.0045 116.516 18.0077 116.506L18.0122 116.492L18.0122 116.492C18.0438 116.396 18.0788 116.29 18.1184 116.194C18.1595 116.096 18.1428 115.971 18.062 115.848C17.9791 115.722 17.8593 115.652 17.7731 115.641C17.5198 115.612 17.3427 115.681 17.0634 115.813Z" fill="#38394F" fill-opacity="0.2"/>
<path fill-rule="evenodd" clip-rule="evenodd" d="M12.8339 57.4397L12.8375 57.442C12.8446 57.4467 12.852 57.4512 12.8593 57.4558C12.8667 57.4604 12.874 57.4649 12.8811 57.4696C12.9417 57.5094 13.0131 57.5261 13.0816 57.516C13.482 57.4566 13.9379 57.3344 14.2259 57.037C14.3759 56.8801 14.4803 56.6753 14.5026 56.4196C14.5246 56.1684 14.4668 55.8921 14.3366 55.5925C14.2398 55.3687 14.106 55.1964 13.9296 55.0871C13.7565 54.9788 13.5762 54.9529 13.4171 54.9566C13.2602 54.962 13.1049 54.9965 12.9714 55.0306C12.942 55.0377 12.9136 55.0452 12.8858 55.0524C12.8778 55.0545 12.8698 55.0566 12.8619 55.0587C12.7679 55.0841 12.6845 55.1052 12.6007 55.1208C12.2592 55.1809 12.0431 55.4407 11.945 55.7147C11.8472 55.9843 11.8423 56.3245 11.988 56.6072L11.9892 56.6094C12.2148 57.0416 12.5335 57.2465 12.8339 57.4397ZM13.0605 56.8908C12.7872 56.713 12.6252 56.5916 12.4962 56.3469C12.4534 56.2633 12.4395 56.1156 12.4928 55.9699C12.5433 55.8285 12.6354 55.7443 12.7398 55.7261L12.7408 55.7255C12.8472 55.7062 12.9603 55.6776 13.0605 55.6516C13.0722 55.6485 13.0838 55.6453 13.0952 55.6421L13.0952 55.6421C13.1137 55.6369 13.1318 55.6318 13.1489 55.6278C13.2794 55.5954 13.3856 55.5733 13.4776 55.5704C13.5675 55.5686 13.6228 55.5842 13.6619 55.6085C13.6979 55.6317 13.7524 55.6818 13.8077 55.8099C13.9081 56.0402 13.9304 56.2033 13.9206 56.3169C13.9121 56.4255 13.8711 56.5104 13.7992 56.5837C13.6565 56.7324 13.3958 56.8312 13.0605 56.8908Z" fill="#38394F" fill-opacity="0.2"/>
<path fill-rule="evenodd" clip-rule="evenodd" d="M24.9781 67.0374L24.9794 67.0392C24.9894 67.0526 24.9993 67.0661 25.0102 67.0789C25.0526 67.1352 25.1129 67.1736 25.1805 67.1893C25.581 67.278 26.0558 67.3318 26.4406 67.1739C26.6422 67.09 26.8174 66.9478 26.937 66.7324C27.0537 66.5213 27.1039 66.2603 27.0966 65.954C27.0905 65.725 27.0307 65.5277 26.9072 65.3705C26.7854 65.2164 26.6255 65.13 26.4737 65.0781C26.3246 65.0261 26.1647 65.0028 26.0263 64.9852C26.007 64.9826 25.9883 64.9804 25.97 64.9783C25.9506 64.976 25.9318 64.9737 25.9136 64.9712C25.905 64.9702 25.8965 64.9692 25.8881 64.9683C25.799 64.9579 25.72 64.9487 25.643 64.9328C25.299 64.8658 24.9969 65.0164 24.7989 65.2206C24.6044 65.4216 24.47 65.7162 24.4993 66.0146L24.4998 66.0156C24.5472 66.4724 24.7684 66.7625 24.9781 67.0374ZM25.4001 66.6375C25.2108 66.3857 25.1042 66.2233 25.0772 65.9654C25.0688 65.8772 25.1119 65.7437 25.2174 65.6354C25.3194 65.5303 25.4376 65.4889 25.5433 65.5094L25.5439 65.5104C25.633 65.5278 25.729 65.5396 25.8188 65.5507L25.8188 65.5507C25.8372 65.5529 25.8553 65.5551 25.873 65.5574C25.9054 65.5613 25.9362 65.5647 25.9654 65.5677C26.0995 65.5848 26.2083 65.6036 26.2968 65.6335C26.3822 65.6623 26.4283 65.6964 26.4552 65.7315C26.4805 65.7634 26.5132 65.8262 26.5162 65.9576C26.5221 66.1935 26.4817 66.3443 26.4292 66.4387C26.379 66.5304 26.3073 66.5895 26.2119 66.6292C26.0211 66.7087 25.7378 66.7026 25.4001 66.6375Z" fill="#38394F" fill-opacity="0.2"/>
<path fill-rule="evenodd" clip-rule="evenodd" d="M32.591 80.1293C32.4606 80.5599 32.5538 80.9016 32.6433 81.2244C32.646 81.2334 32.6482 81.2426 32.6505 81.2516C32.6521 81.2583 32.6538 81.2648 32.6555 81.2711C32.6738 81.3365 32.7152 81.3932 32.7716 81.4315C33.1076 81.6542 33.5252 81.8717 33.9413 81.8652C34.16 81.8621 34.3769 81.795 34.5692 81.6438C34.757 81.4938 34.904 81.2762 35.0148 80.9966C35.0969 80.7883 35.1163 80.5882 35.0631 80.4027C35.0094 80.2189 34.895 80.0835 34.7743 79.9828C34.6563 79.8845 34.5187 79.806 34.3974 79.7407C34.3803 79.7316 34.3637 79.7229 34.3476 79.7145C34.3305 79.7055 34.3139 79.6969 34.2977 79.6883C34.2834 79.6807 34.2694 79.6733 34.2557 79.6661C34.1856 79.6291 34.1222 79.5957 34.062 79.5578C33.7709 79.3743 33.4341 79.4026 33.173 79.5171C32.9159 79.6294 32.6784 79.8481 32.5915 80.1278L32.591 80.1293ZM33.1856 81.0105C33.1067 80.7169 33.0705 80.5313 33.1435 80.2891C33.1697 80.206 33.2619 80.1014 33.4004 80.0405C33.5348 79.9818 33.6601 79.9865 33.749 80.0434L33.7506 80.0439C33.8397 80.0997 33.942 80.1535 34.0337 80.2017L34.0337 80.2017L34.0363 80.2031C34.0641 80.2178 34.0919 80.2326 34.1176 80.2459C34.2352 80.3094 34.3282 80.3641 34.3981 80.4222C34.4658 80.479 34.4956 80.5265 34.507 80.567C34.519 80.606 34.5239 80.6734 34.4771 80.7937C34.392 81.0088 34.2971 81.1304 34.212 81.1974C34.1311 81.2621 34.0424 81.2908 33.939 81.2924C33.7323 81.2956 33.4719 81.1902 33.1856 81.0105Z" fill="#38394F" fill-opacity="0.2"/>
<path fill-rule="evenodd" clip-rule="evenodd" d="M34.6639 95.4857C34.4456 95.7926 34.4323 96.1236 34.4201 96.4372C34.4191 96.4478 34.4188 96.4586 34.4185 96.4692C34.4183 96.4736 34.4182 96.4779 34.418 96.4822C34.4153 96.5456 34.4339 96.6129 34.4699 96.6694C34.6827 97.0066 34.9627 97.3757 35.2995 97.5527C35.4765 97.6462 35.6685 97.6852 35.8632 97.6414C36.0535 97.5973 36.2292 97.4774 36.391 97.289C36.512 97.1484 36.5796 96.9879 36.5839 96.8062C36.5893 96.6266 36.5316 96.4619 36.4608 96.3236C36.3916 96.1883 36.3011 96.0607 36.22 95.9525C36.2136 95.9439 36.2072 95.9354 36.2009 95.9269C36.1843 95.9048 36.1683 95.8835 36.1536 95.8635C36.0951 95.7869 36.0444 95.719 35.9978 95.6488C35.8099 95.3652 35.5311 95.2405 35.2911 95.2225C35.0555 95.2047 34.8075 95.2851 34.6642 95.4842L34.6639 95.4857ZM34.9128 96.4947C34.9259 96.2103 34.9446 96.0376 35.0673 95.8651C35.1095 95.8061 35.2105 95.7577 35.3385 95.7669C35.4622 95.7758 35.5614 95.8355 35.6194 95.9227L35.6199 95.9237C35.6782 96.0116 35.7468 96.1029 35.8079 96.1842L35.8085 96.185C35.8272 96.2097 35.8459 96.2344 35.8635 96.2571C35.9416 96.3617 36.0023 96.45 36.0431 96.5311C36.0831 96.6087 36.0949 96.6616 36.0931 96.7013C36.0924 96.7391 36.0793 96.799 36.0101 96.8805C35.8861 97.0252 35.7782 97.0864 35.6915 97.1064C35.6089 97.1242 35.5302 97.1101 35.447 97.0663C35.2792 96.9781 35.0972 96.7738 34.9128 96.4947Z" fill="#38394F" fill-opacity="0.2"/>
<path fill-rule="evenodd" clip-rule="evenodd" d="M30.161 112.064L30.1595 112.066C30.1507 112.081 30.1413 112.095 30.1319 112.11L30.1319 112.11C30.0927 112.171 30.076 112.243 30.0861 112.311C30.1454 112.712 30.2671 113.166 30.5645 113.454C30.722 113.605 30.9263 113.709 31.1824 113.732C31.4332 113.753 31.7094 113.695 32.0096 113.566C32.2333 113.469 32.4056 113.335 32.515 113.159C32.6233 112.986 32.6492 112.806 32.6449 112.646C32.64 112.49 32.6055 112.334 32.5715 112.201C32.5662 112.18 32.5609 112.159 32.5557 112.139C32.5514 112.123 32.5473 112.107 32.5434 112.091C32.5174 111.996 32.4964 111.913 32.4808 111.829C32.4212 111.489 32.1614 111.273 31.8868 111.174C31.6178 111.077 31.2775 111.072 30.9949 111.217L30.9927 111.219C30.561 111.444 30.3555 111.762 30.161 112.064ZM30.7113 112.29C30.8891 112.017 31.0099 111.854 31.2552 111.726C31.3388 111.683 31.4864 111.669 31.6317 111.721C31.7731 111.772 31.8578 111.865 31.876 111.969C31.8953 112.076 31.924 112.189 31.9516 112.289C31.9557 112.308 31.9605 112.326 31.9651 112.343L31.9651 112.343L31.9651 112.343C31.9683 112.355 31.9714 112.367 31.9743 112.378C32.0061 112.508 32.0282 112.614 32.0311 112.706C32.0335 112.797 32.0179 112.852 31.9931 112.89C31.9704 112.927 31.9203 112.982 31.7922 113.037C31.5613 113.137 31.3988 113.16 31.2852 113.15C31.176 113.141 31.0922 113.099 31.0184 113.029C30.8692 112.885 30.7703 112.624 30.7113 112.29Z" fill="#38394F" fill-opacity="0.2"/>
<path fill-rule="evenodd" clip-rule="evenodd" d="M20.0042 124.513L20.0024 124.514L19.9621 124.544C19.9064 124.587 19.868 124.648 19.8524 124.715C19.7636 125.116 19.7098 125.591 19.8672 125.974C19.9516 126.177 20.0938 126.352 20.3091 126.472C20.5197 126.587 20.7812 126.639 21.0875 126.631C21.3166 126.625 21.5138 126.565 21.671 126.442C21.8262 126.32 21.9126 126.16 21.9645 126.008C22.0155 125.859 22.0388 125.699 22.0563 125.561C22.0598 125.535 22.0627 125.51 22.0654 125.485C22.0669 125.472 22.0683 125.46 22.0698 125.447C22.0715 125.433 22.0732 125.419 22.0749 125.406C22.0849 125.324 22.0939 125.25 22.1088 125.178C22.1758 124.834 22.0252 124.532 21.821 124.334C21.62 124.139 21.3254 124.005 21.027 124.034L21.0254 124.034C20.5692 124.082 20.2791 124.303 20.0042 124.513ZM20.4041 124.935C20.6553 124.745 20.8177 124.638 21.0757 124.611C21.1638 124.603 21.2979 124.647 21.4057 124.751C21.5108 124.853 21.5526 124.972 21.5316 125.077L21.5311 125.079C21.5135 125.173 21.5006 125.276 21.4888 125.371L21.4888 125.371L21.4842 125.408C21.4803 125.44 21.4769 125.471 21.4739 125.5C21.4568 125.634 21.4379 125.743 21.4081 125.832C21.3787 125.916 21.3452 125.963 21.3101 125.99C21.2781 126.015 21.2153 126.048 21.084 126.051C20.8481 126.057 20.6973 126.017 20.6023 125.963C20.5107 125.913 20.4521 125.842 20.4124 125.747C20.3329 125.556 20.3384 125.272 20.4041 124.935Z" fill="#38394F" fill-opacity="0.2"/>
<path fill-rule="evenodd" clip-rule="evenodd" d="M6.40096 131.863L6.3987 131.864C6.39085 131.866 6.38286 131.868 6.37487 131.87C6.36689 131.872 6.3589 131.874 6.35105 131.877C6.2856 131.892 6.22832 131.933 6.18914 131.99C5.96132 132.321 5.73588 132.735 5.73595 133.151C5.73668 133.37 5.79883 133.587 5.94825 133.784C6.09335 133.974 6.30907 134.125 6.5874 134.241C6.79481 134.326 6.99357 134.351 7.18004 134.3C7.36451 134.25 7.50138 134.138 7.60411 134.019C7.70595 133.903 7.78592 133.766 7.85328 133.646C7.86404 133.627 7.87417 133.608 7.88412 133.589C7.89183 133.575 7.89942 133.561 7.90712 133.547C7.91267 133.537 7.91813 133.527 7.92353 133.517C7.96416 133.444 8.00126 133.377 8.04215 133.315C8.22916 133.026 8.20666 132.688 8.09655 132.425C7.98865 132.167 7.77436 131.925 7.49598 131.833L7.49442 131.833C7.06806 131.694 6.72436 131.781 6.40096 131.863ZM6.6024 132.411C6.41875 132.694 6.30937 132.952 6.30912 133.16C6.30923 133.263 6.33695 133.352 6.39974 133.434C6.4653 133.521 6.58501 133.617 6.79821 133.706C6.91758 133.757 6.98657 133.752 7.02509 133.742C7.06561 133.73 7.11363 133.702 7.17085 133.635C7.23053 133.565 7.28725 133.474 7.35216 133.357C7.364 133.337 7.37549 133.316 7.38764 133.294L7.38764 133.294L7.39706 133.277C7.44611 133.185 7.50241 133.084 7.56124 132.994L7.56169 132.992C7.61907 132.904 7.62625 132.779 7.56948 132.643C7.5115 132.503 7.40779 132.41 7.32575 132.383C7.08427 132.304 6.89862 132.337 6.6024 132.411Z" fill="#38394F" fill-opacity="0.2"/>
<path fill-rule="evenodd" clip-rule="evenodd" d="M7.92634 54.6767L7.93032 54.6759C7.94556 54.6729 7.96179 54.6694 7.97747 54.6648C8.04396 54.6512 8.10224 54.613 8.14395 54.5585C8.3821 54.2358 8.61971 53.8285 8.63374 53.4128C8.64025 53.1933 8.58528 52.9727 8.44257 52.772C8.30365 52.5758 8.09255 52.4162 7.8194 52.2903C7.61418 52.1963 7.41627 52.166 7.22813 52.2086C7.0421 52.2526 6.90175 52.3593 6.79553 52.4739C6.69076 52.5865 6.60533 52.7203 6.53458 52.8382C6.5192 52.8634 6.50495 52.888 6.49116 52.9117C6.48649 52.9198 6.48187 52.9277 6.47729 52.9356C6.47559 52.9384 6.4739 52.9413 6.47221 52.9441C6.42414 53.0248 6.38154 53.0963 6.3349 53.1626C6.13802 53.4444 6.14993 53.7838 6.25091 54.0509C6.35068 54.3134 6.55642 54.5634 6.83213 54.6654L6.83369 54.6659C7.25488 54.8211 7.60027 54.7469 7.92634 54.6767ZM7.74336 54.1215C7.44547 54.1839 7.25967 54.2093 7.02042 54.1219C6.93926 54.0918 6.83889 53.9953 6.78467 53.8525C6.73323 53.7148 6.74428 53.5895 6.80512 53.5035L6.80457 53.5025C6.86686 53.4143 6.9256 53.3149 6.9781 53.2254L6.97811 53.2254L6.97811 53.2254C6.99435 53.198 7.01059 53.1707 7.02494 53.147C7.09324 53.0317 7.15342 52.9421 7.21559 52.8752C7.27532 52.811 7.3238 52.7833 7.36539 52.774C7.40442 52.7647 7.47247 52.7635 7.58998 52.8176C7.80042 52.914 7.91692 53.0164 7.9806 53.105C8.04051 53.1891 8.06483 53.2792 8.06157 53.383C8.05506 53.5906 7.93635 53.8445 7.74336 54.1215Z" fill="#38394F" fill-opacity="0.2"/>
<path fill-rule="evenodd" clip-rule="evenodd" d="M23.3934 58.5825L23.395 58.5825C23.4023 58.5828 23.4098 58.583 23.4173 58.5832C23.4248 58.5833 23.4323 58.5835 23.4395 58.5838C23.5034 58.5873 23.5703 58.568 23.6273 58.5328C23.9645 58.32 24.3321 58.0397 24.5101 57.7024C24.6037 57.5254 24.6426 57.3335 24.5989 57.1389C24.5549 56.9486 24.4354 56.7738 24.247 56.6121L24.2466 56.6112C24.1055 56.4917 23.946 56.4235 23.7639 56.4184C23.5848 56.4139 23.4195 56.4708 23.2813 56.5416C23.145 56.6114 23.0179 56.7027 22.9092 56.7829C22.878 56.8062 22.8488 56.8284 22.8216 56.8496C22.7436 56.9078 22.6756 56.9585 22.6065 57.0046C22.3229 57.1925 22.1982 57.4712 22.1801 57.7111C22.1627 57.9475 22.2431 58.1954 22.4422 58.3386L22.4436 58.3389C22.7495 58.556 23.0798 58.5696 23.3934 58.5825ZM24.0238 57.555C23.9346 57.7233 23.7313 57.9048 23.4526 58.09C23.1682 58.0769 22.9955 58.0583 22.8217 57.9353C22.7637 57.8926 22.7143 57.7922 22.7245 57.6636C22.7339 57.5408 22.7931 57.4408 22.8807 57.3837L22.8817 57.3831C22.9691 57.3241 23.0604 57.2555 23.1417 57.1945L23.1426 57.1937L23.1426 57.1937C23.1673 57.175 23.192 57.1563 23.2151 57.1395C23.3198 57.0615 23.4077 57 23.4887 56.9592C23.5663 56.9192 23.6192 56.9074 23.6589 56.9092C23.6967 56.9099 23.7566 56.9229 23.8381 56.9921C23.9832 57.1169 24.0434 57.2253 24.0629 57.3111C24.0817 57.3932 24.0676 57.4719 24.0238 57.555Z" fill="#38394F" fill-opacity="0.2"/>
<path fill-rule="evenodd" clip-rule="evenodd" d="M36.1667 68.1751L36.1685 68.1758L36.1685 68.1758C36.182 68.1814 36.1954 68.1871 36.2084 68.1919C36.2641 68.2155 36.3304 68.2183 36.3958 68.2C36.7765 68.0935 37.2141 67.9291 37.5015 67.6459C37.6528 67.4969 37.7611 67.3164 37.7974 67.106C37.831 66.9003 37.7917 66.6846 37.6863 66.4618L37.6858 66.461C37.6062 66.2952 37.4893 66.1756 37.3293 66.1127C37.1722 66.0504 37.0024 66.0554 36.8521 66.0821C36.7042 66.1085 36.5557 66.16 36.428 66.2068C36.4168 66.2109 36.4058 66.2149 36.3949 66.2189C36.3702 66.2279 36.3463 66.2366 36.3231 66.2454C36.2326 66.2795 36.1526 66.3089 36.0723 66.3331C35.7472 66.4321 35.5291 66.6734 35.4198 66.9094C35.3137 67.1416 35.2906 67.4169 35.4128 67.6253L35.4133 67.6261C35.6035 67.9431 35.8931 68.0624 36.1667 68.1751ZM36.4099 67.6979C36.1613 67.5937 36.0145 67.5194 35.9071 67.3407C35.8707 67.2786 35.8667 67.1612 35.9231 67.0357C35.9794 66.9147 36.0711 66.8326 36.1706 66.8033L36.1716 66.8028C36.2724 66.7717 36.3809 66.731 36.4766 66.6951L36.4776 66.6948C36.4901 66.6903 36.5026 66.6856 36.5149 66.681C36.5313 66.6749 36.5475 66.6688 36.5631 66.6634C36.6864 66.618 36.7881 66.5855 36.8753 66.5693C36.9606 66.5543 37.0126 66.5594 37.0477 66.5737C37.0804 66.5861 37.1293 66.6188 37.1749 66.7147C37.2562 66.886 37.269 67.0148 37.2536 67.1083C37.2384 67.1973 37.1955 67.2713 37.1234 67.3416C36.9807 67.4827 36.7295 67.6008 36.4099 67.6979Z" fill="#38394F" fill-opacity="0.2"/>
<path fill-rule="evenodd" clip-rule="evenodd" d="M44.721 81.8764L44.7227 81.8782C44.729 81.8857 44.7356 81.893 44.7421 81.9001C44.7469 81.9054 44.7517 81.9106 44.7561 81.9157C44.8044 81.9684 44.8678 82.0032 44.9373 82.013C45.3429 82.0701 45.8196 82.0844 46.1871 81.893C46.38 81.7923 46.5421 81.635 46.6401 81.4078C46.7363 81.187 46.7628 80.9199 46.7266 80.612C46.6998 80.3819 46.6219 80.1877 46.4839 80.0397C46.3487 79.8944 46.1816 79.8207 46.026 79.7801C45.8741 79.7416 45.7122 79.7304 45.5738 79.724C45.5338 79.7226 45.4963 79.7212 45.4589 79.7198L45.4589 79.7198C45.3601 79.7163 45.2732 79.7132 45.1872 79.7042C44.8396 79.6647 44.5528 79.8408 44.3746 80.0626C44.1999 80.2811 44.0944 80.5885 44.1514 80.8864L44.1509 80.888C44.2398 81.3428 44.4878 81.6178 44.721 81.8764ZM45.9102 81.3638C45.7275 81.459 45.4455 81.4775 45.1036 81.4389C44.8923 81.2017 44.7706 81.0476 44.7197 80.7898C44.703 80.7011 44.7342 80.5632 44.8286 80.4453C44.9202 80.3317 45.035 80.2802 45.1415 80.293L45.1425 80.2925C45.2493 80.304 45.3647 80.3082 45.469 80.312L45.4741 80.3122C45.4878 80.3129 45.5012 80.3134 45.5143 80.314C45.5322 80.3147 45.5496 80.3154 45.5667 80.3163C45.7019 80.3217 45.8119 80.3313 45.9018 80.3545C45.9901 80.3772 46.0377 80.4071 46.0689 80.4404C46.0974 80.4712 46.1351 80.5309 46.1508 80.6637C46.1784 80.9001 46.1511 81.0549 46.1082 81.1543C46.0662 81.2506 46.0014 81.317 45.9102 81.3638Z" fill="#38394F" fill-opacity="0.2"/>
<path fill-rule="evenodd" clip-rule="evenodd" d="M48.3724 96.8316L48.3741 96.8357C48.3773 96.8427 48.3802 96.8498 48.3832 96.857C48.3865 96.865 48.3899 96.8732 48.3937 96.8814C48.4189 96.9449 48.4676 96.9957 48.5285 97.028C48.8903 97.2098 49.3327 97.3779 49.7447 97.323C49.9613 97.2931 50.1687 97.2027 50.3398 97.0287C50.5074 96.8578 50.626 96.6233 50.7004 96.3316C50.7544 96.1138 50.749 95.9126 50.6715 95.7335C50.5956 95.5574 50.4652 95.4359 50.3327 95.3494C50.2024 95.2644 50.0558 95.2027 49.9271 95.1522C49.9114 95.1461 49.8957 95.1402 49.8803 95.1344C49.8599 95.1267 49.84 95.1192 49.8209 95.1117C49.7294 95.0763 49.6478 95.0447 49.5718 95.0088C49.2586 94.8608 48.927 94.9283 48.6831 95.0725C48.4417 95.2141 48.2347 95.46 48.184 95.7493L48.1835 95.7509C48.1091 96.1926 48.2447 96.5216 48.3724 96.8316ZM48.8861 96.5603C48.7696 96.2755 48.7101 96.0958 48.7527 95.8449C48.7681 95.7593 48.845 95.6443 48.9753 95.567C49.1011 95.4934 49.2263 95.4843 49.3218 95.5293L49.3233 95.5298C49.4194 95.5756 49.5268 95.6164 49.6235 95.6532L49.6235 95.6532L49.628 95.6549C49.646 95.6617 49.6636 95.6687 49.6806 95.6755L49.6806 95.6755C49.6918 95.68 49.7027 95.6843 49.7133 95.6884C49.8383 95.737 49.9374 95.7814 50.0144 95.8312C50.0893 95.8795 50.1248 95.923 50.1416 95.9637C50.1577 96.0007 50.1717 96.0677 50.1406 96.1919C50.0837 96.4165 50.0042 96.5487 49.9292 96.6261C49.8561 96.6998 49.7721 96.7388 49.6702 96.7523C49.4645 96.7802 49.1934 96.7049 48.8861 96.5603Z" fill="#38394F" fill-opacity="0.2"/>
<path fill-rule="evenodd" clip-rule="evenodd" d="M42.9015 109.259C42.6658 109.655 42.6741 110.01 42.6821 110.345L42.6821 110.345C42.6828 110.361 42.6836 110.378 42.6832 110.395C42.6846 110.462 42.7113 110.526 42.7584 110.576C43.0346 110.864 43.3949 111.165 43.8079 111.245C44.0249 111.287 44.2549 111.268 44.4832 111.158C44.7057 111.05 44.904 110.868 45.0824 110.616C45.2152 110.428 45.284 110.237 45.2762 110.043C45.269 109.852 45.1894 109.695 45.0948 109.571C45.0024 109.449 44.8854 109.343 44.7819 109.255C44.7734 109.248 44.7651 109.241 44.757 109.234C44.7358 109.215 44.7156 109.198 44.6959 109.182C44.6212 109.119 44.5555 109.063 44.4961 109.004C44.2533 108.764 43.9122 108.721 43.6272 108.779C43.3454 108.836 43.0577 109.001 42.9026 109.258L42.9015 109.259ZM43.9464 110.682C43.7415 110.643 43.5103 110.485 43.2712 110.249C43.2652 109.943 43.2754 109.754 43.4083 109.531C43.4537 109.455 43.5699 109.371 43.7226 109.34C43.8696 109.311 43.9925 109.342 44.0668 109.416L44.0674 109.417C44.1402 109.488 44.223 109.558 44.2982 109.622C44.3025 109.626 44.3067 109.63 44.311 109.633C44.3264 109.646 44.3413 109.659 44.3558 109.671C44.3642 109.678 44.3726 109.685 44.3809 109.692C44.4818 109.778 44.5598 109.851 44.6141 109.924C44.6673 109.994 44.6859 110.046 44.6875 110.089C44.6885 110.129 44.6767 110.197 44.601 110.305C44.4641 110.498 44.3403 110.598 44.239 110.646C44.1435 110.693 44.049 110.701 43.9464 110.682Z" fill="#38394F" fill-opacity="0.2"/>
<path fill-rule="evenodd" clip-rule="evenodd" d="M34.5556 125.939L34.5551 125.941C34.5486 125.956 34.5427 125.972 34.5368 125.988L34.5367 125.988C34.5102 126.056 34.5099 126.128 34.5363 126.19C34.6877 126.561 34.9153 126.97 35.285 127.177C35.479 127.285 35.7117 127.337 35.9776 127.299C36.2384 127.262 36.5058 127.143 36.7819 126.95C36.9875 126.806 37.1328 126.638 37.2039 126.444C37.2749 126.253 37.2603 126.074 37.2188 125.922C37.1784 125.774 37.1075 125.633 37.0423 125.513L36.9891 125.415C36.9413 125.33 36.9006 125.255 36.8661 125.178C36.7265 124.866 36.4136 124.718 36.1114 124.687C35.8137 124.655 35.4673 124.729 35.2112 124.935L35.2101 124.935C34.8203 125.253 34.6842 125.606 34.5556 125.939ZM35.6492 126.664C35.4652 126.561 35.3049 126.333 35.168 126.027C35.2867 125.723 35.3727 125.541 35.593 125.362C35.6688 125.301 35.8152 125.254 35.9756 125.27C36.1315 125.287 36.238 125.356 36.2811 125.451L36.2817 125.452C36.3254 125.549 36.3807 125.651 36.4313 125.741L36.4741 125.82C36.5377 125.937 36.5841 126.034 36.6072 126.122C36.6314 126.207 36.627 126.264 36.611 126.308C36.5962 126.348 36.5584 126.411 36.44 126.494C36.2282 126.642 36.0664 126.702 35.9493 126.719C35.8372 126.734 35.7409 126.714 35.6492 126.664Z" fill="#38394F" fill-opacity="0.2"/>
<path fill-rule="evenodd" clip-rule="evenodd" d="M31.6984 136.288C31.2518 136.46 31.0157 136.753 30.7924 137.03C30.7816 137.044 30.7709 137.057 30.7596 137.07C30.7135 137.126 30.6895 137.195 30.6921 137.264C30.7031 137.673 30.7668 138.142 31.0227 138.467C31.1572 138.638 31.3428 138.766 31.5891 138.821C31.8299 138.874 32.1044 138.85 32.4093 138.759C32.6376 138.691 32.8207 138.578 32.9479 138.417C33.0718 138.257 33.1195 138.08 33.1332 137.92C33.1474 137.764 33.1319 137.604 33.1144 137.467C33.1098 137.427 33.1047 137.39 33.0997 137.355C33.0989 137.349 33.0981 137.343 33.0973 137.337C33.0852 137.246 33.0746 137.165 33.0706 137.085C33.0518 136.737 32.8261 136.489 32.5713 136.356C32.3213 136.225 31.9924 136.177 31.7001 136.288L31.6984 136.288ZM31.3 137.322C31.5045 137.072 31.641 136.925 31.8934 136.827C31.9792 136.795 32.1246 136.8 32.2591 136.871C32.3908 136.939 32.4611 137.042 32.4671 137.149L32.4677 137.15C32.4726 137.245 32.4856 137.348 32.4976 137.442L32.502 137.477C32.507 137.51 32.511 137.54 32.5144 137.57C32.5308 137.703 32.5396 137.811 32.5314 137.904C32.5228 137.994 32.5015 138.047 32.4725 138.084C32.4473 138.117 32.3924 138.165 32.2602 138.204C32.0254 138.275 31.8649 138.278 31.7567 138.253C31.6522 138.231 31.5752 138.179 31.512 138.098C31.384 137.937 31.3192 137.664 31.3 137.322Z" fill="#38394F" fill-opacity="0.2"/>
<path fill-rule="evenodd" clip-rule="evenodd" d="M15.1366 141.108C14.6805 141.113 14.3742 141.308 14.086 141.492L14.0435 141.519C13.9851 141.556 13.9414 141.613 13.9205 141.68C13.8003 142.071 13.7076 142.539 13.8336 142.938C13.8995 143.147 14.0253 143.335 14.2284 143.474C14.4267 143.609 14.6817 143.684 14.984 143.704L14.985 143.704C15.2116 143.719 15.4107 143.677 15.5766 143.569C15.7393 143.462 15.8375 143.309 15.9019 143.164C15.9644 143.019 16.0013 142.862 16.0301 142.726C16.0362 142.694 16.0424 142.664 16.0484 142.635C16.0498 142.628 16.0513 142.621 16.0527 142.614C16.0717 142.516 16.0889 142.43 16.113 142.347C16.2071 142.011 16.0837 141.696 15.898 141.479C15.7151 141.267 15.4356 141.105 15.1376 141.107L15.1366 141.108ZM14.4481 141.948C14.7119 141.783 14.8819 141.692 15.1391 141.688C15.2268 141.688 15.3554 141.743 15.4539 141.859C15.5486 141.969 15.5806 142.092 15.5513 142.195L15.5509 142.196C15.5247 142.288 15.5038 142.389 15.4845 142.482L15.4845 142.482L15.4767 142.52C15.4714 142.552 15.465 142.582 15.4586 142.612C15.4308 142.744 15.4043 142.85 15.3672 142.936C15.3306 143.018 15.2943 143.061 15.2569 143.085C15.2227 143.108 15.1582 143.134 15.0285 143.125C14.7952 143.109 14.6499 143.055 14.5593 142.993C14.4735 142.936 14.421 142.859 14.3898 142.759C14.3274 142.561 14.3554 142.28 14.4481 141.948Z" fill="#38394F" fill-opacity="0.2"/>
<path fill-rule="evenodd" clip-rule="evenodd" d="M1.6063 39.9587L1.61177 39.9565C1.61939 39.9537 1.62687 39.9506 1.63435 39.9476C1.64183 39.9445 1.64931 39.9414 1.65692 39.9386C1.72034 39.9134 1.77318 39.8663 1.80545 39.8053C1.99421 39.4477 2.1687 39.0085 2.12078 38.5953C2.09493 38.3792 2.00759 38.1702 1.8371 37.9959C1.66882 37.8256 1.43741 37.7027 1.14738 37.6235L1.14637 37.6241C0.930157 37.5653 0.729495 37.5664 0.548985 37.6407C0.371503 37.7135 0.248034 37.8423 0.159632 37.9732C0.0726971 38.1019 0.00899725 38.2469 -0.0445252 38.3746C-0.0531009 38.3969 -0.0618802 38.4187 -0.0704102 38.44C-0.0759168 38.4537 -0.0813194 38.4671 -0.0864962 38.4803C-0.123337 38.5713 -0.155962 38.6508 -0.193821 38.7279C-0.347278 39.0374 -0.284819 39.369 -0.145126 39.6167C-0.00662857 39.8597 0.234199 40.0721 0.522837 40.1271L0.524398 40.1275C0.963327 40.2108 1.29433 40.081 1.6063 39.9587ZM1.34449 39.4403C1.05826 39.551 0.877091 39.6073 0.628389 39.5609C0.543376 39.5439 0.428855 39.4654 0.354597 39.3335C0.282544 39.2056 0.274934 39.0809 0.322419 38.9854C0.367181 38.8948 0.408415 38.7935 0.445612 38.7021L0.445615 38.7021L0.453482 38.6828C0.460283 38.6648 0.467285 38.6472 0.474044 38.6302L0.47405 38.6302C0.47849 38.619 0.482825 38.6081 0.48693 38.5975C0.538528 38.4735 0.584359 38.375 0.636172 38.2995C0.685967 38.2252 0.728995 38.1913 0.769557 38.1745C0.807091 38.1594 0.873542 38.147 0.998772 38.1802C1.22123 38.2409 1.35182 38.3225 1.42769 38.3996C1.50035 38.4733 1.5374 38.5584 1.54986 38.6607C1.57377 38.866 1.494 39.1355 1.34449 39.4403Z" fill="#38394F" fill-opacity="0.2"/>
<path fill-rule="evenodd" clip-rule="evenodd" d="M17.6963 42.7419C18.0946 42.9695 18.4489 42.9544 18.7842 42.9401L18.8333 42.9378C18.9012 42.9347 18.9648 42.907 19.0125 42.8594C19.2968 42.5778 19.5917 42.2134 19.6651 41.7999C19.7038 41.5814 19.6804 41.3531 19.5681 41.1272C19.4576 40.9071 19.2715 40.7117 19.0165 40.539C18.8278 40.41 18.6353 40.3454 18.4418 40.3571C18.2512 40.3672 18.0952 40.4505 17.9733 40.5465C17.8533 40.6415 17.7489 40.7604 17.6627 40.8654C17.6367 40.8958 17.6136 40.9245 17.5915 40.9528C17.5294 41.0284 17.475 41.0945 17.4168 41.1559C17.1809 41.4031 17.1435 41.7428 17.2057 42.0284C17.2671 42.3077 17.4358 42.5923 17.6947 42.7414L17.6963 42.7419ZM18.679 42.3544C18.3742 42.3656 18.1848 42.3588 17.9608 42.2314C17.8837 42.1867 17.7982 42.0721 17.7651 41.9209C17.7333 41.7744 17.7622 41.6518 17.8345 41.576L17.8355 41.5755C17.9046 41.5024 17.9727 41.4193 18.0352 41.3429L18.0478 41.3275C18.0568 41.3167 18.0654 41.306 18.0738 41.2956C18.0843 41.2824 18.0946 41.2697 18.1051 41.2572C18.1904 41.1554 18.262 41.0759 18.3333 41.0196C18.4022 40.9659 18.454 40.9473 18.4974 40.944C18.5372 40.9413 18.6049 40.952 18.7143 41.0252C18.9094 41.1588 19.01 41.2801 19.0604 41.3799C19.1079 41.4746 19.119 41.5687 19.1014 41.6716C19.0646 41.877 18.9105 42.1109 18.679 42.3544Z" fill="#38394F" fill-opacity="0.2"/>
<path fill-rule="evenodd" clip-rule="evenodd" d="M32.8512 50.8004C33.1879 51.1634 33.5454 51.272 33.8827 51.3741L33.9307 51.3888C34.0001 51.4094 34.071 51.4043 34.1311 51.3746C34.4879 51.1939 34.876 50.9352 35.0572 50.55C35.1531 50.3481 35.1895 50.1129 35.1363 49.8506C35.0835 49.594 34.9493 49.335 34.7412 49.0754C34.5866 48.8813 34.4122 48.7504 34.2167 48.695C34.0237 48.6397 33.8473 48.6671 33.7006 48.7205C33.5569 48.7724 33.4218 48.8545 33.3079 48.928C33.2886 48.9401 33.2705 48.9521 33.253 48.9637C33.2399 48.9723 33.2271 48.9808 33.2143 48.989C33.1328 49.0434 33.0609 49.0897 32.9877 49.131C32.6882 49.2936 32.5615 49.6171 32.5493 49.9207C32.5372 50.2198 32.6316 50.5601 32.85 50.7981L32.8512 50.8004ZM33.9303 50.7573C33.6238 50.6618 33.438 50.5909 33.2477 50.3857C33.1832 50.3144 33.1275 50.1715 33.1338 50.0094C33.1402 49.8545 33.2021 49.7423 33.2939 49.6925L33.2949 49.6919C33.3881 49.6398 33.4847 49.5772 33.5702 49.5206C33.5969 49.5032 33.6227 49.4863 33.6464 49.4705C33.7573 49.3986 33.8493 49.3443 33.9349 49.3138C34.0184 49.2845 34.0746 49.2831 34.1178 49.296C34.1588 49.3072 34.2234 49.3406 34.3125 49.4523C34.4727 49.652 34.5419 49.8081 34.5647 49.9238C34.5876 50.035 34.5745 50.1324 34.529 50.227C34.4391 50.4185 34.2242 50.5963 33.9303 50.7573Z" fill="#38394F" fill-opacity="0.2"/>
<path fill-rule="evenodd" clip-rule="evenodd" d="M46.7655 63.7196L46.7715 63.7235C46.7786 63.7282 46.7859 63.7327 46.7932 63.7373C46.8006 63.7418 46.8079 63.7464 46.815 63.7511C46.8756 63.7908 46.9471 63.8076 47.0156 63.7974C47.416 63.7381 47.8719 63.6159 48.1589 63.319C48.3098 63.1616 48.4142 62.9567 48.4365 62.7011C48.4586 62.4498 48.4008 62.1736 48.2705 61.8739C48.1737 61.6502 48.0399 61.4779 47.8636 61.3685C47.6905 61.2603 47.5101 61.2343 47.35 61.2386C47.1942 61.2435 47.0388 61.278 46.9053 61.3121C46.8759 61.3192 46.8475 61.3266 46.8198 61.3339C46.8118 61.336 46.8038 61.3381 46.7959 61.3402C46.7848 61.343 46.774 61.3458 46.7632 61.3486C46.6819 61.3696 46.6087 61.3885 46.5347 61.4022C46.1932 61.4623 45.977 61.7222 45.8784 61.9951C45.7811 62.2658 45.7762 62.606 45.9219 62.8887L45.9231 62.8909C46.1475 63.3208 46.4652 63.5258 46.7655 63.7196ZM46.9944 63.1723C46.7212 62.9945 46.5591 62.8731 46.4301 62.6284C46.3873 62.5448 46.3734 62.3971 46.4268 62.2513C46.4773 62.1099 46.5693 62.0258 46.6737 62.0075L46.6747 62.007C46.7811 61.9877 46.8942 61.959 46.9938 61.932L46.9939 61.932C47.0245 61.9239 47.0552 61.9158 47.0829 61.9093C47.2128 61.8758 47.3196 61.8548 47.4115 61.8519C47.5009 61.8489 47.5567 61.8656 47.5959 61.8899C47.6319 61.9131 47.6864 61.9633 47.7416 62.0914C47.842 62.3217 47.8643 62.4848 47.8546 62.5983C47.8454 62.7059 47.8045 62.7908 47.7331 62.8651C47.5904 63.0138 47.3297 63.1127 46.9944 63.1723Z" fill="#38394F" fill-opacity="0.2"/>
<path fill-rule="evenodd" clip-rule="evenodd" d="M54.2668 78.1029C54.3034 78.4621 54.5079 78.6577 54.7025 78.8424C54.704 78.844 54.7056 78.8456 54.7073 78.8472C54.7144 78.8544 54.7219 78.862 54.7301 78.8692C54.769 78.9071 54.8258 78.9272 54.8893 78.9284C55.2668 78.9313 55.7152 78.8935 56.0819 78.7005C56.2744 78.5991 56.4424 78.4549 56.559 78.2621C56.6736 78.0726 56.7266 77.8543 56.7248 77.6097C56.7237 77.4269 56.6701 77.2798 56.5565 77.1744C56.4438 77.0705 56.294 77.0286 56.1519 77.013C56.0113 76.9977 55.8612 77.0059 55.7303 77.0158C55.6952 77.0175 55.6609 77.0206 55.6287 77.0235L55.6234 77.0239C55.6079 77.0251 55.5927 77.0262 55.5777 77.0273C55.5028 77.033 55.4344 77.0381 55.3684 77.0391C55.0447 77.0437 54.7558 77.2159 54.5644 77.4136C54.3767 77.6082 54.2439 77.8678 54.2664 78.1021L54.2668 78.1029ZM55.1079 78.448C54.932 78.2786 54.8345 78.1665 54.8135 77.9639C54.8075 77.8949 54.8514 77.7804 54.9529 77.6754C55.0507 77.5733 55.1634 77.5203 55.2635 77.5189C55.3601 77.5171 55.4664 77.509 55.5613 77.5018L55.5745 77.5008C55.593 77.4987 55.611 77.4973 55.6283 77.4959L55.6283 77.4959C55.6398 77.495 55.6511 77.4941 55.662 77.493C55.7894 77.484 55.8907 77.4799 55.974 77.4887C56.0539 77.4983 56.0971 77.5176 56.1226 77.5404C56.1462 77.5622 56.1745 77.607 56.1754 77.7124C56.1766 77.9003 56.1356 78.0275 56.0841 78.1135C56.0353 78.195 55.9669 78.2546 55.8764 78.3027C55.693 78.3992 55.4247 78.443 55.1079 78.448Z" fill="#38394F" fill-opacity="0.2"/>
<path fill-rule="evenodd" clip-rule="evenodd" d="M57.2794 95.2224C57.228 95.6708 57.3826 95.9942 57.5289 96.2999L57.549 96.3442C57.579 96.4067 57.6298 96.4567 57.6933 96.4839C58.0646 96.649 58.5159 96.7942 58.9257 96.7176C59.1406 96.6771 59.3427 96.5766 59.5047 96.3927C59.6637 96.213 59.7685 95.9721 59.8275 95.6759C59.8708 95.4552 59.8538 95.2542 59.7678 95.0788C59.6818 94.906 59.5435 94.7919 59.4063 94.7113C59.2718 94.6332 59.122 94.5779 58.9907 94.5349C58.9686 94.5268 58.947 94.5198 58.926 94.5131C58.9113 94.5083 58.897 94.5036 58.8829 94.4988C58.7888 94.4684 58.7056 94.4413 58.6275 94.4088C58.3054 94.2762 57.9786 94.3603 57.7417 94.5179C57.5084 94.6722 57.3146 94.9286 57.2798 95.2208L57.2794 95.2224ZM58.0253 95.9974C57.894 95.7192 57.8249 95.5412 57.8532 95.2879C57.8643 95.2017 57.9348 95.0819 58.0609 94.999C58.1829 94.9183 58.3071 94.9022 58.4057 94.9432L58.4067 94.9427C58.5023 94.9823 58.6086 95.0173 58.7045 95.0489L58.7182 95.0534C58.7486 95.0633 58.7789 95.0731 58.8061 95.082C58.9332 95.1246 59.0349 95.164 59.1151 95.2099C59.1921 95.2548 59.2297 95.2974 59.2491 95.3355C59.2674 95.3716 59.2851 95.4382 59.2599 95.5662C59.2147 95.7932 59.1437 95.929 59.0718 96.01C59.0036 96.0878 58.9207 96.1315 58.8199 96.1495C58.6158 96.188 58.3406 96.1272 58.0253 95.9974Z" fill="#38394F" fill-opacity="0.2"/>
<path fill-rule="evenodd" clip-rule="evenodd" d="M56.0656 112.35C55.878 112.762 55.927 113.113 55.9734 113.444C55.9753 113.46 55.9772 113.476 55.9797 113.493C55.9894 113.56 56.0224 113.621 56.0744 113.665C56.3796 113.924 56.7688 114.188 57.1847 114.229C57.403 114.25 57.628 114.209 57.8406 114.079C58.0481 113.952 58.2229 113.753 58.3696 113.487C58.4797 113.289 58.5252 113.092 58.4962 112.901C58.4663 112.713 58.3705 112.567 58.2633 112.453C58.1583 112.341 58.0302 112.247 57.918 112.169C57.8964 112.153 57.8752 112.139 57.8546 112.125C57.8446 112.119 57.8347 112.112 57.825 112.105C57.744 112.05 57.6737 112.001 57.608 111.949C57.3402 111.734 57.0006 111.723 56.7254 111.807C56.4539 111.89 56.1888 112.08 56.0661 112.348L56.0656 112.35ZM56.5423 113.294C56.5022 112.992 56.49 112.804 56.5957 112.571C56.6327 112.492 56.7366 112.398 56.8832 112.353C57.0257 112.311 57.1497 112.33 57.2318 112.395L57.2324 112.396C57.3159 112.462 57.4107 112.527 57.4953 112.585L57.4975 112.587C57.5102 112.596 57.5228 112.604 57.535 112.613L57.5351 112.613L57.5351 112.613C57.5479 112.622 57.5605 112.631 57.5727 112.639C57.6822 112.715 57.768 112.78 57.8293 112.846C57.8895 112.91 57.913 112.961 57.9196 113.003C57.9267 113.043 57.9223 113.111 57.86 113.225C57.7464 113.429 57.636 113.538 57.5418 113.595C57.4527 113.65 57.3603 113.669 57.2574 113.659C57.05 113.639 56.8048 113.505 56.5423 113.294Z" fill="#38394F" fill-opacity="0.2"/>
<path fill-rule="evenodd" clip-rule="evenodd" d="M49.1573 128.306C48.8327 128.663 48.7617 129.021 48.6953 129.359C48.6946 129.363 48.6939 129.366 48.6933 129.37C48.6907 129.383 48.6883 129.396 48.6851 129.409C48.6727 129.477 48.6849 129.547 48.7201 129.604C48.9341 129.941 49.2289 130.303 49.6261 130.454C49.834 130.533 50.0701 130.552 50.3225 130.481C50.5712 130.41 50.811 130.261 51.0463 130.037C51.2216 129.871 51.3326 129.691 51.3682 129.495C51.4037 129.301 51.3577 129.13 51.2912 128.99C51.2253 128.853 51.1309 128.726 51.0462 128.619C51.0224 128.589 50.9996 128.56 50.9773 128.532C50.916 128.455 50.8628 128.389 50.8156 128.32C50.6248 128.037 50.2924 127.937 49.9921 127.947C49.6974 127.956 49.3703 128.073 49.1579 128.305L49.1573 128.306ZM49.3076 129.362C49.3706 129.055 49.422 128.867 49.6053 128.665C49.6685 128.596 49.804 128.532 49.9631 128.527C50.1184 128.522 50.2346 128.574 50.2931 128.661L50.2937 128.662C50.3503 128.746 50.4196 128.832 50.4827 128.91L50.4827 128.91L50.4906 128.92C50.498 128.929 50.5055 128.939 50.5128 128.948C50.5244 128.962 50.5357 128.976 50.546 128.99C50.6291 129.094 50.6909 129.181 50.7298 129.264C50.7681 129.342 50.7744 129.398 50.7665 129.441C50.7586 129.481 50.7325 129.548 50.6308 129.644C50.451 129.815 50.3046 129.893 50.1929 129.925C50.0855 129.955 49.9883 129.949 49.89 129.912C49.6931 129.837 49.4963 129.639 49.3076 129.362Z" fill="#38394F" fill-opacity="0.2"/>
<path fill-rule="evenodd" clip-rule="evenodd" d="M37.1605 142.499L37.158 142.504C37.1501 142.519 37.1412 142.534 37.1322 142.549C37.0978 142.613 37.085 142.685 37.1009 142.752C37.1881 143.145 37.3428 143.59 37.6636 143.854C37.8327 143.993 38.0472 144.08 38.3073 144.084C38.563 144.088 38.8388 144.01 39.1335 143.86C39.3521 143.748 39.5178 143.602 39.6164 143.42C39.7144 143.24 39.7282 143.059 39.7131 142.901C39.6968 142.746 39.6501 142.594 39.607 142.464C39.5952 142.426 39.5833 142.391 39.5709 142.358C39.5391 142.265 39.5122 142.183 39.4908 142.101C39.4059 141.767 39.1293 141.571 38.8445 141.492C38.5651 141.415 38.2212 141.435 37.9441 141.601L37.9429 141.601C37.5208 141.856 37.3354 142.187 37.1605 142.499ZM37.7309 142.686C37.8918 142.401 38.0041 142.231 38.2423 142.086C38.3252 142.037 38.4732 142.013 38.6245 142.055C38.7702 142.096 38.8613 142.181 38.888 142.283L38.8875 142.285C38.9147 142.388 38.9519 142.499 38.9859 142.596C38.9967 142.627 39.0064 142.655 39.0155 142.683C39.057 142.809 39.0864 142.914 39.0955 143.005C39.1047 143.093 39.0925 143.151 39.07 143.191C39.0497 143.228 39.0033 143.286 38.8759 143.351C38.6501 143.466 38.4865 143.502 38.3714 143.499C38.2613 143.498 38.172 143.464 38.0929 143.398C37.9325 143.267 37.8141 143.014 37.7309 142.686Z" fill="#38394F" fill-opacity="0.2"/>
<path fill-rule="evenodd" clip-rule="evenodd" d="M22.2228 151.762L22.2213 151.764C22.2191 151.766 22.2169 151.768 22.2146 151.77C22.205 151.78 22.195 151.79 22.186 151.8C22.1355 151.851 22.1054 151.917 22.1005 151.986C22.0698 152.395 22.0865 152.87 22.3034 153.222C22.4186 153.406 22.5878 153.556 22.8228 153.637C23.0524 153.716 23.3237 153.723 23.631 153.665C23.8611 153.621 24.0499 153.529 24.191 153.382C24.3289 153.236 24.3916 153.064 24.4215 152.906C24.4498 152.751 24.4502 152.59 24.4478 152.452C24.4474 152.438 24.4469 152.424 24.4465 152.41C24.4457 152.385 24.4449 152.361 24.4446 152.337C24.4443 152.328 24.444 152.319 24.4438 152.311C24.4411 152.223 24.4386 152.143 24.4424 152.065C24.459 151.717 24.263 151.444 24.0274 151.283C23.7962 151.125 23.4789 151.042 23.1826 151.12L23.1815 151.121C22.7287 151.243 22.4682 151.51 22.2228 151.762ZM22.689 152.109C22.9139 151.881 23.0621 151.75 23.318 151.68C23.4057 151.657 23.547 151.677 23.6715 151.763C23.7923 151.846 23.852 151.956 23.847 152.063L23.846 152.064C23.8422 152.173 23.8454 152.29 23.849 152.395C23.8494 152.411 23.8498 152.427 23.8501 152.442L23.8501 152.442C23.8505 152.458 23.8508 152.473 23.8513 152.488C23.8548 152.623 23.8526 152.733 23.8346 152.824C23.8171 152.913 23.7911 152.964 23.7596 152.997C23.7312 153.028 23.673 153.07 23.5399 153.095C23.3034 153.14 23.1467 153.124 23.0421 153.088C22.9429 153.055 22.8721 152.995 22.8191 152.908C22.7104 152.733 22.6735 152.452 22.689 152.109Z" fill="#38394F" fill-opacity="0.2"/>
<path fill-rule="evenodd" clip-rule="evenodd" d="M5.49848 156.313L5.49552 156.315C5.48177 156.323 5.46748 156.331 5.45216 156.34C5.39246 156.373 5.34541 156.428 5.32262 156.493C5.18303 156.876 5.0679 157.339 5.17282 157.744C5.22716 157.956 5.34384 158.152 5.53852 158.301C5.72996 158.446 5.97828 158.536 6.27996 158.573C6.50387 158.6 6.70504 158.569 6.87486 158.47C7.04209 158.371 7.14797 158.225 7.21861 158.083C7.28776 157.942 7.33201 157.787 7.36759 157.653C7.37668 157.614 7.38586 157.577 7.39559 157.542C7.41995 157.445 7.44158 157.361 7.46802 157.281C7.5792 156.95 7.47184 156.628 7.2985 156.401C7.12737 156.178 6.85646 156.003 6.56122 155.988L6.55965 155.988C6.10776 155.969 5.79407 156.146 5.49848 156.313ZM5.83305 156.79C6.10406 156.639 6.27653 156.557 6.53266 156.569C6.62063 156.572 6.74488 156.636 6.83775 156.756C6.92737 156.872 6.95172 156.995 6.91715 157.097L6.91669 157.098C6.88381 157.198 6.85568 157.308 6.83057 157.407L6.83057 157.407L6.82798 157.417L6.82552 157.427C6.81865 157.455 6.81211 157.482 6.80549 157.507C6.77085 157.638 6.73897 157.743 6.69806 157.825C6.65863 157.906 6.61894 157.948 6.58171 157.969C6.54652 157.99 6.48073 158.012 6.35181 157.996C6.12057 157.967 5.9787 157.906 5.89228 157.839C5.80965 157.777 5.76072 157.697 5.73456 157.597C5.68214 157.396 5.7243 157.116 5.83305 156.79Z" fill="#38394F" fill-opacity="0.2"/>
<path fill-rule="evenodd" clip-rule="evenodd" d="M1.55724 26.8852L1.56122 26.8843C1.57645 26.8814 1.59268 26.8778 1.60836 26.8733C1.67484 26.8597 1.73311 26.8215 1.77381 26.7676C2.0129 26.4443 2.25046 26.0371 2.26445 25.6214C2.27095 25.4019 2.21597 25.1813 2.07327 24.9806C1.93435 24.7844 1.72327 24.6248 1.45014 24.4988L1.44914 24.4994C1.24494 24.4049 1.04706 24.3745 0.857944 24.4176C0.672942 24.4611 0.532617 24.5678 0.42542 24.683C0.32167 24.7949 0.236258 24.9288 0.165525 25.0467C0.150153 25.0719 0.135898 25.0964 0.122111 25.1202C0.117445 25.1282 0.112833 25.1362 0.108249 25.144C0.106257 25.1474 0.104276 25.1507 0.102303 25.154C0.0545962 25.2341 0.012266 25.3052 -0.0335487 25.3721C-0.230945 25.6528 -0.219016 25.9922 -0.118021 26.2593C-0.0192477 26.5223 0.187477 26.7718 0.463163 26.8738L0.46472 26.8743C0.885873 27.0296 1.23121 26.9553 1.55724 26.8852ZM1.69236 25.5915C1.68587 25.7991 1.56719 26.053 1.37424 26.33C1.07639 26.3924 0.890617 26.4178 0.651392 26.3304C0.570243 26.3002 0.469876 26.2037 0.415656 26.0609C0.363213 25.9238 0.375249 25.798 0.43608 25.7119L0.435524 25.7109C0.497801 25.6228 0.556524 25.5233 0.609018 25.4339C0.613813 25.4258 0.618521 25.4178 0.623171 25.4098C0.634265 25.3909 0.645025 25.3725 0.655839 25.3554C0.724682 25.2412 0.784291 25.1506 0.846452 25.0837C0.906167 25.0195 0.954645 24.9918 0.996226 24.9825C1.03525 24.9732 1.10329 24.972 1.22079 25.0261C1.43121 25.1225 1.5477 25.2249 1.61138 25.3135C1.67129 25.3976 1.69561 25.4877 1.69236 25.5915Z" fill="#38394F" fill-opacity="0.2"/>
<path fill-rule="evenodd" clip-rule="evenodd" d="M26.8626 33.0545C27.2128 33.3952 27.5704 33.4808 27.9084 33.5612L27.9575 33.5733C28.0272 33.5899 28.0965 33.5796 28.1547 33.5465C28.4996 33.3449 28.8728 33.0648 29.0353 32.6723C29.1211 32.4665 29.1474 32.2298 29.0831 31.9735C29.0196 31.7211 28.876 31.4733 28.659 31.2282C28.4971 31.0464 28.3185 30.9268 28.1227 30.8824C27.9292 30.8398 27.7568 30.8788 27.613 30.9397C27.4728 31.0001 27.3431 31.0892 27.2335 31.1702C27.202 31.193 27.1725 31.2148 27.144 31.236C27.1402 31.2388 27.1365 31.2416 27.1328 31.2443C27.0593 31.2991 26.9937 31.348 26.9258 31.3904C26.6363 31.5705 26.5255 31.8989 26.5269 32.2009C26.5278 32.4974 26.6353 32.8307 26.862 33.0534L26.8626 33.0545ZM27.9292 32.9459C27.6222 32.8701 27.4342 32.8115 27.2366 32.619C27.171 32.5527 27.1088 32.4144 27.1092 32.2535C27.109 32.0986 27.1642 31.984 27.2529 31.9286L27.2539 31.9281C27.3446 31.8717 27.4365 31.8031 27.519 31.7411C27.5345 31.7301 27.5491 31.7192 27.5632 31.7085L27.5632 31.7085C27.5729 31.7012 27.5823 31.6941 27.5917 31.6873C27.6989 31.609 27.7884 31.5503 27.8718 31.5137C27.9517 31.4803 28.0074 31.4759 28.0512 31.4851C28.0923 31.4943 28.1573 31.5236 28.2508 31.6292C28.4173 31.8171 28.4924 31.9672 28.5206 32.081C28.5484 32.1893 28.5397 32.2873 28.4992 32.3839C28.4184 32.5798 28.2137 32.7685 27.9292 32.9459Z" fill="#38394F" fill-opacity="0.2"/>
<path fill-rule="evenodd" clip-rule="evenodd" d="M49.6548 49.0329L49.6553 49.0332C49.6624 49.0378 49.6696 49.0428 49.6768 49.0477C49.684 49.0526 49.6913 49.0575 49.6983 49.0622C49.7584 49.1033 49.8283 49.1219 49.897 49.1143C50.3015 49.0689 50.7618 48.9634 51.0607 48.6779C51.2171 48.5278 51.3287 48.3284 51.3601 48.0749C51.3912 47.8257 51.343 47.5502 51.2244 47.2478C51.1348 47.0231 51.007 46.8475 50.8353 46.7325C50.6658 46.6192 50.4856 46.5867 50.3253 46.586C50.1691 46.5858 50.0118 46.6146 49.8769 46.644C49.8384 46.6521 49.8025 46.6603 49.7666 46.6684C49.7561 46.6707 49.7458 46.673 49.7355 46.6752C49.6526 46.6932 49.5774 46.7096 49.5026 46.7211C49.1592 46.7688 48.9324 47.0194 48.8235 47.2882C48.7173 47.5526 48.6989 47.8898 48.8363 48.1764L48.8369 48.1775C49.0473 48.6152 49.3603 48.8304 49.6548 49.0329ZM49.8996 48.494C49.6321 48.3079 49.4737 48.1815 49.3541 47.9348C49.3135 47.8506 49.3052 47.7036 49.3638 47.5599C49.4201 47.4217 49.5146 47.342 49.6208 47.3268C49.728 47.3111 49.8419 47.2861 49.944 47.2633C49.9544 47.2609 49.9646 47.2585 49.9747 47.2561L49.9747 47.2561C49.9949 47.2514 50.0143 47.2468 50.0332 47.2432C50.1645 47.2143 50.2721 47.197 50.3648 47.1976C50.4543 47.1972 50.5096 47.2153 50.5473 47.2416C50.5832 47.2646 50.6361 47.3165 50.687 47.4461C50.7791 47.678 50.7957 47.8403 50.7814 47.9529C50.7683 48.0605 50.7244 48.1425 50.6501 48.214C50.5015 48.357 50.2362 48.4458 49.8996 48.494Z" fill="#38394F" fill-opacity="0.2"/>
<path fill-rule="evenodd" clip-rule="evenodd" d="M63.3979 72.2623L63.3982 72.2626C63.4026 72.2696 63.4074 72.2766 63.4122 72.2837C63.4171 72.2907 63.4219 72.2978 63.4263 72.3047C63.4665 72.3617 63.5247 72.4035 63.5914 72.422C63.9863 72.5306 64.4589 72.6077 64.8509 72.4683C65.0579 72.3959 65.2413 72.2629 65.3718 72.0545C65.5 71.8515 65.5658 71.5941 65.5751 71.2887C65.5818 71.0608 65.5319 70.8623 65.4176 70.7001C65.3043 70.5401 65.1494 70.4466 65.0001 70.3875C64.854 70.3294 64.6958 70.2978 64.5588 70.2734C64.5196 70.2667 64.4819 70.2604 64.4458 70.2547C64.4393 70.2535 64.4327 70.2524 64.4262 70.2513C64.3368 70.2361 64.2561 70.2224 64.1778 70.2026C63.839 70.1196 63.5274 70.2542 63.3183 70.4465C63.1132 70.6366 62.9618 70.923 62.9751 71.2215L62.9756 71.2225C62.9971 71.6792 63.2036 71.9795 63.3979 72.2623ZM63.841 71.8846C63.6652 71.6263 63.5678 71.459 63.5556 71.2013C63.5511 71.113 63.6026 70.9822 63.7129 70.8796C63.8212 70.7807 63.9419 70.7459 64.0463 70.7706L64.0468 70.7717C64.1528 70.7969 64.2704 70.8171 64.3735 70.8346C64.3862 70.8367 64.3988 70.8387 64.4112 70.8407L64.4112 70.8407C64.43 70.8436 64.4484 70.8465 64.466 70.8498C64.5989 70.8737 64.7063 70.8968 64.7923 70.9315C64.8762 70.9647 64.9207 71.0006 64.9465 71.036C64.9702 71.0699 64.9981 71.1335 64.9945 71.265C64.987 71.4986 64.9382 71.6466 64.88 71.7383C64.8253 71.8267 64.7511 71.8817 64.6537 71.9159C64.4585 71.9858 64.1751 71.9662 63.841 71.8846Z" fill="#38394F" fill-opacity="0.2"/>
<path fill-rule="evenodd" clip-rule="evenodd" d="M67.5001 98.5557L67.5009 98.5597C67.5016 98.5627 67.5022 98.5656 67.5028 98.5685C67.5056 98.5815 67.5082 98.594 67.5119 98.6068C67.5255 98.6733 67.5638 98.7316 67.6182 98.7733C67.9416 99.0125 68.3483 99.2491 68.764 99.2631C68.9835 99.2697 69.2041 99.2147 69.4048 99.072C69.602 98.9325 69.7606 98.722 69.8865 98.4488C69.9805 98.2436 70.0108 98.0457 69.9682 97.8575C69.9242 97.6715 69.8175 97.5311 69.7028 97.4249C69.5903 97.3201 69.4565 97.2347 69.3385 97.1639C69.3134 97.1486 69.2888 97.1343 69.265 97.1205C69.257 97.1158 69.249 97.1112 69.2412 97.1066L69.2327 97.1016C69.1519 97.0535 69.0804 97.0109 69.0141 96.9642C68.7323 96.7673 68.393 96.7792 68.1259 96.8802C67.8634 96.98 67.6139 97.1867 67.5114 97.4615L67.5109 97.463C67.3556 97.8842 67.4299 98.2296 67.5001 98.5557ZM68.0552 98.3727C67.9928 98.0748 67.9675 97.889 68.0548 97.6498C68.085 97.5686 68.1825 97.4677 68.3243 97.414C68.462 97.3626 68.5872 97.3736 68.6733 97.4345L68.6748 97.4349C68.7445 97.4836 68.8222 97.5304 68.8959 97.5747L68.8959 97.5747C68.9149 97.5861 68.9337 97.5974 68.9519 97.6085C68.9683 97.6182 68.9844 97.6275 69.0002 97.6366L69.0002 97.6367L69.0003 97.6367C69.0108 97.6428 69.0212 97.6488 69.0314 97.6547C69.1451 97.7226 69.2347 97.7828 69.3016 97.845C69.3658 97.9047 69.3935 97.9532 69.4028 97.9948C69.4121 98.0338 69.4133 98.1018 69.3597 98.2204C69.2628 98.4298 69.161 98.5473 69.0718 98.61C68.9877 98.6699 68.8976 98.6942 68.7938 98.691C68.5862 98.6844 68.3323 98.5657 68.0552 98.3727Z" fill="#38394F" fill-opacity="0.2"/>
<path fill-rule="evenodd" clip-rule="evenodd" d="M61.3314 123.864C60.9902 124.213 60.9046 124.571 60.8242 124.909L60.8121 124.958C60.7966 125.027 60.8058 125.097 60.8389 125.155C61.0405 125.5 61.3206 125.873 61.713 126.035C61.92 126.121 62.1555 126.148 62.4119 126.083C62.6643 126.02 62.912 125.876 63.1572 125.659C63.34 125.497 63.4597 125.318 63.5029 125.123C63.5456 124.929 63.5076 124.756 63.4456 124.613C63.3853 124.473 63.2962 124.343 63.2163 124.233C63.1958 124.207 63.177 124.181 63.1588 124.157C63.1556 124.153 63.1525 124.148 63.1493 124.144C63.0912 124.066 63.0406 123.997 62.9961 123.925C62.816 123.636 62.4864 123.526 62.1844 123.527C61.888 123.528 61.5546 123.635 61.332 123.862L61.3314 123.864ZM61.4395 124.929C61.5152 124.622 61.5744 124.435 61.767 124.238C61.8337 124.171 61.971 124.109 62.1319 124.109C62.2879 124.109 62.4014 124.164 62.4567 124.253L62.4573 124.254C62.5085 124.334 62.5685 124.416 62.624 124.492L62.6442 124.519C62.6612 124.541 62.6765 124.562 62.6912 124.582L62.6981 124.592C62.7764 124.699 62.8361 124.788 62.8717 124.872C62.9056 124.953 62.91 125.009 62.9002 125.051C62.891 125.092 62.8617 125.157 62.7572 125.25C62.5682 125.417 62.4182 125.493 62.3044 125.521C62.1961 125.549 62.0992 125.539 62.0015 125.499C61.8067 125.418 61.6169 125.214 61.4395 124.929Z" fill="#38394F" fill-opacity="0.2"/>
<path fill-rule="evenodd" clip-rule="evenodd" d="M46.2082 145.836C45.7709 146.047 45.5552 146.36 45.3532 146.655C45.3439 146.669 45.3335 146.684 45.3237 146.697C45.2826 146.757 45.2634 146.829 45.2721 146.897C45.317 147.3 45.4214 147.761 45.7079 148.059C45.8586 148.217 46.0579 148.328 46.3114 148.36C46.56 148.39 46.836 148.343 47.1377 148.223C47.363 148.134 47.5385 148.007 47.6529 147.834C47.7662 147.665 47.7987 147.484 47.7999 147.325C47.7996 147.168 47.7713 147.012 47.742 146.877C47.7372 146.854 47.7322 146.832 47.7274 146.811C47.724 146.796 47.7206 146.781 47.7175 146.766C47.7161 146.76 47.7146 146.753 47.7132 146.747C47.6937 146.658 47.6764 146.58 47.6643 146.502C47.6166 146.158 47.3666 145.932 47.0978 145.823C46.8329 145.716 46.4964 145.699 46.2093 145.835L46.2082 145.836ZM45.8917 146.898C46.0778 146.631 46.2042 146.473 46.4508 146.353C46.5356 146.313 46.6825 146.305 46.8256 146.363C46.9638 146.419 47.044 146.515 47.0587 146.62L47.0592 146.621C47.075 146.728 47.1 146.842 47.1222 146.943C47.1249 146.955 47.1276 146.966 47.1303 146.977L47.1303 146.977C47.1348 146.996 47.1392 147.015 47.1429 147.033C47.1712 147.163 47.1885 147.271 47.1879 147.364C47.1883 147.453 47.1702 147.508 47.1445 147.547C47.121 147.582 47.069 147.635 46.94 147.687C46.7077 147.778 46.5453 147.794 46.4333 147.781C46.3257 147.768 46.2433 147.723 46.1723 147.65C46.0293 147.501 45.9405 147.236 45.8917 146.898Z" fill="#38394F" fill-opacity="0.2"/>
<path fill-rule="evenodd" clip-rule="evenodd" d="M22.1231 160.397L22.1223 160.398C22.1089 160.407 22.0951 160.416 22.0812 160.425C22.0242 160.465 21.9824 160.524 21.9639 160.59C21.8553 160.985 21.7783 161.458 21.9166 161.85C21.9901 162.057 22.123 162.24 22.3304 162.371C22.5345 162.499 22.7918 162.565 23.0972 162.574C23.3241 162.581 23.5226 162.531 23.6858 162.416C23.8458 162.303 23.9393 162.148 23.9984 161.999C24.0565 161.853 24.0881 161.695 24.1114 161.558C24.1192 161.518 24.1254 161.481 24.1312 161.445C24.1325 161.437 24.1338 161.43 24.135 161.422C24.15 161.334 24.1636 161.254 24.1822 161.177C24.2662 160.838 24.1317 160.526 23.9384 160.318C23.7493 160.112 23.4629 159.961 23.1644 159.974L23.1633 159.974C22.7069 159.996 22.4067 160.202 22.1231 160.397ZM22.5013 160.84C22.7601 160.665 22.9269 160.567 23.1846 160.554C23.2729 160.55 23.4037 160.601 23.5053 160.712C23.6052 160.82 23.64 160.941 23.6142 161.046C23.5879 161.152 23.5688 161.269 23.5518 161.373L23.5482 161.395L23.5482 161.395C23.5442 161.419 23.5403 161.442 23.5361 161.465C23.5122 161.598 23.4891 161.705 23.4549 161.792C23.4212 161.875 23.3853 161.92 23.3499 161.945C23.316 161.969 23.2524 161.997 23.1209 161.993C22.8863 161.986 22.7393 161.937 22.6466 161.879C22.5592 161.824 22.5042 161.75 22.469 161.653C22.4001 161.457 22.4197 161.174 22.5013 160.84Z" fill="#38394F" fill-opacity="0.2"/>
</svg>
