<svg width="103" height="144" viewBox="0 0 103 144" fill="none" xmlns="http://www.w3.org/2000/svg">
<path fill-rule="evenodd" clip-rule="evenodd" d="M74.8753 10.616C59.6923 4.16966 42.4958 12.793 34.3158 27.9477C29.3155 37.2129 27.2545 48.0865 31.2903 58.0743C35.6127 68.7759 46.0469 73.5395 52.7773 75.9958C57.9232 77.8747 66.8352 80.5639 75.1404 74.5529C77.8474 72.5937 81.1161 70.0595 84.0378 67.0294C86.9324 64.0252 89.7892 60.228 91.2741 55.6691C94.7401 45.0276 93.0319 35.6031 90.191 26.8718C88.7419 22.4167 86.7956 18.9379 83.9456 16.1829C81.1767 13.505 77.9643 11.9277 74.8753 10.616ZM45.4186 33.9645C51.3882 22.9055 62.3222 19.069 69.9269 22.2985C72.6616 23.4588 74.1167 24.3117 75.17 25.3299C76.1435 26.2715 77.1794 27.7551 78.1824 30.8399C80.6406 38.3938 81.5414 44.7812 79.2687 51.7589C78.6074 53.7892 77.1503 55.9634 74.9723 58.2229C72.8201 60.4562 70.2536 62.4771 67.7723 64.2736C65.1397 66.1796 62.0281 65.8667 57.1244 64.0761C50.7014 61.7319 45.1201 58.5316 42.9972 53.2793C40.8155 47.8771 41.5811 41.0744 45.4186 33.9645Z" fill="#FEB3C4" fill-opacity="0.12"/>
<path fill-rule="evenodd" clip-rule="evenodd" d="M46.262 54.8694C25.0994 46.3911 0.507185 53.5954 -10.5975 71.7457C-17.5164 83.0556 -18.9594 95.7677 -12.3147 107.411C-8.8704 113.449 -3.39726 118.154 2.69449 121.881C8.78828 125.609 15.534 128.376 21.5652 130.521C30.7429 133.786 41.8867 136.805 51.3805 131.692C60.184 126.953 69.8322 119.331 72.8897 109.943C76.942 97.5015 74.9575 86.5277 69.1574 74.4294C66.4604 68.8053 63.4357 64.9841 59.7125 62.0278C56.0011 59.0807 51.6213 57.0176 46.262 54.8694ZM-9.61318 72.3401C1.17185 54.7129 25.1427 47.6332 45.8376 55.9245C51.1746 58.0628 55.4227 60.0764 58.9976 62.914C62.5616 65.744 65.4838 69.4175 68.1192 74.9126C73.8355 86.8347 75.7325 97.4996 71.7956 109.587C68.8786 118.543 59.5657 125.986 50.8257 130.692C41.8279 135.537 31.153 132.725 21.9466 129.45C15.9478 127.316 9.28845 124.581 3.29424 120.914C-2.702 117.246 -8.00059 112.665 -11.3153 106.857C-17.7128 95.6475 -16.3673 83.3794 -9.61318 72.3401Z" fill="#38394F" fill-opacity="0.1"/>
</svg>
