<svg width="72" height="128" viewBox="0 0 72 128" fill="none" xmlns="http://www.w3.org/2000/svg">
<path fill-rule="evenodd" clip-rule="evenodd" d="M57.6994 78.0485L57.6937 78.0449C57.6812 78.0378 57.6696 78.0305 57.658 78.0233C57.6062 77.9906 57.5473 77.9801 57.4907 77.9909C57.1549 78.0594 56.7737 78.1846 56.5316 78.456C56.4039 78.5983 56.3152 78.7813 56.2948 79.0048C56.2739 79.224 56.3206 79.4612 56.4262 79.7164L56.4263 79.7174C56.5048 79.907 56.6153 80.0511 56.7615 80.1395C56.9046 80.2262 57.0553 80.2422 57.1891 80.2311C57.3191 80.2206 57.449 80.1831 57.5606 80.1489C57.5927 80.1388 57.6229 80.1289 57.6522 80.1191C57.7315 80.0939 57.8015 80.0719 57.872 80.0553C58.1561 79.9884 58.3398 79.7538 58.4246 79.5112C58.5078 79.2719 58.5151 78.9759 58.3955 78.7352L58.3944 78.7343C58.2108 78.3697 57.9477 78.2045 57.6994 78.0485ZM57.502 78.5338C57.2227 78.6001 57.0037 78.6971 56.8831 78.8322C56.8232 78.8992 56.7878 78.9751 56.779 79.0695C56.7698 79.1683 56.7879 79.3089 56.8691 79.5057C56.915 79.6153 56.9598 79.6563 56.9893 79.6744C57.0219 79.6943 57.0683 79.7062 57.143 79.6998C57.2207 79.6941 57.309 79.67 57.4177 79.6361C57.434 79.6313 57.4508 79.6259 57.4683 79.6202L57.4683 79.6202L57.4923 79.6125L57.4933 79.6122C57.5771 79.5855 57.6712 79.5555 57.7594 79.5337L57.7604 79.5335C57.8482 79.5138 57.9255 79.4363 57.969 79.3122C58.0139 79.1825 58.0042 79.0548 57.9686 78.9838C57.8636 78.7758 57.7289 78.6774 57.502 78.5338Z" fill="#38394F" fill-opacity="0.2"/>
<path fill-rule="evenodd" clip-rule="evenodd" d="M67.3429 85.217L67.3416 85.2162C67.3382 85.2141 67.3347 85.2119 67.3312 85.2098C67.3227 85.2046 67.314 85.1993 67.3057 85.1935C67.2551 85.1617 67.1961 85.1513 67.1386 85.1622C66.8036 85.2306 66.4223 85.3558 66.1791 85.6262C66.0516 85.7696 65.9637 85.9514 65.9424 86.176C65.9224 86.3951 65.9682 86.6325 66.0738 86.8876C66.1534 87.0782 66.2629 87.2223 66.4092 87.3108C66.5533 87.3973 66.704 87.4133 66.8369 87.4024C66.9679 87.3917 67.0977 87.3543 67.2094 87.32C67.2415 87.3099 67.2717 87.3 67.301 87.2902C67.3105 87.2872 67.3199 87.2842 67.3292 87.2812C67.3972 87.2596 67.4585 87.24 67.5198 87.2255C67.805 87.1595 67.9877 86.925 68.0726 86.6824C68.1559 86.4432 68.1631 86.1472 68.0435 85.9065L68.0434 85.9054C67.8577 85.5388 67.5936 85.3737 67.3429 85.217ZM67.1508 85.7049C66.8705 85.7714 66.6524 85.8683 66.5317 86.0034C66.4709 86.0704 66.4365 86.1463 66.4277 86.2407C66.4184 86.3394 66.4355 86.4802 66.5168 86.677C66.5627 86.7866 66.6075 86.8276 66.638 86.8456C66.6706 86.8655 66.716 86.8774 66.7917 86.8709C66.8684 86.8653 66.9577 86.8412 67.0664 86.8073C67.0892 86.8004 67.1146 86.7921 67.1401 86.7838L67.1696 86.7744C67.2459 86.7499 67.3288 86.7234 67.4073 86.7049L67.4082 86.7048C67.4961 86.6851 67.5734 86.6075 67.6178 86.4822C67.6628 86.3536 67.6521 86.2261 67.6175 86.1549C67.5124 85.9469 67.3778 85.8485 67.1508 85.7049Z" fill="#38394F" fill-opacity="0.2"/>
<path fill-rule="evenodd" clip-rule="evenodd" d="M60.1434 84.9417L60.1377 84.9381C60.1343 84.936 60.1308 84.9339 60.1273 84.9318C60.1188 84.9266 60.1101 84.9213 60.1018 84.9154C60.0502 84.8838 59.9912 84.8733 59.9347 84.8841C59.5988 84.9526 59.2175 85.0779 58.9753 85.3492C58.8477 85.4916 58.7598 85.6734 58.7385 85.898C58.7185 86.1171 58.7643 86.3544 58.8699 86.6096L58.87 86.6107C58.9485 86.8002 59.0591 86.9443 59.2053 87.0327C59.3484 87.1194 59.5001 87.1353 59.633 87.1244C59.763 87.1138 59.8929 87.0764 60.0045 87.0421C60.0367 87.032 60.0669 87.0221 60.0961 87.0123C60.1755 86.9871 60.2454 86.9652 60.316 86.9485C60.6011 86.8815 60.7839 86.647 60.8687 86.4043C60.952 86.1651 60.9592 85.8691 60.8396 85.6284L60.8385 85.6275C60.6549 85.2629 60.3918 85.0977 60.1434 84.9417ZM59.9469 85.4269C59.6666 85.4933 59.4475 85.5903 59.3269 85.7254C59.267 85.7924 59.2316 85.8684 59.2228 85.9627C59.2136 86.0615 59.2316 86.2022 59.3129 86.3989C59.3588 86.5085 59.4036 86.5496 59.4341 86.5675C59.4657 86.5875 59.5122 86.5994 59.5868 86.593C59.6645 86.5873 59.7538 86.5631 59.8616 86.5293C59.8853 86.5223 59.9108 86.514 59.9362 86.5057L59.9372 86.5054C60.0211 86.4787 60.1152 86.4487 60.2034 86.4269L60.2044 86.4267C60.2922 86.407 60.3695 86.3295 60.4129 86.2043C60.458 86.0757 60.4482 85.948 60.4127 85.877C60.3085 85.6688 60.1739 85.5705 59.9469 85.4269Z" fill="#38394F" fill-opacity="0.2"/>
<path fill-rule="evenodd" clip-rule="evenodd" d="M48.3431 87.9241L48.3418 87.9235C48.3362 87.9209 48.3302 87.9184 48.3243 87.9158C48.3184 87.9133 48.3125 87.9108 48.3068 87.9082C48.2571 87.8849 48.1977 87.8788 48.141 87.8885C47.8043 87.9496 47.4216 88.0546 47.1716 88.266C47.0403 88.3768 46.9477 88.517 46.92 88.686C46.8939 88.8516 46.9329 89.0291 47.0309 89.2183L47.031 89.2191C47.1049 89.3596 47.2101 89.4658 47.3533 89.5275C47.4944 89.5887 47.6442 89.5965 47.777 89.5845C47.9069 89.5728 48.0375 89.5418 48.1496 89.512C48.1819 89.5035 48.2133 89.4951 48.2418 89.487L48.2471 89.4856C48.3256 89.4648 48.3935 89.4469 48.4627 89.4327C48.7489 89.3742 48.9376 89.1924 49.029 89.0072C49.1188 88.8247 49.1344 88.6015 49.022 88.4244L49.0209 88.4229C48.8471 88.1519 48.5885 88.035 48.3431 87.9241ZM48.1378 88.297C47.8565 88.355 47.6364 88.4341 47.5114 88.5394C47.4498 88.5915 47.4134 88.6496 47.4019 88.721C47.3899 88.7956 47.403 88.9012 47.4784 89.0471C47.521 89.1284 47.5646 89.158 47.5944 89.1707C47.6254 89.1848 47.6714 89.1925 47.746 89.1855C47.8236 89.1791 47.9133 89.1583 48.0216 89.1298C48.0454 89.1239 48.0711 89.1169 48.0967 89.1099L48.0967 89.1099L48.0976 89.1097C48.1819 89.0872 48.2766 89.0619 48.3653 89.0438L48.3662 89.0429C48.4543 89.0255 48.5336 88.9649 48.5805 88.8702C48.6299 88.7712 48.6228 88.6754 48.5894 88.6229C48.4915 88.4691 48.36 88.3988 48.1378 88.297Z" fill="#38394F" fill-opacity="0.2"/>
<path fill-rule="evenodd" clip-rule="evenodd" d="M40.4945 91.0548C40.3204 90.7832 40.0612 90.6663 39.8155 90.556C39.8074 90.5518 39.7989 90.548 39.7906 90.5444C39.7871 90.5429 39.7837 90.5414 39.7804 90.5399C39.7307 90.5166 39.6722 90.5104 39.6147 90.521C39.2788 90.5812 38.8952 90.6863 38.6452 90.8977C38.5139 91.0086 38.4213 91.1489 38.3936 91.3179C38.3675 91.4836 38.4065 91.6611 38.5046 91.8512C38.5785 91.9917 38.6837 92.098 38.8269 92.1597C38.9681 92.2209 39.1178 92.2287 39.2506 92.2167C39.3815 92.2049 39.5121 92.1739 39.6242 92.1441C39.6341 92.1415 39.6437 92.139 39.6533 92.1364C39.675 92.1306 39.6959 92.125 39.7164 92.1199C39.7962 92.0979 39.8665 92.0793 39.9364 92.0649C40.2225 92.0064 40.4112 91.8245 40.5026 91.6393C40.5924 91.4567 40.608 91.2335 40.4956 91.0563L40.4945 91.0548ZM39.6114 90.9288C39.3301 90.9868 39.11 91.066 38.986 91.1712C38.9234 91.2234 38.8869 91.2815 38.8755 91.3529C38.8635 91.4276 38.8766 91.5332 38.9521 91.6791C38.9947 91.7604 39.0382 91.7901 39.0681 91.8028C39.1 91.8168 39.145 91.8246 39.2206 91.8175C39.2972 91.8112 39.3869 91.7904 39.4962 91.7618C39.5191 91.756 39.5447 91.749 39.5703 91.742L39.5703 91.742L39.5704 91.742L39.5712 91.7418C39.6556 91.7193 39.7502 91.694 39.8389 91.6758L39.8398 91.6749C39.9279 91.6576 40.0072 91.597 40.0551 91.5021C40.1035 91.4032 40.0964 91.3073 40.0639 91.2547C39.9651 91.1009 39.8336 91.0306 39.6114 90.9288Z" fill="#38394F" fill-opacity="0.2"/>
<path fill-rule="evenodd" clip-rule="evenodd" d="M43.1448 71.4363L43.1435 71.4355C43.1401 71.4333 43.1366 71.4312 43.1331 71.4291C43.1246 71.4239 43.1159 71.4186 43.1076 71.4127C43.0569 71.381 42.997 71.3707 42.9405 71.3814C42.6046 71.4499 42.2242 71.5751 41.981 71.8455C41.8534 71.9889 41.7655 72.1707 41.7443 72.3953C41.7243 72.6144 41.7701 72.8517 41.8757 73.1069C41.9553 73.2974 42.0648 73.4416 42.2111 73.53C42.3551 73.6166 42.5058 73.6326 42.6388 73.6217C42.7697 73.611 42.8996 73.5736 43.0113 73.5393C43.0434 73.5292 43.0736 73.5193 43.1019 73.5096C43.1132 73.506 43.1244 73.5025 43.1353 73.499C43.202 73.4779 43.2619 73.459 43.3216 73.4447C43.6069 73.3788 43.7896 73.1443 43.8745 72.9017C43.9577 72.6624 43.965 72.3664 43.8454 72.1257L43.8443 72.1248C43.6596 71.7581 43.3955 71.593 43.1448 71.4363ZM42.9527 71.9242C42.6723 71.9907 42.4543 72.0875 42.3327 72.2227C42.2728 72.2897 42.2383 72.3656 42.2296 72.46C42.2203 72.5587 42.2374 72.6995 42.3187 72.8963C42.3645 73.0059 42.4094 73.0469 42.4398 73.0648C42.4715 73.0848 42.5179 73.0967 42.5926 73.0903C42.6703 73.0846 42.7596 73.0604 42.8674 73.0266C42.891 73.0196 42.9165 73.0113 42.942 73.0031L42.9715 72.9936C43.0478 72.9692 43.1307 72.9427 43.2092 72.9242L43.2101 72.9241C43.298 72.9043 43.3753 72.8268 43.4187 72.7016C43.4647 72.5729 43.454 72.4453 43.4194 72.3742C43.3143 72.1662 43.1797 72.0678 42.9527 71.9242Z" fill="#38394F" fill-opacity="0.2"/>
<path fill-rule="evenodd" clip-rule="evenodd" d="M43.3 63.126L43.2945 63.1235C43.2912 63.122 43.2878 63.1205 43.2843 63.119C43.276 63.1153 43.2675 63.1116 43.2594 63.1074C43.2088 63.085 43.1503 63.0788 43.0937 63.0885C42.7569 63.1496 42.3733 63.2547 42.1243 63.466C41.993 63.5768 41.9003 63.7162 41.8727 63.886C41.8466 64.0516 41.8855 64.2291 41.9836 64.4183L41.9837 64.4191C42.0566 64.5597 42.1627 64.665 42.3059 64.7275C42.4461 64.7888 42.5968 64.7965 42.7296 64.7845C42.8595 64.7728 42.9901 64.741 43.1023 64.712C43.1346 64.7035 43.165 64.6952 43.1944 64.687C43.2743 64.6658 43.3446 64.6472 43.4154 64.6327C43.7015 64.5742 43.8903 64.3924 43.9817 64.2072C44.0715 64.0247 44.087 63.8015 43.9746 63.6236L43.9736 63.6229C43.8008 63.3535 43.5432 63.2365 43.3 63.126ZM43.0905 63.497C42.8092 63.555 42.5881 63.6342 42.4641 63.7394C42.4025 63.7915 42.3651 63.8497 42.3536 63.9211C42.3416 63.9957 42.3557 64.1012 42.4311 64.2471C42.4737 64.3284 42.5173 64.358 42.5471 64.3707C42.5781 64.3848 42.624 64.3925 42.6987 64.3855C42.7763 64.379 42.8659 64.3583 42.9743 64.3298C42.9981 64.3239 43.0238 64.3169 43.0494 64.3099L43.0504 64.3097C43.1347 64.2872 43.2294 64.2619 43.3179 64.243L43.3189 64.2429C43.407 64.2255 43.4862 64.1649 43.5331 64.0694C43.5816 63.9713 43.5755 63.8754 43.5421 63.8229C43.4441 63.669 43.3127 63.5988 43.0905 63.497Z" fill="#38394F" fill-opacity="0.2"/>
<path fill-rule="evenodd" clip-rule="evenodd" d="M47.4481 45.781C47.263 45.4135 46.9983 45.2484 46.7474 45.0925C46.7391 45.0866 46.7304 45.0813 46.7219 45.0761C46.7184 45.074 46.7149 45.0719 46.7115 45.0697C46.6608 45.038 46.6017 45.0265 46.5443 45.0384C46.2093 45.1058 45.828 45.231 45.5849 45.5026C45.4572 45.645 45.3695 45.8279 45.3481 46.0515C45.3281 46.2707 45.374 46.5092 45.4796 46.7644C45.5591 46.954 45.6688 47.0993 45.8149 47.1867C45.959 47.2733 46.1097 47.2893 46.2426 47.2784C46.3736 47.2677 46.5036 47.2313 46.6151 47.196C46.6249 47.1929 46.6345 47.1898 46.644 47.1868C46.6656 47.1799 46.6864 47.1733 46.7068 47.1672C46.7861 47.141 46.856 47.119 46.9256 47.1025C47.2107 47.0354 47.3935 46.8009 47.4783 46.5581C47.5617 46.3199 47.5688 46.0227 47.4493 45.783L47.4481 45.781ZM46.5564 45.5803C46.2761 45.6468 46.0581 45.7437 45.9374 45.8788C45.8765 45.9459 45.8421 46.0218 45.8334 46.1162C45.8241 46.215 45.8413 46.3569 45.9225 46.5527C45.9684 46.6623 46.0132 46.7033 46.0437 46.7213C46.0763 46.7412 46.1218 46.7532 46.1974 46.7467C46.2741 46.7411 46.3635 46.718 46.4721 46.683C46.4949 46.6761 46.5203 46.6678 46.5458 46.6595L46.5458 46.6595L46.5458 46.6595L46.5467 46.6593C46.6306 46.6325 46.7247 46.6025 46.8131 46.5817L46.8141 46.5816C46.9018 46.5608 46.9791 46.4832 47.0236 46.359C47.0685 46.2293 47.0578 46.1016 47.0232 46.0304C46.9181 45.8224 46.7834 45.724 46.5564 45.5803Z" fill="#38394F" fill-opacity="0.2"/>
<path fill-rule="evenodd" clip-rule="evenodd" d="M39.3266 52.5432L39.3261 52.543C39.3199 52.5405 39.314 52.5377 39.3081 52.535C39.3021 52.5322 39.2962 52.5295 39.29 52.527C39.2404 52.5045 39.1818 52.4975 39.1243 52.5081C38.7886 52.5691 38.4049 52.6734 38.1559 52.8847C38.0247 52.9963 37.931 53.1359 37.9043 53.3048C37.8773 53.4706 37.9173 53.6488 38.0153 53.838C38.0883 53.9794 38.1944 54.0849 38.3367 54.1475C38.4779 54.2086 38.6275 54.2156 38.7603 54.2037C38.8912 54.1927 39.0217 54.1608 39.1339 54.1311C39.1455 54.128 39.157 54.1251 39.1682 54.1222C39.1881 54.117 39.2073 54.1121 39.2261 54.1068C39.2357 54.1043 39.2452 54.1018 39.2545 54.0993C39.3228 54.081 39.3846 54.0646 39.446 54.0519C39.7322 53.9941 39.9209 53.8123 40.0132 53.6262C40.103 53.4444 40.1186 53.2212 40.0052 53.0433L40.0051 53.0425C39.8301 52.7705 39.5712 52.6536 39.3266 52.5432ZM39.1212 52.9167C38.8408 52.9738 38.6197 53.053 38.4957 53.1582C38.4342 53.2111 38.3967 53.2686 38.3853 53.3399C38.3733 53.4154 38.3874 53.5209 38.4627 53.666C38.5044 53.7474 38.548 53.7779 38.5779 53.7905C38.6097 53.8038 38.6556 53.8114 38.7303 53.8053C38.8079 53.798 38.8966 53.7782 39.006 53.7496C39.0224 53.7455 39.0393 53.7409 39.0569 53.7362L39.0811 53.7297C39.1655 53.7063 39.2606 53.681 39.3495 53.6627L39.3505 53.6626C39.4376 53.6446 39.5178 53.5847 39.5647 53.4891C39.6132 53.391 39.6071 53.2951 39.5736 53.2417C39.4748 53.0888 39.3433 53.0185 39.1212 52.9167Z" fill="#38394F" fill-opacity="0.2"/>
<path fill-rule="evenodd" clip-rule="evenodd" d="M46.2334 35.7726L46.2321 35.7718C46.2287 35.7697 46.2252 35.7675 46.2217 35.7654C46.2132 35.7602 46.2045 35.7549 46.1962 35.7491C46.1455 35.7173 46.0866 35.7069 46.029 35.7178C45.6941 35.7862 45.3128 35.9114 45.0696 36.1818C44.942 36.3252 44.8541 36.507 44.8329 36.7316C44.8129 36.9507 44.8587 37.1881 44.9643 37.4432C45.0439 37.6338 45.1534 37.7779 45.2997 37.8664C45.4437 37.9529 45.5944 37.9689 45.7273 37.958C45.8583 37.9473 45.9882 37.9099 46.0998 37.8756C46.132 37.8655 46.1622 37.8556 46.1914 37.8458C46.201 37.8428 46.2104 37.8398 46.2197 37.8368C46.2876 37.8152 46.349 37.7956 46.4102 37.7811C46.6955 37.7151 46.8782 37.4806 46.9631 37.238C47.0463 36.9988 47.0536 36.7028 46.934 36.4621L46.9338 36.461C46.7482 36.0944 46.4841 35.9293 46.2334 35.7726ZM46.0412 36.2605C45.7609 36.327 45.5429 36.4239 45.4222 36.559C45.3613 36.626 45.3269 36.7019 45.3182 36.7963C45.3089 36.895 45.326 37.0358 45.4073 37.2326C45.4531 37.3422 45.498 37.3832 45.5284 37.4012C45.5611 37.4211 45.6065 37.433 45.6822 37.4265C45.7589 37.421 45.8482 37.3968 45.9569 37.3629C45.9796 37.356 46.0051 37.3477 46.0306 37.3394L46.0595 37.3302C46.136 37.3057 46.2192 37.279 46.2987 37.2604C46.3866 37.2407 46.4639 37.1631 46.5083 37.0378C46.5533 36.9092 46.5426 36.7817 46.508 36.7105C46.4029 36.5025 46.2682 36.4041 46.0412 36.2605Z" fill="#38394F" fill-opacity="0.2"/>
<path fill-rule="evenodd" clip-rule="evenodd" d="M54.777 32.8047C54.5566 32.4404 54.2312 32.2823 53.9228 32.133C53.9157 32.1296 53.9082 32.1258 53.9007 32.1221C53.8933 32.1184 53.8858 32.1147 53.8787 32.1113C53.8164 32.0808 53.7419 32.0711 53.6712 32.0846C53.2517 32.1626 52.7726 32.298 52.4618 32.5772C52.2988 32.7246 52.184 32.9095 52.151 33.1344C52.12 33.3547 52.1704 33.5925 52.2949 33.8455C52.3887 34.0344 52.5212 34.1759 52.7011 34.2605C52.8783 34.3432 53.0656 34.354 53.2317 34.3403C53.3953 34.3259 53.5583 34.2847 53.6983 34.2461C53.7388 34.2361 53.7767 34.2253 53.8123 34.2148C53.8265 34.2109 53.8405 34.2071 53.8543 34.2033C53.938 34.1802 54.0132 34.1595 54.0881 34.1435C54.4456 34.0693 54.6801 33.8289 54.7926 33.5821C54.9033 33.3408 54.9207 33.0437 54.7784 32.8056L54.777 32.8047ZM53.6711 32.6287C53.3196 32.7022 53.045 32.8056 52.8895 32.9446C52.813 33.0146 52.7679 33.0906 52.7543 33.1855C52.7401 33.2858 52.7574 33.4266 52.8531 33.6206L53.6711 32.6287ZM53.6711 32.6287C53.95 32.7663 54.1151 32.8612 54.2401 33.0658C54.2814 33.1373 54.2911 33.2649 54.2301 33.3953C54.1724 33.5221 54.0737 33.6011 53.9638 33.6244L53.9626 33.6245C53.8514 33.648 53.7328 33.6809 53.6273 33.7112C53.5953 33.7202 53.5633 33.7293 53.5335 33.737C53.3982 33.7739 53.2861 33.7996 53.1904 33.8084C53.0958 33.8161 53.0383 33.8055 52.9995 33.7874C52.962 33.7702 52.9071 33.7293 52.8532 33.6217L53.6711 32.6287Z" fill="#38394F" fill-opacity="0.2"/>
<path fill-rule="evenodd" clip-rule="evenodd" d="M64.4591 74.4927L64.4587 74.4925C64.4463 74.4867 64.4349 74.4816 64.4226 74.4765C64.373 74.454 64.3144 74.447 64.2569 74.4577C63.921 74.5179 63.5375 74.623 63.2885 74.8343C63.1572 74.9451 63.0636 75.0855 63.0369 75.2545C63.0099 75.4202 63.0498 75.5976 63.1479 75.7877C63.2208 75.9284 63.327 76.0346 63.4692 76.0964C63.6104 76.1576 63.7601 76.1654 63.8929 76.1534C64.0237 76.1416 64.1543 76.1106 64.2665 76.0808C64.2763 76.0782 64.286 76.0756 64.2955 76.0731C64.3172 76.0673 64.3382 76.0617 64.3587 76.0566C64.4384 76.0346 64.5088 76.016 64.5786 76.0016C64.8647 75.9431 65.0534 75.7612 65.1458 75.5759C65.2355 75.3933 65.2511 75.17 65.1378 74.993L65.1376 74.9914C64.9627 74.7201 64.7037 74.6032 64.4591 74.4927ZM64.2536 74.8655C63.9733 74.9234 63.7523 75.0026 63.6282 75.1078C63.5666 75.16 63.5292 75.2182 63.5178 75.2896C63.5058 75.3642 63.5199 75.4697 63.5953 75.6157C63.637 75.6971 63.6805 75.7267 63.7103 75.7394C63.7423 75.7535 63.7882 75.7611 63.8628 75.7542C63.9404 75.7477 64.0291 75.7271 64.1385 75.6985C64.1549 75.6944 64.1718 75.6898 64.1894 75.6851L64.2136 75.6786L64.2144 75.6784C64.2988 75.6559 64.3934 75.6306 64.4821 75.6124L64.483 75.6115C64.5701 75.5943 64.6503 75.5336 64.6973 75.4388C64.7457 75.3398 64.7396 75.2439 64.7061 75.1914C64.6073 75.0376 64.4758 74.9673 64.2536 74.8655Z" fill="#38394F" fill-opacity="0.2"/>
<path fill-rule="evenodd" clip-rule="evenodd" d="M59.841 71.6896C59.7459 71.2718 59.5263 71.0306 59.3181 70.8026L59.2877 70.7696C59.246 70.7235 59.1905 70.6945 59.1318 70.6891C58.7877 70.6589 58.3863 70.6695 58.0849 70.8664C57.9264 70.9696 57.7974 71.1236 57.7245 71.3386C57.6531 71.549 57.6422 71.7977 57.6855 72.0812C57.7176 72.293 57.7908 72.468 57.913 72.5977C58.0329 72.7254 58.1766 72.7852 58.3098 72.813C58.44 72.8412 58.5751 72.8434 58.693 72.841C58.7264 72.8404 58.7588 72.84 58.7893 72.8399L58.7976 72.8397C58.8777 72.8379 58.9488 72.8364 59.0188 72.8401C59.3132 72.8583 59.5468 72.6802 59.6876 72.4652C59.8249 72.2539 59.9019 71.9633 59.8411 71.6907L59.841 71.6896ZM59.0155 71.2295C58.727 71.2117 58.4904 71.2432 58.3401 71.341C58.266 71.3904 58.2134 71.455 58.1824 71.5458C58.1509 71.6401 58.1349 71.7844 58.1678 72.0028C58.1866 72.1244 58.2203 72.178 58.246 72.2048C58.273 72.2338 58.3152 72.2588 58.39 72.2757C58.4667 72.2923 58.5596 72.2949 58.6736 72.2929C58.6982 72.2934 58.7247 72.2926 58.7522 72.2916C58.8405 72.2893 58.9398 72.2878 59.0319 72.2928L59.0329 72.2927C59.123 72.2978 59.2164 72.2451 59.2894 72.134C59.364 72.0205 59.3837 71.8912 59.3665 71.8103C59.312 71.5745 59.2037 71.4377 59.0155 71.2295Z" fill="#38394F" fill-opacity="0.2"/>
<path fill-rule="evenodd" clip-rule="evenodd" d="M66.6313 67.2075L66.6302 67.2063L66.6302 67.2063C66.6201 67.1953 66.61 67.1843 66.6008 67.1732C66.5582 67.1273 66.5028 67.0994 66.4451 67.0938C66.1008 67.0625 65.6984 67.0732 65.3981 67.27C65.2396 67.3733 65.1106 67.5284 65.0368 67.7435C64.9654 67.9539 64.9545 68.2027 64.9977 68.485C65.0298 68.6968 65.104 68.8718 65.2261 69.0014C65.3461 69.1291 65.4898 69.1889 65.6221 69.218C65.7523 69.2462 65.8883 69.2472 66.0053 69.2459C66.0202 69.2457 66.0348 69.2453 66.0492 69.2449C66.0671 69.2444 66.0846 69.2439 66.1015 69.2438L66.1098 69.2436C66.1899 69.2418 66.261 69.2403 66.3309 69.244C66.6254 69.2622 66.86 69.084 66.9998 68.8691C67.138 68.6577 67.2142 68.3683 67.1533 68.0946L67.1532 68.0935C67.0592 67.6762 66.8392 67.4352 66.6313 67.2075ZM65.6534 67.7458C65.8026 67.6481 66.0391 67.6155 66.3286 67.6331C66.5169 67.8414 66.6251 67.9782 66.6787 68.2141C66.6968 68.2949 66.6762 68.4243 66.6017 68.5389C66.5296 68.6489 66.4353 68.7028 66.345 68.6965L66.3441 68.6966C66.265 68.6923 66.1791 68.6937 66.1 68.6949C66.088 68.6951 66.0761 68.6953 66.0643 68.6955C66.0369 68.6964 66.0114 68.6971 65.9859 68.6979L65.9859 68.6979C65.8718 68.6988 65.7799 68.696 65.7032 68.6794C65.6285 68.6636 65.5852 68.6377 65.5584 68.6098C65.5336 68.5828 65.4988 68.5282 65.4809 68.4065C65.4472 68.1893 65.4632 68.045 65.4956 67.9495C65.5265 67.8587 65.5782 67.7942 65.6534 67.7458Z" fill="#38394F" fill-opacity="0.2"/>
<path fill-rule="evenodd" clip-rule="evenodd" d="M54.3456 62.2444L54.3455 62.2411C54.345 62.2273 54.3444 62.2134 54.3448 62.1995C54.344 62.1409 54.3225 62.0838 54.2835 62.0396C54.055 61.7786 53.7569 61.5028 53.4114 61.4142C53.2294 61.3675 53.0355 61.3738 52.8434 61.4574C52.6542 61.5396 52.4855 61.6881 52.3327 61.8963C52.2188 62.0524 52.1595 62.2142 52.1626 62.3808C52.1666 62.5462 52.2323 62.6847 52.31 62.796C52.3863 62.9045 52.4832 63.0017 52.5694 63.0833C52.594 63.1063 52.6175 63.1284 52.6399 63.1497C52.7024 63.2071 52.7571 63.2575 52.8062 63.3115C53.0078 63.5298 53.2924 63.5826 53.5337 63.5461C53.7702 63.5101 54.015 63.3817 54.1482 63.1677L54.1481 63.1668C54.3502 62.8388 54.3478 62.5333 54.3456 62.2444ZM53.8499 62.2969C53.6517 62.0831 53.4592 61.9363 53.2875 61.8923C53.2021 61.8703 53.1227 61.8744 53.0409 61.9096C52.9554 61.9472 52.8507 62.0268 52.7332 62.1863C52.6677 62.2762 52.6583 62.3339 52.6583 62.3687C52.6596 62.4063 52.6738 62.4514 52.7178 62.5139C52.7623 62.5793 52.8278 62.6463 52.9107 62.7253C52.9226 62.7357 52.9345 62.747 52.9467 62.7585L52.9467 62.7585C52.954 62.7654 52.9613 62.7723 52.9688 62.7792C53.0347 62.8402 53.1074 62.9084 53.1711 62.9766L53.1712 62.9776C53.2337 63.044 53.3363 63.0769 53.4599 63.0578C53.5885 63.0391 53.6866 62.9722 53.7263 62.9091C53.8408 62.7231 53.85 62.5601 53.8499 62.2969Z" fill="#38394F" fill-opacity="0.2"/>
<path fill-rule="evenodd" clip-rule="evenodd" d="M62.3377 50.3959C62.7544 50.3009 62.9965 50.0803 63.2236 49.8733L63.2566 49.8429C63.3036 49.8001 63.3317 49.7458 63.3371 49.6871C63.3684 49.343 63.3567 48.9419 63.1609 48.6405C63.0566 48.4822 62.9026 48.3532 62.6877 48.2804C62.4772 48.2081 62.2285 48.1972 61.9451 48.2405C61.7345 48.2734 61.5595 48.3466 61.4298 48.4687C61.3011 48.5888 61.2424 48.7323 61.2134 48.8655C61.1852 48.9957 61.1841 49.1306 61.1853 49.2476C61.1855 49.2547 61.1856 49.2617 61.1857 49.2686C61.1861 49.295 61.1865 49.3199 61.1876 49.3447L61.1878 49.3517C61.1895 49.4323 61.1911 49.5038 61.1863 49.5742C61.1691 49.8684 61.3462 50.102 61.561 50.2417C61.7724 50.3799 62.063 50.4569 62.3355 50.3961L62.3377 50.3959ZM62.7979 49.5707C62.8146 49.2824 62.7831 49.0459 62.6852 48.8957C62.637 48.8216 62.5724 48.7689 62.4816 48.738C62.3861 48.7056 62.2419 48.6906 62.0236 48.7235C61.902 48.7424 61.8484 48.776 61.8215 48.8018C61.7926 48.8287 61.7676 48.8709 61.7518 48.9455C61.7352 49.0222 61.7315 49.1152 61.7334 49.2291L61.7337 49.2392C61.7343 49.2609 61.7348 49.2837 61.7346 49.3067C61.7371 49.396 61.7396 49.4951 61.7336 49.5873L61.7337 49.5882C61.7285 49.6784 61.7812 49.7717 61.8922 49.8437C62.0068 49.9181 62.1351 49.9388 62.2159 49.9207C62.4517 49.8672 62.5885 49.759 62.7979 49.5707Z" fill="#38394F" fill-opacity="0.2"/>
<path fill-rule="evenodd" clip-rule="evenodd" d="M69.2245 44.8905C69.5537 45.0924 69.8604 45.0902 70.1492 45.0871C70.1623 45.0875 70.1761 45.0869 70.1892 45.0864L70.1918 45.0862C70.2505 45.0865 70.3067 45.0651 70.3519 45.026C70.6127 44.7964 70.8886 44.4983 70.9772 44.1527C71.0229 43.9707 71.0176 43.7766 70.934 43.5845C70.8518 43.3962 70.7032 43.2265 70.4951 43.0746L70.495 43.0737C70.3389 42.9607 70.177 42.9004 70.0096 42.9046C69.8451 42.9084 69.7066 42.9742 69.5952 43.0519C69.4856 43.1273 69.3895 43.2252 69.3079 43.3104C69.285 43.336 69.2628 43.3595 69.2415 43.3819C69.184 43.4434 69.1327 43.4982 69.0798 43.5482C68.8613 43.7489 68.8085 44.0345 68.8451 44.276C68.8802 44.5126 69.0094 44.7564 69.2234 44.8896L69.2245 44.8905ZM70.0944 44.5912C69.8303 44.5925 69.6681 44.5821 69.4821 44.4676C69.4189 44.4279 69.3521 44.3297 69.3325 44.2022C69.3142 44.0775 69.3472 43.9749 69.4137 43.9133L69.4145 43.9122C69.4753 43.8564 69.5359 43.7919 69.5916 43.7327L69.6121 43.7109C69.6259 43.6951 69.6399 43.6804 69.6531 43.6665L69.666 43.6528C69.7449 43.5689 69.812 43.5043 69.8763 43.459C69.9399 43.4158 69.9849 43.4006 70.0226 43.4003C70.0573 43.3993 70.1151 43.4097 70.2041 43.4754C70.3645 43.5918 70.4442 43.6975 70.4818 43.783C70.5169 43.8639 70.521 43.9433 70.499 44.0287C70.4552 44.2014 70.3082 44.393 70.0944 44.5912Z" fill="#38394F" fill-opacity="0.2"/>
<path fill-rule="evenodd" clip-rule="evenodd" d="M70.1018 75.4492L70.0985 75.4492C70.0916 75.4495 70.0846 75.4495 70.0777 75.4496C70.0707 75.4496 70.0638 75.4497 70.0568 75.45C69.9983 75.4507 69.9412 75.4722 69.897 75.5112C69.635 75.7398 69.3592 76.0379 69.2716 76.3833C69.2249 76.5653 69.2312 76.7592 69.3148 76.9513C69.397 77.1405 69.5455 77.3092 69.7537 77.462C69.9089 77.576 70.0706 77.6353 70.2382 77.6321C70.4036 77.6281 70.5411 77.5625 70.6525 77.4849C70.7619 77.4085 70.8581 77.3116 70.9397 77.2254C70.9637 77.2007 70.9858 77.1772 71.006 77.1539C71.0149 77.1445 71.0236 77.1353 71.0322 77.1262C71.0799 77.0758 71.1231 77.0302 71.1689 76.9886C71.3872 76.7869 71.44 76.5023 71.4035 76.261C71.3674 76.0246 71.2391 75.7797 71.0251 75.6465L71.0241 75.6466C70.6962 75.4446 70.3907 75.4469 70.1018 75.4492ZM69.7497 76.5072C69.7936 76.3355 69.9395 76.1431 70.1542 75.9449C70.4174 75.9437 70.5795 75.9541 70.7655 76.0685C70.8286 76.1082 70.8955 76.2064 70.9152 76.3349C70.9343 76.4584 70.9013 76.561 70.834 76.6236C70.7723 76.6803 70.7108 76.7459 70.6538 76.8066C70.6477 76.8132 70.6416 76.8196 70.6356 76.826C70.6171 76.8461 70.5994 76.8651 70.5816 76.8831C70.5028 76.967 70.4358 77.0326 70.3713 77.0769C70.3088 77.121 70.2627 77.1352 70.2261 77.1364C70.1913 77.1364 70.1336 77.127 70.0437 77.0615C69.8832 76.9441 69.8037 76.8394 69.767 76.7538C69.7318 76.672 69.7277 76.5926 69.7497 76.5072Z" fill="#38394F" fill-opacity="0.2"/>
<path fill-rule="evenodd" clip-rule="evenodd" d="M63.1874 62.4481L63.1876 62.4456C63.189 62.4316 63.1904 62.4177 63.1919 62.4047C63.1972 62.3458 63.1815 62.2874 63.148 62.2399C62.9476 61.9578 62.6788 61.6549 62.3446 61.5323C62.1681 61.4676 61.9745 61.4543 61.7735 61.5168C61.5765 61.5788 61.3922 61.7085 61.2188 61.8981L61.2178 61.8982C61.089 62.0403 61.0116 62.1943 60.9975 62.3598C60.9842 62.5232 61.0348 62.6674 61.1003 62.7853C61.1645 62.9004 61.2506 63.006 61.3279 63.0958C61.3432 63.1133 61.3584 63.1304 61.3731 63.1469C61.3796 63.1542 61.386 63.1614 61.3923 63.1684L61.3945 63.1709C61.4489 63.2337 61.4966 63.2886 61.5397 63.346C61.7178 63.5823 61.9962 63.6629 62.2401 63.6518C62.48 63.6411 62.7364 63.5387 62.8919 63.3412L62.8928 63.3401C63.1294 63.0365 63.1592 62.7339 63.1874 62.4481ZM62.6878 62.4495C62.5131 62.2178 62.3372 62.0534 62.1702 61.9925C62.0876 61.9615 62.0081 61.9578 61.9231 61.9843C61.8342 62.0123 61.721 62.0805 61.5866 62.2262C61.5119 62.3078 61.4964 62.3648 61.4933 62.3988C61.4905 62.4356 61.4998 62.4819 61.5365 62.5488C61.5743 62.6175 61.6317 62.6899 61.7067 62.7771C61.7229 62.796 61.7401 62.8157 61.7585 62.8363L61.7831 62.8645C61.8353 62.924 61.8914 62.988 61.9392 63.0515L61.9393 63.0525C61.9937 63.1252 62.0927 63.1682 62.2181 63.1627C62.3484 63.1557 62.4531 63.1003 62.4994 63.0417C62.6328 62.8694 62.6606 62.7103 62.6878 62.4495Z" fill="#38394F" fill-opacity="0.2"/>
<path fill-rule="evenodd" clip-rule="evenodd" d="M61.0047 56.3965L61.0088 56.3941C61.0217 56.3857 61.0347 56.3783 61.0477 56.3708C61.1006 56.3391 61.1408 56.29 61.1589 56.2346C61.2701 55.9026 61.3557 55.5054 61.2437 55.1694C61.1851 54.9923 61.071 54.8334 60.8883 54.7179C60.7079 54.6042 60.478 54.5416 60.2023 54.5257C59.9975 54.5145 59.8162 54.5511 59.6659 54.6434C59.5176 54.7355 59.4269 54.8645 59.3686 54.9888C59.3112 55.111 59.2774 55.2433 59.2512 55.359C59.2433 55.3925 59.2362 55.424 59.2301 55.4543C59.2119 55.5374 59.1957 55.6095 59.175 55.68C59.0871 55.9648 59.1976 56.2318 59.3656 56.4142C59.5299 56.5931 59.7841 56.728 60.0534 56.7248L60.0545 56.7247C60.4661 56.7179 60.7435 56.5524 61.0047 56.3965ZM60.6823 56.0095C60.4427 56.1506 60.2887 56.2295 60.0547 56.2335C59.9748 56.2338 59.8587 56.1878 59.7698 56.0912C59.6834 55.9973 59.6566 55.8937 59.6829 55.8067L59.6838 55.8056C59.7066 55.7306 59.7249 55.6492 59.742 55.5732L59.7515 55.531C59.7569 55.5037 59.7625 55.4783 59.7683 55.454C59.7937 55.3413 59.8185 55.2506 59.8529 55.1784C59.8854 55.1085 59.9196 55.072 59.9534 55.0513C59.9843 55.0319 60.0424 55.0095 60.1615 55.0166C60.3729 55.0289 60.5039 55.0742 60.5854 55.1252C60.6624 55.1747 60.7103 55.2394 60.739 55.3221C60.7944 55.4896 60.7675 55.7289 60.6823 56.0095Z" fill="#38394F" fill-opacity="0.2"/>
<path fill-rule="evenodd" clip-rule="evenodd" d="M69.4835 53.3562C69.7788 53.6585 70.1335 53.7525 70.4693 53.8415L70.5185 53.8544C70.5866 53.8723 70.6609 53.8689 70.7279 53.8448C71.1266 53.7026 71.5705 53.4965 71.8176 53.1845C71.9481 53.0205 72.0216 52.8281 72.0066 52.6119C71.991 52.4009 71.8908 52.1883 71.713 51.9722C71.582 51.8115 71.42 51.7005 71.2247 51.6519C71.0332 51.604 70.8446 51.6245 70.684 51.6655C70.5259 51.7063 70.373 51.7711 70.2439 51.83C70.2187 51.841 70.1951 51.8518 70.1723 51.8621C70.1603 51.8676 70.1484 51.873 70.1368 51.8783C70.1254 51.8835 70.1142 51.8886 70.1032 51.8936C70.0238 51.93 69.9522 51.9628 69.8792 51.991C69.5427 52.12 69.3623 52.3833 69.3026 52.6317C69.2448 52.8757 69.2904 53.1562 69.4821 53.3553L69.4835 53.3562ZM70.6134 53.3368C70.309 53.2545 70.1258 53.1932 69.9593 53.0221C69.9023 52.9628 69.8669 52.8456 69.8982 52.7135C69.9277 52.5858 70.0091 52.4952 70.1123 52.4557L70.1134 52.4545C70.2131 52.4169 70.316 52.3698 70.4104 52.3266L70.4271 52.3189C70.4515 52.3066 70.4761 52.2957 70.4999 52.2851L70.5132 52.2792C70.64 52.2215 70.744 52.1788 70.838 52.1547C70.9284 52.132 70.9872 52.1324 71.0312 52.1428C71.0716 52.1536 71.1336 52.1815 71.2103 52.2745C71.3455 52.4399 71.3934 52.5691 71.4005 52.6638C71.4074 52.7556 71.3785 52.8349 71.3175 52.9118C71.1946 53.0677 70.944 53.2095 70.6134 53.3368Z" fill="#38394F" fill-opacity="0.2"/>
<path fill-rule="evenodd" clip-rule="evenodd" d="M68.7263 59.6008L68.7222 59.6012L68.6796 59.6061C68.6212 59.6128 68.5662 59.6401 68.5261 59.6838C68.2868 59.9407 68.0415 60.2675 67.9899 60.6221C67.9621 60.8087 67.9882 61.0012 68.0924 61.1847C68.1942 61.3644 68.3611 61.5177 68.5855 61.6473C68.754 61.7443 68.9223 61.7872 69.0903 61.7659C69.2552 61.744 69.3874 61.6638 69.4905 61.5748C69.5928 61.4879 69.6787 61.3799 69.7521 61.2853C69.773 61.2579 69.7921 61.2326 69.8113 61.2074L69.8114 61.2073C69.8627 61.1393 69.9081 61.08 69.9558 61.0244C70.1537 60.8003 70.1776 60.5099 70.1155 60.2735C70.0548 60.041 69.901 59.81 69.6718 59.7L69.6709 59.7001C69.3214 59.5326 69.015 59.5677 68.7263 59.6008ZM68.4825 60.695C68.5083 60.5177 68.635 60.3108 68.8293 60.0901C69.0937 60.0618 69.2572 60.0541 69.4555 60.1487C69.5235 60.182 69.6011 60.2733 69.6336 60.3989C69.6655 60.5205 69.6436 60.6262 69.5823 60.6954L69.5824 60.6964C69.5203 60.7666 69.4593 60.8468 69.4054 60.9191C69.3964 60.9304 69.3879 60.9414 69.3796 60.9521C69.3718 60.9622 69.3641 60.9721 69.3564 60.9818C69.2858 61.0741 69.2259 61.1461 69.1657 61.1981C69.1072 61.2479 69.0633 61.2669 69.0258 61.2722C68.9911 61.2762 68.9316 61.273 68.835 61.2169C68.6621 61.1164 68.5718 61.0195 68.5254 60.9386C68.4815 60.8615 68.4695 60.7827 68.4825 60.695Z" fill="#38394F" fill-opacity="0.2"/>
<path fill-rule="evenodd" clip-rule="evenodd" d="M51.1928 69.8208L51.1912 69.8176L51.1719 69.7789C51.1438 69.7233 51.0992 69.6801 51.0441 69.657C50.7221 69.5174 50.3321 69.3972 49.9876 69.4765C49.8052 69.5184 49.6371 69.6154 49.5061 69.7858C49.3776 69.9518 49.2967 70.1711 49.2582 70.4402C49.2286 70.64 49.2503 70.8213 49.3306 70.977C49.4096 71.1307 49.532 71.2312 49.6507 71.2995C49.7683 71.3669 49.8983 71.4119 50.0114 71.4483C50.0358 71.4564 50.059 71.4635 50.0816 71.4704C50.0894 71.4728 50.0971 71.4752 50.1048 71.4775C50.186 71.5029 50.2568 71.5252 50.3254 71.5531C50.6035 71.6641 50.8791 71.58 51.075 71.4316C51.2673 71.2867 51.4235 71.0503 51.4427 70.7856L51.4426 70.7845C51.4702 70.3796 51.3275 70.0922 51.1928 69.8208ZM50.7794 70.1043C50.5064 69.9948 50.2703 69.9473 50.0976 69.987C50.0126 70.0062 49.9441 70.0476 49.8889 70.1191C49.8301 70.194 49.7741 70.3191 49.7443 70.5253C49.7278 70.6406 49.7455 70.7005 49.762 70.7322C49.7799 70.7669 49.8137 70.803 49.8805 70.8415C49.9505 70.8818 50.0384 70.9148 50.1483 70.9495C50.1622 70.9541 50.1767 70.9586 50.1917 70.9632C50.2024 70.9665 50.2133 70.9698 50.2244 70.9734C50.3106 71.0003 50.4062 71.0303 50.4932 71.0644L50.4943 71.0653C50.5795 71.0997 50.6845 71.0824 50.7856 71.0057C50.8895 70.9277 50.9452 70.8173 50.9511 70.7389C50.9665 70.5103 50.9018 70.3518 50.7794 70.1043Z" fill="#38394F" fill-opacity="0.2"/>
<path fill-rule="evenodd" clip-rule="evenodd" d="M49.7887 56.2379L49.7888 56.2366C49.7895 56.2296 49.79 56.2227 49.7905 56.2157C49.7909 56.2087 49.7914 56.2017 49.7921 56.1948C49.7964 56.1369 49.7807 56.0785 49.7453 56.0312C49.5404 55.7523 49.2673 55.4536 48.93 55.3371C48.7529 55.2754 48.5588 55.265 48.3594 55.3313C48.1639 55.3962 47.9822 55.5296 47.8123 55.7229L47.8114 55.723C47.6849 55.8669 47.6107 56.0226 47.5996 56.1879C47.5884 56.3522 47.6418 56.4953 47.7092 56.6121C47.7753 56.727 47.8642 56.8304 47.9432 56.9182C47.9581 56.936 47.9729 56.9524 47.9873 56.9683C47.9941 56.9759 48.0009 56.9834 48.0075 56.9909C48.0646 57.0525 48.1139 57.1081 48.1594 57.1652C48.3401 57.3984 48.6199 57.475 48.8641 57.4599C49.1033 57.4444 49.3581 57.3381 49.5101 57.138L49.511 57.1369C49.7412 56.8283 49.7657 56.5247 49.7887 56.2379ZM49.2894 56.2493C49.1111 56.0198 48.9327 55.8584 48.7651 55.8006C48.6808 55.7717 48.6014 55.7679 48.5176 55.7963C48.4291 55.8262 48.317 55.8953 48.1861 56.0447C48.1126 56.1272 48.0971 56.1843 48.095 56.2181C48.0922 56.255 48.1026 56.3022 48.1412 56.368C48.1799 56.4357 48.2392 56.5079 48.3159 56.593C48.3321 56.6119 48.3503 56.6315 48.3685 56.6512L48.3812 56.6652L48.3812 56.6652C48.4375 56.7279 48.4996 56.7968 48.5519 56.8643L48.553 56.8652C48.6082 56.9369 48.7079 56.9779 48.833 56.9705C48.963 56.9615 49.0674 56.9041 49.1126 56.8446C49.2426 56.6706 49.2673 56.5107 49.2894 56.2493Z" fill="#38394F" fill-opacity="0.2"/>
<path fill-rule="evenodd" clip-rule="evenodd" d="M52.4138 47.1036C52.7157 46.9758 52.869 46.7392 53.0129 46.5156C53.0199 46.504 53.027 46.4934 53.0342 46.4827C53.0632 46.4372 53.0776 46.3806 53.0742 46.322C53.0526 45.9799 52.9914 45.5843 52.8039 45.3034C52.706 45.1556 52.5725 45.0403 52.4017 44.9852C52.2336 44.9318 52.0452 44.9416 51.8372 45.0066C51.6825 45.0558 51.5605 45.1434 51.4786 45.2735C51.3981 45.4025 51.3724 45.5498 51.3676 45.6829C51.3642 45.8139 51.3804 45.9475 51.397 46.0634C51.4016 46.0963 51.4061 46.1282 51.4112 46.158C51.412 46.164 51.4129 46.17 51.4137 46.1759C51.4247 46.2515 51.4344 46.3187 51.4405 46.3854C51.4656 46.6771 51.6299 46.8939 51.8099 47.0147C51.9872 47.1338 52.2153 47.1862 52.413 47.1037L52.4138 47.1036ZM52.6528 46.2515C52.6283 45.9647 52.5734 45.7333 52.4798 45.5938C52.4334 45.5245 52.378 45.4778 52.306 45.4547C52.2298 45.431 52.1191 45.427 51.9595 45.4767C51.8709 45.5055 51.8344 45.544 51.8174 45.5705C51.7991 45.6001 51.7857 45.6438 51.7834 45.7187C51.7814 45.7955 51.7911 45.8877 51.8072 45.9997C51.809 46.0154 51.8116 46.0317 51.8142 46.0486L51.8142 46.0486C51.8157 46.0579 51.8172 46.0674 51.8186 46.077C51.8208 46.0923 51.8231 46.108 51.8254 46.1238C51.8363 46.1987 51.8479 46.2783 51.8544 46.3537L51.8546 46.3547C51.8615 46.4442 51.9142 46.5324 52.0064 46.5945C52.1024 46.6591 52.202 46.6683 52.2611 46.6449C52.4315 46.5724 52.5198 46.4542 52.6528 46.2515Z" fill="#38394F" fill-opacity="0.2"/>
<path fill-rule="evenodd" clip-rule="evenodd" d="M63.2765 39.7317L63.2777 39.7313C63.2847 39.729 63.2913 39.7265 63.298 39.724C63.3047 39.7215 63.3113 39.7189 63.3183 39.7167C63.3757 39.6971 63.4247 39.6577 63.4549 39.6065C63.6353 39.3042 63.8068 38.9322 63.7786 38.5782C63.7643 38.3907 63.6943 38.2106 63.5481 38.0572C63.4053 37.9064 63.2033 37.7961 62.9488 37.7208C62.7593 37.6658 62.5809 37.6624 62.4179 37.7219C62.2578 37.78 62.1435 37.8866 62.0604 37.9967C61.9781 38.1046 61.9161 38.2282 61.8647 38.3365C61.854 38.3582 61.8444 38.3792 61.835 38.3997C61.8311 38.4082 61.8272 38.4166 61.8233 38.4249L61.8223 38.427C61.7864 38.5039 61.7552 38.5706 61.7198 38.6348C61.5717 38.8966 61.6148 39.1832 61.73 39.3979C61.8436 39.6088 62.0503 39.7962 62.3047 39.8516L62.3057 39.8515C62.6952 39.9331 62.9938 39.8296 63.2765 39.7317ZM63.2698 38.6195C63.2839 38.7961 63.2031 39.0252 63.0586 39.2826C62.8012 39.3708 62.6384 39.4143 62.4191 39.3678C62.3441 39.3515 62.2455 39.2812 62.1841 39.1668C62.1251 39.0561 62.1231 38.9489 62.1674 38.8682L62.1684 38.868C62.2135 38.7862 62.2565 38.6937 62.2944 38.6118C62.3012 38.598 62.3075 38.5847 62.3135 38.5718C62.3185 38.5609 62.3235 38.5503 62.3284 38.5402C62.3781 38.435 62.4231 38.3512 62.4714 38.288C62.5178 38.2259 62.5578 38.1975 62.5943 38.1843C62.628 38.1725 62.6876 38.1627 62.7972 38.1949C62.9931 38.2521 63.1064 38.3247 63.1708 38.393C63.2317 38.4577 63.2629 38.5317 63.2698 38.6195Z" fill="#38394F" fill-opacity="0.2"/>
<path fill-rule="evenodd" clip-rule="evenodd" d="M57.7019 39.2676L57.707 39.2658C57.714 39.2635 57.7207 39.2612 57.7274 39.259C57.734 39.2567 57.7407 39.2545 57.7477 39.2522C57.805 39.2317 57.8541 39.1932 57.8843 39.142C58.0647 38.8397 58.2361 38.4669 58.2079 38.1129C58.1928 37.9266 58.1226 37.7455 57.9775 37.592C57.8346 37.4412 57.6327 37.331 57.3782 37.2566C57.1886 37.2007 57.0092 37.1974 56.8472 37.2567C56.6861 37.315 56.5729 37.4225 56.4898 37.5325C56.4073 37.6394 56.3453 37.763 56.2939 37.8713C56.2856 37.8883 56.2776 37.9052 56.2698 37.9216C56.2636 37.9347 56.2575 37.9476 56.2516 37.9598C56.2162 38.0375 56.1849 38.1057 56.148 38.1696C56.0011 38.4322 56.0441 38.7179 56.1592 38.9325C56.273 39.1444 56.4797 39.3317 56.7339 39.3861L56.7349 39.386C57.1228 39.4682 57.4203 39.3651 57.7019 39.2676ZM57.4879 38.8172C57.2305 38.9054 57.0678 38.9499 56.8484 38.9034C56.7725 38.8872 56.6748 38.8158 56.6134 38.7024C56.5533 38.5909 56.5513 38.4837 56.5967 38.4038L56.5977 38.4027C56.6428 38.3209 56.6859 38.2295 56.7238 38.1475C56.7307 38.1324 56.7376 38.1177 56.7444 38.1033C56.7489 38.0937 56.7534 38.0842 56.7577 38.075C56.8074 37.9698 56.8515 37.8871 56.9007 37.8228C56.9471 37.7607 56.9871 37.7323 57.0236 37.7191C57.0573 37.7073 57.1169 37.6975 57.2266 37.7297C57.4225 37.7869 57.5347 37.8596 57.6001 37.9278C57.6612 37.9934 57.6912 38.0666 57.6981 38.1543C57.7122 38.3309 57.6324 38.5599 57.4879 38.8172Z" fill="#38394F" fill-opacity="0.2"/>
<path fill-rule="evenodd" clip-rule="evenodd" d="M38.2216 80.3871C38.1806 79.9691 37.9923 79.703 37.8146 79.452C37.8054 79.4401 37.7971 79.4281 37.7888 79.4161C37.7523 79.364 37.7009 79.3288 37.644 79.3148C37.3053 79.2336 36.9039 79.1833 36.5792 79.3286C36.4084 79.4044 36.2605 79.5348 36.1597 79.7313C36.0624 79.924 36.0197 80.1624 36.0261 80.4428C36.0323 80.6518 36.0835 80.8319 36.1878 80.9756C36.2907 81.1163 36.4261 81.1959 36.5547 81.2428C36.6805 81.29 36.8151 81.3114 36.9325 81.3282C36.9489 81.33 36.965 81.3321 36.9805 81.3341C36.9971 81.3362 37.0131 81.3383 37.0285 81.3399C37.1126 81.3508 37.1858 81.3608 37.2575 81.3753C37.5477 81.4372 37.8033 81.2998 37.9703 81.1131C38.1338 80.9301 38.247 80.6609 38.2217 80.3881L38.2216 80.3871ZM37.4591 79.8192C37.174 79.7589 36.9347 79.7539 36.7723 79.8254C36.6925 79.8616 36.6327 79.916 36.59 79.9998C36.5456 80.086 36.5121 80.2239 36.5169 80.4385C36.5199 80.5592 36.5472 80.6166 36.5693 80.6465C36.5927 80.6784 36.6317 80.7086 36.7038 80.7349C36.778 80.7632 36.8697 80.7797 36.983 80.7959C37.0024 80.7979 37.0224 80.8004 37.043 80.8031L37.061 80.8054L37.0701 80.8065L37.0701 80.8065C37.1568 80.8176 37.2523 80.8299 37.3402 80.848L37.3403 80.8491C37.4302 80.868 37.5305 80.8305 37.6162 80.7342C37.7045 80.6355 37.7408 80.5135 37.7335 80.4321C37.7105 80.1969 37.6205 80.0483 37.4591 79.8192Z" fill="#38394F" fill-opacity="0.2"/>
<path fill-rule="evenodd" clip-rule="evenodd" d="M31.1678 67.3715L31.1673 67.3696L31.1565 67.328C31.1399 67.2698 31.1042 67.2198 31.0554 67.1856C30.7652 66.9864 30.4044 66.7901 30.0485 66.7931C29.8602 66.7953 29.675 66.8512 29.5107 66.9852C29.351 67.1157 29.2263 67.3074 29.1338 67.5535C29.065 67.7378 29.0493 67.9139 29.0971 68.0788C29.1446 68.2405 29.2441 68.3607 29.3482 68.4507C29.4503 68.54 29.57 68.6099 29.6745 68.6683C29.6942 68.6795 29.7133 68.6898 29.732 68.6999C29.7417 68.7051 29.7513 68.7103 29.7607 68.7155C29.7723 68.7219 29.7836 68.7282 29.7948 68.7343C29.8556 68.768 29.9109 68.7985 29.9638 68.833C30.2151 68.9969 30.5038 68.9741 30.727 68.8751C30.9463 68.7776 31.1479 68.5862 31.2205 68.3393L31.2213 68.3382C31.3293 67.9596 31.2464 67.6576 31.1678 67.3715ZM30.7035 67.5543C30.4566 67.3939 30.2321 67.2982 30.0547 67.3002C29.9659 67.3002 29.8909 67.3251 29.8216 67.382C29.7484 67.4403 29.6679 67.5474 29.5968 67.737C29.557 67.8426 29.5628 67.902 29.5728 67.9366C29.5829 67.9732 29.6097 68.015 29.6683 68.0653C29.7282 68.1176 29.8088 68.1675 29.9101 68.2243C29.9324 68.236 29.9557 68.2486 29.9802 68.2621C29.9936 68.2696 30.0073 68.2772 30.0212 68.2848L30.0213 68.2849L30.0213 68.2849C30.0892 68.3225 30.1618 68.3627 30.2271 68.4052L30.2282 68.406C30.3048 68.4564 30.4132 68.4613 30.5281 68.4105C30.6459 68.3582 30.7241 68.2657 30.7457 68.1928C30.807 67.9788 30.7743 67.8153 30.7035 67.5543Z" fill="#38394F" fill-opacity="0.2"/>
<path fill-rule="evenodd" clip-rule="evenodd" d="M27.8806 57.7032L27.8814 57.6973C27.8838 57.6832 27.8852 57.6693 27.8866 57.6553C27.8951 57.5982 27.8813 57.5387 27.8497 57.4901C27.6582 57.2016 27.4008 56.8901 27.0696 56.7566C26.8951 56.6869 26.7021 56.6656 26.499 56.7224C26.2996 56.7768 26.1101 56.9 25.9296 57.0842L25.9286 57.0843C25.7938 57.2209 25.7108 57.3723 25.6916 57.5371C25.6721 57.7 25.7178 57.8445 25.7787 57.9647C25.8393 58.0828 25.9219 58.1907 25.9955 58.2817C26.0177 58.3088 26.0375 58.3331 26.0573 58.3574L26.0573 58.3574C26.1109 58.4223 26.1576 58.48 26.1995 58.5392C26.3686 58.781 26.6448 58.8715 26.8891 58.8682C27.1305 58.8652 27.3907 58.7723 27.5542 58.5802L27.5541 58.5792C27.8014 58.2857 27.8422 57.9857 27.8806 57.7032ZM26.8788 57.21C27.0439 57.2768 27.2138 57.4466 27.3804 57.6837C27.3439 57.9431 27.3108 58.1006 27.1715 58.2683C27.1228 58.3251 27.0155 58.3778 26.8853 58.3789C26.7591 58.3806 26.6615 58.3346 26.6098 58.2597C26.556 58.1841 26.493 58.1065 26.436 58.0382C26.4272 58.0266 26.4182 58.0156 26.4094 58.0049C26.4017 57.9954 26.3941 57.9861 26.3869 57.9768C26.3145 57.8875 26.2598 57.813 26.2237 57.7432C26.19 57.6761 26.1815 57.6288 26.1864 57.5928C26.1906 57.5588 26.2082 57.5026 26.2864 57.4237C26.4257 57.2826 26.5417 57.2181 26.6312 57.194C26.7177 57.1694 26.7968 57.177 26.8788 57.21Z" fill="#38394F" fill-opacity="0.2"/>
<path fill-rule="evenodd" clip-rule="evenodd" d="M33.0712 40.9457L33.0747 40.9401C33.0769 40.9367 33.079 40.9332 33.0811 40.9296C33.0863 40.9212 33.0916 40.9124 33.0975 40.9042C33.1291 40.8525 33.1395 40.7936 33.1288 40.737C33.0603 40.4011 32.935 40.0198 32.6637 39.7777C32.5213 39.65 32.3395 39.5621 32.1149 39.5408C31.8958 39.5209 31.6585 39.5667 31.4033 39.6723L31.4022 39.6724C31.2127 39.7509 31.0686 39.8614 30.9802 40.0076C30.8935 40.1508 30.8776 40.3024 30.8885 40.4353C30.8991 40.5653 30.9365 40.6952 30.9708 40.8069C30.9809 40.839 30.9908 40.8692 31.0006 40.8984C31.0258 40.9778 31.0477 41.0478 31.0644 41.1183C31.1314 41.4035 31.3659 41.5862 31.6085 41.671C31.8478 41.7543 32.1438 41.7616 32.3845 41.6419L32.3854 41.6409C32.75 41.4572 32.9152 41.1941 33.0712 40.9457ZM32.586 40.7492C32.5196 40.4689 32.4226 40.2499 32.2875 40.1292C32.2205 40.0693 32.1445 40.034 32.0501 40.0252C31.9514 40.0159 31.8107 40.034 31.614 40.1153C31.5044 40.1611 31.4633 40.206 31.4454 40.2364C31.4254 40.2681 31.4135 40.3145 31.4199 40.3892C31.4256 40.4669 31.4498 40.5562 31.4836 40.6639C31.4906 40.6876 31.4989 40.7131 31.5071 40.7386L31.5071 40.7386L31.5075 40.7396L31.5075 40.7396C31.5342 40.8234 31.5642 40.9175 31.586 41.0057L31.5861 41.0067C31.6059 41.0945 31.6834 41.1718 31.8075 41.2154C31.9372 41.2603 32.0649 41.2506 32.1359 41.215C32.344 41.1109 32.4424 40.9762 32.586 40.7492Z" fill="#38394F" fill-opacity="0.2"/>
<path fill-rule="evenodd" clip-rule="evenodd" d="M61.5869 91.3324L61.5849 91.3321C61.5779 91.3314 61.5709 91.3304 61.5639 91.3295C61.5569 91.3285 61.5499 91.3276 61.5429 91.3269C61.4857 91.3184 61.4272 91.3321 61.3777 91.3648C61.0901 91.5552 60.7775 91.8127 60.644 92.1439C60.5743 92.3183 60.554 92.5112 60.6099 92.7154C60.6641 92.9138 60.7873 93.1033 60.9717 93.2848C61.1094 93.4195 61.2598 93.5025 61.4246 93.5218C61.5875 93.5412 61.7322 93.4966 61.8522 93.4347C61.9706 93.375 62.0783 93.2915 62.1704 93.2177C62.1851 93.2059 62.1992 93.1941 62.2131 93.1825C62.2239 93.1735 62.2345 93.1647 62.2451 93.156C62.2527 93.1499 62.2602 93.1438 62.2676 93.1377C62.3236 93.0924 62.3746 93.0509 62.427 93.0148C62.6687 92.8448 62.7593 92.5686 62.756 92.3243C62.7531 92.0839 62.6601 91.8228 62.468 91.6602L62.467 91.6593C62.1722 91.4119 61.8706 91.3709 61.5869 91.3324ZM61.5713 91.8331C61.3341 91.9997 61.1643 92.1695 61.0975 92.3347C61.0645 92.4167 61.0579 92.4966 61.0815 92.5822C61.1057 92.6727 61.1701 92.7877 61.3112 92.927C61.3901 93.0052 61.4464 93.0238 61.4804 93.028C61.5164 93.0319 61.5638 93.0244 61.6308 92.9897C61.7006 92.9536 61.7751 92.8989 61.8644 92.8265C61.8803 92.8143 61.8961 92.8015 61.9128 92.7879L61.9128 92.7879L61.9258 92.7774C61.9942 92.7204 62.0717 92.6574 62.1475 92.6046L62.1483 92.6035C62.2222 92.5519 62.2682 92.4543 62.2666 92.3282C62.2655 92.1979 62.2128 92.0906 62.1561 92.043C61.9892 91.9026 61.8307 91.8696 61.5713 91.8331Z" fill="#38394F" fill-opacity="0.2"/>
<path fill-rule="evenodd" clip-rule="evenodd" d="M32.7374 78.8834L32.7361 78.8818C32.7268 78.8698 32.7176 78.8577 32.7084 78.8468C32.6702 78.7966 32.6171 78.7635 32.5597 78.7526C32.2185 78.6902 31.8153 78.6633 31.499 78.8271C31.3326 78.9138 31.1918 79.0532 31.1018 79.2565C31.0133 79.4564 30.9831 79.6999 31.0034 79.9811L31.0036 79.9822C31.0187 80.1921 31.0786 80.3706 31.1901 80.5095C31.2994 80.6464 31.4387 80.7188 31.5685 80.7595C31.6963 80.7994 31.8319 80.8134 31.9493 80.8228C31.9596 80.8236 31.9697 80.8245 31.9796 80.8253C32.0024 80.8272 32.0243 80.829 32.0457 80.8303C32.0603 80.8315 32.0746 80.8326 32.0887 80.8337C32.1552 80.8389 32.2161 80.8437 32.275 80.8532C32.5679 80.8982 32.8155 80.7455 32.9733 80.5485C33.1274 80.3542 33.2267 80.0767 33.1884 79.8029L33.1883 79.8018C33.1266 79.3834 32.9265 79.1263 32.7374 78.8834ZM32.4003 79.2715C32.1134 79.2269 31.874 79.2357 31.7169 79.3181C31.6387 79.3587 31.5813 79.4165 31.5429 79.5027C31.503 79.5934 31.4757 79.734 31.4916 79.9503C31.5006 80.0714 31.5307 80.128 31.5537 80.157C31.5788 80.1868 31.6186 80.2161 31.6923 80.2393C31.7678 80.2623 31.8599 80.2746 31.9742 80.2833C31.9888 80.2849 32.0037 80.286 32.019 80.2871L32.019 80.2871C32.0298 80.2879 32.0407 80.2887 32.0518 80.2897C32.1412 80.2959 32.2406 80.303 32.3318 80.3166L32.3328 80.3165C32.4222 80.3313 32.5206 80.2873 32.6017 80.1864C32.6852 80.0809 32.7153 79.9564 32.7039 79.8748C32.669 79.6388 32.5717 79.494 32.4003 79.2715Z" fill="#38394F" fill-opacity="0.2"/>
<path fill-rule="evenodd" clip-rule="evenodd" d="M35.591 62.7908C35.6665 62.3994 35.5577 62.1002 35.4539 61.8191C35.4493 61.8052 35.4447 61.7913 35.4393 61.7785C35.4188 61.721 35.3785 61.673 35.3273 61.6427C35.0218 61.4672 34.647 61.3027 34.2939 61.337C34.1071 61.3553 33.9285 61.4283 33.7775 61.5777C33.629 61.7226 33.5222 61.9268 33.4521 62.1835L33.4522 62.1845C33.3995 62.3752 33.4001 62.5547 33.4615 62.7169C33.5224 62.876 33.6318 62.9883 33.7426 63.0706C33.8521 63.1498 33.9765 63.2109 34.0855 63.2604C34.0998 63.2669 34.114 63.2733 34.1279 63.2795C34.1439 63.2866 34.1596 63.2936 34.1747 63.3007C34.1796 63.3029 34.1845 63.3051 34.1893 63.3072C34.2609 63.339 34.3254 63.3676 34.386 63.4003C34.65 63.5434 34.9348 63.4953 35.1479 63.376C35.3571 63.2582 35.5408 63.0473 35.5911 62.7918L35.591 62.7908ZM35.0105 62.0463C34.7508 61.9058 34.5204 61.83 34.3434 61.8472C34.2558 61.8552 34.1829 61.8872 34.1195 61.9502C34.0524 62.0157 33.982 62.13 33.928 62.3271C33.8979 62.4378 33.9077 62.4976 33.9205 62.5312C33.9346 62.5678 33.964 62.6067 34.026 62.6533C34.091 62.7005 34.1755 62.7434 34.2804 62.7913C34.3035 62.802 34.3276 62.8127 34.3538 62.8241L34.388 62.8396L34.388 62.8396C34.4609 62.8725 34.5401 62.9082 34.6114 62.9463L34.6115 62.9473C34.6931 62.9906 34.8 62.9866 34.9094 62.9256C35.0224 62.8621 35.0915 62.7624 35.1067 62.6863C35.149 62.4648 35.1026 62.303 35.0105 62.0463Z" fill="#38394F" fill-opacity="0.2"/>
<path fill-rule="evenodd" clip-rule="evenodd" d="M32.0205 53.0107C32.2225 52.6815 32.2203 52.3748 32.2172 52.086C32.2169 52.0791 32.2168 52.0721 32.2168 52.0652C32.2167 52.0582 32.2167 52.0513 32.2164 52.0443C32.2165 51.9847 32.1951 51.9285 32.1561 51.8843C31.9265 51.6225 31.6283 51.3466 31.2827 51.258C31.1007 51.2123 30.9066 51.2176 30.7145 51.3012C30.5263 51.3834 30.3566 51.532 30.2037 51.7402C30.0908 51.8962 30.0304 52.0581 30.0346 52.2256C30.0385 52.3901 30.1043 52.5286 30.1809 52.6401C30.2573 52.7495 30.3542 52.8458 30.4404 52.9273C30.451 52.9372 30.4616 52.9469 30.472 52.9565C30.4857 52.9691 30.4992 52.9815 30.5119 52.9936C30.5734 53.0512 30.6282 53.1025 30.6782 53.1554C30.879 53.3739 31.1646 53.4266 31.405 53.3902C31.6426 53.355 31.8864 53.2258 32.0196 53.0118L32.0205 53.0107ZM31.7213 52.1418C31.523 51.927 31.3315 51.78 31.1587 51.7362C31.0734 51.7152 30.9939 51.7183 30.9122 51.7545C30.8275 51.791 30.7218 51.8707 30.6054 52.0311C30.5397 52.1201 30.5294 52.1779 30.5303 52.2125C30.5307 52.2503 30.5459 52.2962 30.589 52.3588C30.6343 52.4232 30.6989 52.4903 30.7828 52.5692C30.7899 52.5758 30.7972 52.5828 30.8047 52.5899C30.816 52.6008 30.8278 52.612 30.8399 52.6232C30.9058 52.6842 30.9796 52.7533 31.0423 52.8206L31.0434 52.8215C31.105 52.889 31.2075 52.9209 31.3312 52.9028C31.4598 52.8831 31.5579 52.8162 31.5976 52.7531C31.7121 52.5671 31.7225 52.4049 31.7213 52.1418Z" fill="#38394F" fill-opacity="0.2"/>
<path fill-rule="evenodd" clip-rule="evenodd" d="M38.0096 40.9373C38.3246 40.6985 38.4321 40.413 38.5331 40.1429C38.5378 40.1296 38.5425 40.1164 38.5473 40.1041C38.5688 40.0487 38.5681 39.9891 38.5464 39.9347C38.4192 39.6164 38.2291 39.2611 37.9263 39.0657C37.767 38.9625 37.5778 38.9039 37.3608 38.9179C37.1489 38.9314 36.9315 39.0131 36.7097 39.156L36.7098 39.157C36.5436 39.2632 36.4276 39.394 36.3713 39.5502C36.3158 39.7054 36.3289 39.8557 36.3643 39.9848C36.3984 40.1112 36.4576 40.2327 36.5119 40.3371C36.5192 40.3508 36.5263 40.3644 36.5332 40.3776C36.5412 40.3929 36.5489 40.4077 36.5567 40.4221C36.5626 40.4335 36.5685 40.4448 36.5743 40.4559C36.6058 40.5163 36.6347 40.5718 36.6586 40.6278C36.775 40.8975 37.0316 41.0404 37.2782 41.0866C37.5204 41.1313 37.8027 41.0931 38.0087 40.9383L38.0096 40.9373ZM38.0337 40.0307C37.9188 39.7657 37.7856 39.5665 37.6352 39.4682C37.5596 39.4201 37.4817 39.3976 37.3906 39.4032C37.2944 39.4093 37.1638 39.4487 36.9929 39.5584C36.8969 39.6203 36.8666 39.6708 36.8548 39.7034C36.8423 39.7382 36.8395 39.7855 36.8591 39.8577C36.88 39.9326 36.9185 40.0164 36.9714 40.118C36.9759 40.127 36.9807 40.1362 36.9858 40.1457L36.9858 40.1458L36.9858 40.1458C36.9928 40.159 37.0001 40.1728 37.0072 40.1874C37.049 40.2648 37.0953 40.3535 37.1327 40.4374L37.1328 40.4384C37.168 40.5205 37.2558 40.5849 37.3822 40.6086C37.5139 40.6327 37.6332 40.6034 37.6939 40.5572C37.8713 40.4224 37.94 40.2754 38.0337 40.0307Z" fill="#38394F" fill-opacity="0.2"/>
<path fill-rule="evenodd" clip-rule="evenodd" d="M65.5716 101.496C65.207 101.353 64.9005 101.41 64.6119 101.464L64.5694 101.472C64.511 101.483 64.4581 101.514 64.42 101.56C64.1988 101.833 63.9745 102.176 63.9468 102.534C63.932 102.722 63.9719 102.911 64.089 103.087C64.2035 103.258 64.3822 103.4 64.6163 103.514L64.6173 103.513C64.7926 103.598 64.9647 103.629 65.1316 103.596C65.2954 103.563 65.4225 103.473 65.5206 103.378C65.6167 103.283 65.6966 103.17 65.7631 103.071C65.7782 103.047 65.7928 103.025 65.8069 103.004C65.8104 102.999 65.8138 102.994 65.8172 102.989C65.8636 102.917 65.9049 102.854 65.9507 102.796C66.1335 102.559 66.1366 102.268 66.0585 102.036C65.9809 101.808 65.8105 101.589 65.5726 101.496L65.5716 101.496ZM64.7536 101.944C65.0168 101.897 65.1813 101.879 65.3873 101.958C65.4572 101.986 65.5417 102.072 65.583 102.195C65.6229 102.314 65.609 102.422 65.5526 102.494L65.5518 102.495C65.5015 102.56 65.4522 102.634 65.4071 102.702L65.4071 102.702L65.3887 102.729C65.3743 102.753 65.3596 102.775 65.3449 102.796C65.2803 102.893 65.2253 102.968 65.1682 103.025C65.1127 103.078 65.0699 103.101 65.0324 103.108C64.9978 103.115 64.9382 103.115 64.8378 103.067C64.6571 102.979 64.559 102.889 64.5066 102.811C64.4568 102.738 64.4398 102.66 64.4468 102.571C64.4608 102.393 64.5734 102.178 64.7536 101.944Z" fill="#38394F" fill-opacity="0.2"/>
<path fill-rule="evenodd" clip-rule="evenodd" d="M50.3283 98.6951L50.3249 98.6945C50.3183 98.6933 50.3116 98.692 50.3048 98.6908C50.298 98.6896 50.2912 98.6883 50.2847 98.6871C50.2265 98.6776 50.1679 98.6894 50.1182 98.7192C49.824 98.8997 49.5042 99.1476 49.3596 99.4739C49.2839 99.6465 49.2568 99.8397 49.306 100.045C49.3535 100.246 49.4703 100.441 49.6482 100.629C49.7804 100.769 49.9282 100.857 50.0925 100.884C50.2537 100.908 50.3997 100.868 50.522 100.811C50.6415 100.755 50.7515 100.676 50.8457 100.605C50.866 100.59 50.8852 100.575 50.9038 100.561C50.9101 100.556 50.9163 100.551 50.9225 100.546L50.9305 100.54C50.9941 100.492 51.0507 100.449 51.1086 100.41C51.3559 100.25 51.4554 99.9762 51.4608 99.7312C51.4666 99.4901 51.3822 99.2252 51.1954 99.0545L51.1944 99.0546C50.9091 98.7958 50.6103 98.744 50.3283 98.6951ZM50.2957 99.1957C50.0532 99.3543 49.8772 99.5182 49.8053 99.6813C49.7694 99.7629 49.7598 99.8424 49.7805 99.9286C49.8027 100.02 49.8626 100.138 49.9991 100.283C50.0753 100.364 50.1298 100.384 50.1638 100.39C50.2009 100.395 50.2474 100.389 50.3156 100.357C50.3865 100.324 50.4631 100.271 50.5545 100.202C50.5686 100.192 50.5831 100.181 50.598 100.169L50.598 100.169L50.617 100.155C50.6875 100.1 50.7672 100.04 50.8441 99.9899L50.8449 99.9888C50.92 99.9399 50.97 99.8437 50.9723 99.7177C50.975 99.5866 50.9261 99.4776 50.8712 99.4276C50.7098 99.2811 50.5528 99.2417 50.2957 99.1957Z" fill="#38394F" fill-opacity="0.2"/>
<path fill-rule="evenodd" clip-rule="evenodd" d="M39.3915 104.361L39.3892 104.36L39.3892 104.36C39.3751 104.358 39.3611 104.355 39.3481 104.354C39.2899 104.343 39.2312 104.355 39.1815 104.385C38.8874 104.566 38.5675 104.813 38.4229 105.14C38.3472 105.312 38.3202 105.506 38.3693 105.711C38.4178 105.912 38.5336 106.107 38.7115 106.295C38.8437 106.435 38.9915 106.523 39.1559 106.55C39.3171 106.574 39.463 106.535 39.5853 106.477C39.7049 106.421 39.8148 106.342 39.909 106.271C39.9293 106.256 39.9486 106.241 39.9672 106.227C39.9735 106.222 39.9797 106.217 39.9859 106.212L39.9938 106.206C40.0575 106.158 40.114 106.115 40.172 106.076C40.4192 105.916 40.5197 105.642 40.5241 105.397C40.5299 105.156 40.4455 104.891 40.2588 104.721L40.2587 104.72C39.972 104.461 39.6739 104.41 39.3915 104.361ZM39.359 104.862C39.1165 105.02 38.9405 105.184 38.8687 105.347C38.8337 105.429 38.8232 105.508 38.8439 105.595C38.8661 105.686 38.9259 105.804 39.0625 105.949C39.1386 106.029 39.1932 106.05 39.2272 106.056C39.2643 106.061 39.3107 106.055 39.3799 106.023C39.4499 105.99 39.5264 105.937 39.6179 105.868C39.632 105.858 39.6464 105.847 39.6613 105.835L39.6614 105.835L39.6803 105.821C39.7509 105.766 39.8305 105.706 39.9074 105.656L39.9083 105.655C39.9843 105.606 40.0333 105.51 40.0356 105.384C40.0383 105.253 39.9904 105.143 39.9345 105.093C39.7731 104.947 39.6161 104.908 39.359 104.862Z" fill="#38394F" fill-opacity="0.2"/>
<path fill-rule="evenodd" clip-rule="evenodd" d="M42.6921 113.913L42.6886 113.913C42.6814 113.911 42.6738 113.91 42.6661 113.909C42.66 113.908 42.6538 113.907 42.6476 113.906C42.5903 113.896 42.5316 113.907 42.481 113.938C42.1878 114.119 41.8678 114.366 41.7231 114.692C41.6475 114.865 41.6204 115.058 41.6695 115.263C41.7172 115.465 41.8339 115.659 42.0109 115.847C42.144 115.988 42.2919 116.076 42.4552 116.102C42.6175 116.127 42.7634 116.087 42.8848 116.03C43.0043 115.974 43.1153 115.895 43.2095 115.823C43.2298 115.808 43.249 115.793 43.2677 115.779C43.274 115.774 43.2802 115.769 43.2863 115.764L43.2931 115.759C43.3573 115.71 43.4142 115.667 43.4726 115.629C43.7198 115.468 43.8193 115.194 43.8247 114.949C43.8296 114.708 43.7461 114.443 43.5594 114.274L43.5583 114.273C43.2729 114.014 42.9741 113.962 42.6921 113.913ZM42.6594 114.414C42.4169 114.572 42.2409 114.737 42.169 114.899C42.1331 114.981 42.1235 115.061 42.1443 115.148C42.1655 115.239 42.2263 115.357 42.362 115.502L42.6594 114.414ZM42.6594 114.414L42.3629 115.502C42.4391 115.583 42.4935 115.603 42.5276 115.608C42.5637 115.614 42.6111 115.607 42.6793 115.575C42.7503 115.542 42.8269 115.49 42.9175 115.421C42.9373 115.406 42.959 115.389 42.9808 115.373L42.9808 115.373L43.0137 115.348L43.0137 115.348C43.0754 115.301 43.1419 115.251 43.2079 115.208L43.2078 115.207C43.2838 115.158 43.3328 115.062 43.3361 114.936C43.3389 114.806 43.2899 114.696 43.235 114.646C43.0726 114.499 42.9166 114.46 42.6594 114.414Z" fill="#38394F" fill-opacity="0.2"/>
<path fill-rule="evenodd" clip-rule="evenodd" d="M28.0996 94.6652L28.0973 94.6639C28.0849 94.658 28.0723 94.6509 28.0598 94.6439L28.0598 94.6439C28.0076 94.616 27.948 94.608 27.8919 94.6229C27.5613 94.7094 27.1864 94.8551 26.9573 95.1364C26.8372 95.2847 26.7576 95.4695 26.7467 95.691C26.7365 95.9092 26.7934 96.1409 26.9106 96.3869C26.9981 96.5695 27.1154 96.7054 27.2643 96.7836C27.4122 96.8609 27.5627 96.868 27.6947 96.8497C27.8248 96.8317 27.9528 96.7874 28.0617 96.7463C28.0853 96.7381 28.1078 96.7295 28.1293 96.7213C28.1369 96.7184 28.1444 96.7155 28.1518 96.7127C28.2305 96.6825 28.299 96.6567 28.3681 96.6361C28.6485 96.5542 28.8204 96.3122 28.8942 96.0676C28.9656 95.8276 28.9595 95.535 28.8284 95.3044L28.8282 95.3034C28.6271 94.9528 28.3558 94.8048 28.0996 94.6652ZM27.9287 95.1576C27.6532 95.2389 27.4395 95.347 27.3253 95.4871C27.2688 95.5571 27.2374 95.6337 27.2325 95.7275C27.228 95.8254 27.2526 95.9634 27.3428 96.1521C27.393 96.2575 27.4394 96.2956 27.4707 96.3121C27.504 96.3295 27.551 96.3379 27.6252 96.3283C27.7013 96.3175 27.7891 96.2894 27.8962 96.2497C27.9186 96.2407 27.943 96.2316 27.9694 96.2222L27.9874 96.2153L27.9874 96.2153C28.0651 96.1854 28.15 96.1527 28.2317 96.1287L28.2327 96.1286C28.3189 96.1039 28.3929 96.0234 28.4304 95.8974C28.4694 95.768 28.4539 95.6416 28.4149 95.5741C28.3011 95.3754 28.1616 95.2855 27.9287 95.1576Z" fill="#38394F" fill-opacity="0.2"/>
<path fill-rule="evenodd" clip-rule="evenodd" d="M20.2958 81.8793L20.2952 81.8787C20.2841 81.8678 20.274 81.8567 20.2639 81.8457C20.2213 81.7997 20.166 81.7728 20.1075 81.7684C19.7632 81.7436 19.362 81.7629 19.0645 81.9653C18.9075 82.073 18.7808 82.2293 18.7112 82.4465C18.6431 82.6592 18.6362 82.908 18.6844 83.1916C18.7193 83.4024 18.7963 83.5763 18.9203 83.705C19.0419 83.8306 19.1861 83.8871 19.32 83.9139C19.4498 83.9389 19.5855 83.9377 19.7031 83.9342C19.7218 83.9334 19.7401 83.9328 19.758 83.9323C19.772 83.9319 19.7858 83.9316 19.7992 83.931C19.8824 83.927 19.9558 83.9241 20.028 83.9269C20.3225 83.9386 20.5535 83.756 20.6899 83.5378C20.8248 83.3241 20.8965 83.0313 20.8318 82.7585L20.8308 82.7575C20.73 82.3409 20.5063 82.1031 20.2958 81.8793ZM19.9995 82.3123C19.7108 82.3 19.4749 82.3358 19.327 82.4369C19.2531 82.4875 19.2026 82.553 19.1728 82.6451C19.1414 82.7406 19.1285 82.886 19.1652 83.1033C19.186 83.2249 19.2207 83.2785 19.2464 83.3055C19.2742 83.3333 19.3164 83.3584 19.3919 83.373C19.4683 83.3875 19.561 83.3891 19.6747 83.3849C19.6992 83.3843 19.7257 83.3835 19.7531 83.3826C19.8411 83.378 19.9411 83.3743 20.0329 83.3771L20.033 83.3782C20.1239 83.3811 20.217 83.3261 20.2868 83.2141C20.3601 83.0982 20.3778 82.9689 20.3587 82.888C20.3011 82.6521 20.1913 82.5174 19.9995 82.3123Z" fill="#38394F" fill-opacity="0.2"/>
<path fill-rule="evenodd" clip-rule="evenodd" d="M16.9344 68.0785C16.9478 67.6691 16.7955 67.3843 16.651 67.1156C16.6473 67.1092 16.6438 67.1027 16.6404 67.0962C16.6369 67.0898 16.6334 67.0833 16.6297 67.0769C16.6007 67.0221 16.5543 66.9798 16.4985 66.9588C16.1731 66.8301 15.7791 66.7242 15.4374 66.8161C15.258 66.8652 15.0937 66.9685 14.9683 67.1435C14.8456 67.316 14.7723 67.5399 14.7419 67.8107L14.7421 67.8118C14.7197 68.014 14.7473 68.1947 14.8333 68.3497C14.9169 68.5007 15.0418 68.5973 15.1639 68.6615C15.2829 68.725 15.4143 68.766 15.5288 68.7983C15.543 68.8022 15.5569 68.8061 15.5705 68.81C15.5882 68.815 15.6055 68.8199 15.6228 68.8245C15.7045 68.8469 15.7761 68.8672 15.8452 68.892C16.1259 68.993 16.399 68.8984 16.5889 68.7424C16.7763 68.59 16.9244 68.3458 16.9345 68.0795L16.9344 68.0785ZM16.2493 67.4184C15.9737 67.3179 15.7357 67.2785 15.5648 67.3245C15.4804 67.3479 15.4142 67.3914 15.3613 67.4651C15.305 67.5434 15.2533 67.6708 15.2306 67.8794C15.2183 67.996 15.2379 68.055 15.2554 68.0869C15.2742 68.1217 15.3089 68.1568 15.3774 68.1933C15.448 68.2307 15.5375 68.2606 15.6488 68.2912C15.6663 68.297 15.6847 68.3021 15.7039 68.3074L15.7039 68.3074L15.7245 68.3131C15.8114 68.337 15.9084 68.3639 15.9961 68.3951L15.9971 68.395C16.0838 68.4262 16.1882 68.4048 16.2859 68.3249C16.3872 68.2425 16.4396 68.1298 16.4425 68.0513C16.4507 67.82 16.3793 67.6634 16.2493 67.4184Z" fill="#38394F" fill-opacity="0.2"/>
<path fill-rule="evenodd" clip-rule="evenodd" d="M17.337 53.4382C17.472 53.0698 17.41 52.7643 17.3509 52.4757C17.3483 52.4619 17.3457 52.448 17.3422 52.4343C17.3304 52.3749 17.2984 52.3229 17.2511 52.2859C16.9761 52.0686 16.6287 51.8494 16.271 51.8276C16.0836 51.8167 15.8934 51.8598 15.72 51.9797C15.5504 52.0983 15.413 52.2789 15.3031 52.516C15.2213 52.6933 15.1941 52.8663 15.2302 53.0331C15.2659 53.1969 15.3574 53.323 15.4555 53.419C15.5514 53.5142 15.6664 53.5921 15.7669 53.6564C15.7825 53.667 15.7981 53.6769 15.8133 53.6866C15.8255 53.6944 15.8374 53.702 15.849 53.7097C15.9213 53.7551 15.9849 53.7953 16.044 53.8391C16.2847 54.0189 16.5757 54.0169 16.8055 53.935C17.0313 53.8535 17.2464 53.6782 17.3361 53.4393L17.337 53.4382ZM16.8738 52.6264C16.6375 52.4502 16.4198 52.3406 16.2424 52.3296C16.1536 52.3235 16.0769 52.3435 16.0036 52.3943C15.9267 52.4476 15.838 52.5468 15.7538 52.7294C15.7075 52.8318 15.7083 52.8914 15.7162 52.9259C15.7234 52.9625 15.7473 53.0053 15.8016 53.0597C15.8591 53.1159 15.9354 53.1708 16.0337 53.2334C16.0543 53.2472 16.0769 53.2618 16.1006 53.2763L16.1109 53.2829C16.1848 53.33 16.2659 53.3817 16.338 53.4353L16.339 53.4351C16.4123 53.4905 16.5199 53.5034 16.6382 53.4616C16.7602 53.4173 16.8445 53.3317 16.8714 53.2609C16.9477 53.0529 16.9259 52.8895 16.8738 52.6264Z" fill="#38394F" fill-opacity="0.2"/>
<path fill-rule="evenodd" clip-rule="evenodd" d="M22.9133 38.3694L22.9136 38.367C22.915 38.353 22.9164 38.339 22.9179 38.326C22.9232 38.2672 22.9085 38.2086 22.874 38.1612C22.6736 37.8792 22.4057 37.5762 22.0705 37.4537C21.8939 37.389 21.7003 37.3756 21.5003 37.438C21.3032 37.5001 21.1189 37.6297 20.9445 37.8195C20.8147 37.9617 20.7372 38.1157 20.7241 38.281C20.7098 38.4446 20.7614 38.5887 20.8259 38.7067C20.8902 38.8227 20.9773 38.9273 21.0546 39.0171C21.0617 39.0253 21.0687 39.0334 21.0756 39.0414C21.09 39.0579 21.104 39.0741 21.118 39.0898C21.1252 39.0981 21.1323 39.1063 21.1393 39.1144C21.1861 39.1681 21.2284 39.2167 21.2664 39.2673C21.4436 39.5037 21.7221 39.5853 21.9669 39.573C22.2058 39.5625 22.4633 39.4599 22.6188 39.2625L22.6197 39.2614C22.8554 38.9578 22.8852 38.6553 22.9133 38.3694ZM22.4137 38.3709C22.239 38.1392 22.0631 37.9747 21.897 37.9138C21.8134 37.8829 21.7339 37.8792 21.6489 37.9057C21.56 37.9336 21.4467 38.0019 21.3133 38.1475C21.2386 38.2291 21.2221 38.2862 21.219 38.3201C21.2162 38.357 21.2255 38.4033 21.2622 38.4702C21.3001 38.5389 21.3584 38.6112 21.4334 38.6983C21.4496 38.7172 21.4668 38.737 21.4852 38.7576L21.496 38.7698C21.5519 38.8339 21.6129 38.9037 21.665 38.9729L21.6661 38.9738C21.7204 39.0465 21.8194 39.0895 21.9449 39.084C22.0743 39.078 22.1799 39.0215 22.2263 38.9629C22.3597 38.7907 22.3865 38.6317 22.4137 38.3709Z" fill="#38394F" fill-opacity="0.2"/>
<path fill-rule="evenodd" clip-rule="evenodd" d="M67.7903 112.252L67.7886 112.253C67.7862 112.254 67.7837 112.255 67.7812 112.256C67.7705 112.26 67.7593 112.265 67.7489 112.27C67.6923 112.294 67.6472 112.337 67.6211 112.391C67.4654 112.706 67.326 113.09 67.3858 113.439C67.4183 113.623 67.5049 113.797 67.6658 113.937C67.8231 114.074 68.0369 114.166 68.3003 114.218C68.4975 114.257 68.6773 114.245 68.8369 114.173C68.9933 114.101 69.0987 113.984 69.173 113.869C69.2453 113.754 69.2974 113.626 69.3399 113.515C69.3441 113.504 69.3482 113.493 69.3523 113.482C69.3597 113.461 69.3668 113.442 69.3741 113.423C69.3768 113.416 69.3794 113.409 69.382 113.402C69.4081 113.331 69.4316 113.267 69.4597 113.206C69.5849 112.934 69.5163 112.654 69.3805 112.45C69.2471 112.25 69.0215 112.082 68.7604 112.049L68.7594 112.049C68.3598 112.001 68.0666 112.13 67.7903 112.252ZM68.0499 112.678C68.3021 112.569 68.4622 112.512 68.6883 112.538C68.7655 112.548 68.8715 112.61 68.9432 112.718C69.0126 112.823 69.0248 112.929 68.9865 113.013L68.9854 113.013C68.9473 113.099 68.9123 113.193 68.8813 113.278C68.8767 113.291 68.872 113.303 68.8674 113.315L68.8674 113.315C68.8626 113.328 68.8579 113.341 68.8534 113.353C68.8127 113.462 68.7758 113.548 68.7323 113.615C68.6898 113.68 68.6528 113.712 68.6171 113.728C68.5845 113.744 68.5247 113.758 68.4107 113.736C68.2081 113.695 68.0884 113.633 68.0166 113.571C67.9484 113.512 67.9112 113.442 67.8971 113.355C67.8668 113.181 67.9274 112.946 68.0499 112.678Z" fill="#38394F" fill-opacity="0.2"/>
<path fill-rule="evenodd" clip-rule="evenodd" d="M53.0171 110.504L53.0142 110.504C53.0005 110.507 52.9866 110.508 52.9717 110.51C52.9134 110.518 52.8584 110.546 52.8193 110.59C52.5851 110.851 52.345 111.182 52.2984 111.538C52.2735 111.724 52.3037 111.917 52.4107 112.099C52.5164 112.276 52.6853 112.427 52.9136 112.553C53.0829 112.647 53.2531 112.687 53.42 112.662C53.5848 112.638 53.716 112.555 53.818 112.465C53.9182 112.375 54.0031 112.266 54.0745 112.171C54.0943 112.142 54.1134 112.116 54.1326 112.091C54.1829 112.022 54.2272 111.962 54.2741 111.906C54.4689 111.678 54.4868 111.388 54.4216 111.152C54.3569 110.92 54.1975 110.693 53.9674 110.586L53.9663 110.585C53.6127 110.425 53.3061 110.466 53.0171 110.504ZM53.1302 110.991C53.3945 110.958 53.558 110.948 53.7582 111.039C53.827 111.07 53.9056 111.161 53.9411 111.286C53.975 111.407 53.955 111.513 53.8947 111.583L53.8939 111.584C53.8357 111.653 53.7779 111.732 53.7262 111.802L53.7262 111.802L53.7209 111.809L53.7157 111.816C53.7011 111.837 53.6873 111.856 53.674 111.874C53.6044 111.967 53.5455 112.04 53.4863 112.093C53.4289 112.144 53.3841 112.164 53.3475 112.17C53.313 112.175 53.2534 112.171 53.1558 112.117C52.981 112.02 52.8879 111.926 52.8405 111.845C52.7947 111.769 52.7815 111.689 52.7926 111.602C52.8155 111.425 52.9391 111.215 53.1302 110.991Z" fill="#38394F" fill-opacity="0.2"/>
<path fill-rule="evenodd" clip-rule="evenodd" d="M24.529 100.878C24.3606 100.494 24.1034 100.311 23.8602 100.139L23.825 100.113C23.7748 100.078 23.7164 100.064 23.6584 100.071C23.3201 100.121 22.933 100.224 22.6775 100.484C22.5432 100.62 22.4462 100.8 22.415 101.025C22.3845 101.246 22.4192 101.49 22.5132 101.754C22.5838 101.951 22.6875 102.104 22.8291 102.202C22.9695 102.298 23.1194 102.323 23.2533 102.32C23.3843 102.317 23.5162 102.288 23.6296 102.259C23.6572 102.252 23.6834 102.245 23.7088 102.238C23.7132 102.237 23.7175 102.236 23.7219 102.235C23.8028 102.213 23.8742 102.196 23.9442 102.182C24.2326 102.133 24.4272 101.906 24.5231 101.665C24.6176 101.429 24.6382 101.129 24.5301 100.879L24.529 100.878ZM23.646 100.622C23.3625 100.671 23.1391 100.757 23.0117 100.886C22.9486 100.951 22.91 101.025 22.8974 101.12C22.8833 101.22 22.8948 101.363 22.9661 101.566C23.0066 101.681 23.0499 101.725 23.0797 101.745C23.1106 101.767 23.1563 101.781 23.2317 101.78C23.31 101.779 23.3999 101.76 23.5094 101.732L23.5248 101.728L23.5248 101.728C23.5442 101.723 23.5646 101.718 23.5856 101.712C23.6712 101.689 23.7664 101.664 23.8567 101.649L23.8576 101.648C23.946 101.633 24.0269 101.56 24.0764 101.436C24.1274 101.308 24.1233 101.178 24.0914 101.104C23.996 100.888 23.8661 100.78 23.646 100.622Z" fill="#38394F" fill-opacity="0.2"/>
<path fill-rule="evenodd" clip-rule="evenodd" d="M11.5195 80.8409L11.519 80.8402C11.5117 80.8281 11.5033 80.8151 11.4951 80.8031C11.4605 80.7512 11.4098 80.714 11.3537 80.6979C11.0172 80.6041 10.6171 80.5403 10.2876 80.6716C10.1139 80.7409 9.96225 80.8647 9.85478 81.0555C9.75097 81.2436 9.70085 81.4784 9.69822 81.7571C9.69634 81.9648 9.74172 82.1456 9.84239 82.2921C9.94088 82.4367 10.0738 82.5204 10.2012 82.5724C10.3255 82.6238 10.4599 82.6503 10.5757 82.6704C10.6099 82.6762 10.6411 82.6812 10.6722 82.6862L10.6723 82.6862C10.6799 82.6875 10.6874 82.6888 10.6949 82.6901C10.7684 82.7027 10.8348 82.7141 10.8994 82.7301C11.1879 82.8013 11.4478 82.6748 11.6217 82.4958C11.7912 82.3205 11.913 82.0572 11.8968 81.786L11.8966 81.7838C11.8697 81.368 11.6899 81.0974 11.5195 80.8409ZM11.1526 81.1917C10.8691 81.121 10.6297 81.1076 10.4654 81.1726C10.3833 81.2056 10.322 81.2567 10.2771 81.3382C10.2295 81.4232 10.1907 81.5577 10.1895 81.7718C10.1884 81.8913 10.2138 81.9496 10.234 81.9796C10.2565 82.0125 10.2948 82.0446 10.3662 82.0741C10.4397 82.1033 10.5309 82.124 10.6446 82.1433C10.6689 82.148 10.695 82.1525 10.7222 82.157C10.8096 82.1706 10.9093 82.1871 10.9986 82.2092L10.9997 82.2101C11.0881 82.2322 11.1898 82.198 11.279 82.1061C11.3707 82.0107 11.4115 81.8921 11.4071 81.8109C11.3911 81.5762 11.3058 81.4258 11.1526 81.1917Z" fill="#38394F" fill-opacity="0.2"/>
<path fill-rule="evenodd" clip-rule="evenodd" d="M8.03944 57.9374L8.03937 57.9371C8.03807 57.9301 8.0365 57.923 8.03493 57.9158C8.03336 57.9086 8.03179 57.9015 8.0305 57.8945C8.01683 57.8363 7.98387 57.7843 7.93673 57.7482C7.65728 57.5349 7.30584 57.3218 6.9491 57.3069C6.76106 57.298 6.57241 57.3449 6.40159 57.4689C6.23436 57.5894 6.09938 57.7731 5.99385 58.0132C5.91537 58.1924 5.89129 58.3665 5.93027 58.5323C5.96903 58.6961 6.06225 58.8202 6.16213 58.9151C6.25981 59.0083 6.37552 59.0843 6.47679 59.1477C6.50585 59.1656 6.53381 59.1827 6.56066 59.1989C6.56554 59.2019 6.57037 59.2049 6.57518 59.2078C6.64146 59.2487 6.70132 59.2855 6.75728 59.3264C7.00131 59.5011 7.29156 59.4942 7.51975 59.4083C7.74497 59.3227 7.95647 59.1435 8.04179 58.9016L8.04168 58.9006C8.17122 58.5302 8.10336 58.2249 8.03944 57.9374ZM7.56548 58.0957C7.32574 57.9235 7.1065 57.8169 6.92868 57.8099C6.84021 57.8058 6.76348 57.8257 6.69152 57.8786C6.61573 57.9329 6.52941 58.035 6.44842 58.2186C6.40326 58.322 6.40508 58.3816 6.41304 58.4162C6.42221 58.4526 6.44612 58.4955 6.50224 58.5489C6.55957 58.6041 6.63763 58.657 6.73571 58.7187C6.74869 58.727 6.76238 58.7352 6.77638 58.7436C6.78566 58.7491 6.79507 58.7547 6.8045 58.7605L6.82118 58.7708L6.82119 58.7708C6.89339 58.8151 6.97346 58.8644 7.04427 58.9155L7.04439 58.9165C7.11949 58.9697 7.22676 58.9807 7.34475 58.9368C7.46547 58.8906 7.54845 58.803 7.57324 58.7313C7.64632 58.5222 7.62248 58.3578 7.56548 58.0957Z" fill="#38394F" fill-opacity="0.2"/>
<path fill-rule="evenodd" clip-rule="evenodd" d="M13.2192 35.6916L13.2198 35.6882C13.2214 35.6752 13.2238 35.6612 13.2263 35.6481C13.2367 35.5898 13.225 35.5312 13.1942 35.4816C13.0137 35.1874 12.7668 34.8675 12.4405 34.7228C12.2679 34.6472 12.0747 34.6201 11.8692 34.6692C11.6674 34.7169 11.4736 34.8335 11.2858 35.0115C11.1451 35.1437 11.0564 35.2915 11.031 35.4558C11.0052 35.6171 11.046 35.7629 11.1033 35.8853C11.1592 36.0048 11.2382 36.1148 11.3093 36.2089C11.3184 36.2212 11.3275 36.2331 11.3364 36.2447C11.3471 36.2588 11.3576 36.2725 11.3674 36.2859C11.4193 36.3527 11.4642 36.4115 11.5033 36.472C11.6644 36.7192 11.9373 36.8187 12.1833 36.824C12.4243 36.8299 12.6892 36.7454 12.8589 36.5588L12.8598 36.5577C13.1186 36.2723 13.1704 35.9736 13.2192 35.6916ZM12.7187 35.659C12.5602 35.4164 12.3952 35.2406 12.2331 35.1686C12.1515 35.1327 12.072 35.1231 11.9849 35.1439C11.8939 35.1661 11.776 35.2259 11.6307 35.3625C11.5499 35.4387 11.53 35.4931 11.5249 35.5271C11.519 35.5632 11.5254 35.6107 11.5573 35.6788C11.5906 35.7498 11.6426 35.8265 11.7114 35.9179L11.7249 35.9356L11.7249 35.9356C11.736 35.95 11.7474 35.965 11.7598 35.9803L11.7797 36.0066L11.7797 36.0066C11.828 36.0703 11.8807 36.1398 11.9246 36.2073L11.9247 36.2083C11.9745 36.2833 12.0708 36.3332 12.1967 36.3355C12.3268 36.3384 12.4368 36.2894 12.4869 36.2344C12.6333 36.0731 12.6727 35.9161 12.7187 35.659Z" fill="#38394F" fill-opacity="0.2"/>
<path fill-rule="evenodd" clip-rule="evenodd" d="M64.938 119.093L64.9372 119.093C64.9235 119.097 64.9096 119.099 64.8957 119.102C64.8375 119.116 64.7855 119.148 64.7493 119.196C64.5361 119.475 64.323 119.827 64.3071 120.183C64.2992 120.371 64.3461 120.56 64.4691 120.731C64.5906 120.898 64.7743 121.033 65.0144 121.138C65.1926 121.217 65.3666 121.241 65.5334 121.202C65.6972 121.163 65.8213 121.07 65.9163 120.97C66.0095 120.873 66.0854 120.757 66.1478 120.656C66.1668 120.627 66.1838 120.599 66.2 120.572C66.2034 120.566 66.2068 120.561 66.2102 120.555C66.2505 120.49 66.287 120.43 66.3265 120.375C66.5024 120.132 66.4954 119.841 66.4084 119.613C66.324 119.388 66.1446 119.176 65.9027 119.091L65.9017 119.091C65.5315 118.961 65.2264 119.029 64.938 119.093ZM65.0969 119.567C65.359 119.511 65.5234 119.486 65.7324 119.559C65.8042 119.584 65.8917 119.667 65.937 119.788C65.9819 119.906 65.9708 120.013 65.9166 120.088C65.8615 120.164 65.8087 120.251 65.7618 120.329L65.7519 120.345L65.7519 120.345C65.741 120.363 65.7305 120.38 65.7199 120.397C65.6581 120.495 65.6053 120.573 65.5501 120.631C65.4966 120.686 65.4538 120.71 65.4173 120.719C65.3828 120.727 65.3232 120.729 65.2197 120.684C65.0351 120.603 64.934 120.517 64.8787 120.441C64.8269 120.369 64.807 120.292 64.81 120.204C64.818 120.026 64.9247 119.807 65.0969 119.567Z" fill="#38394F" fill-opacity="0.2"/>
</svg>
