<svg width="63" height="133" viewBox="0 0 63 133" fill="none" xmlns="http://www.w3.org/2000/svg">
<path fill-rule="evenodd" clip-rule="evenodd" d="M28.6726 109.215C16.5781 105.71 10.5578 92.3148 13.0232 79.4011C14.5309 71.5064 18.5538 64.0769 25.7582 60.1113C33.4763 55.8614 41.9487 58.0729 47.1167 59.8642C51.0682 61.2332 57.6396 63.9385 59.657 71.5007C60.3145 73.9654 61.0273 77.0413 61.2956 80.2435C61.5603 83.4172 61.4204 87.0421 60.1011 90.4563C57.0217 98.4259 51.4666 103.18 45.5753 106.978C42.5696 108.917 39.7403 110.037 36.7252 110.294C33.7952 110.543 31.1334 109.928 28.6726 109.215ZM22.4957 81.1932C20.6968 90.617 25.3185 98.1595 31.3766 99.9147C33.5546 100.547 34.8271 100.743 35.9415 100.649C36.9716 100.561 38.3 100.182 40.3811 98.8398C45.4781 95.5541 49.0909 92.2079 51.1101 86.9822C51.6977 85.4617 51.8836 83.4723 51.6839 81.0848C51.4868 78.7253 50.9423 76.2917 50.3398 74.032C49.7006 71.6346 47.7081 70.3196 43.9424 69.0151C39.0105 67.3056 34.1641 66.5087 30.3752 68.5938C26.4792 70.7393 23.6524 75.1348 22.4957 81.1932Z" fill="#FEB3C4" fill-opacity="0.12"/>
<path fill-rule="evenodd" clip-rule="evenodd" d="M96.6523 33.2283C85.3707 19.3104 65.6566 14.9923 50.987 23.3963C41.8453 28.6337 35.9289 36.9219 35.9929 47.5334C36.0259 53.0363 37.9707 58.3822 40.7204 63.2823C43.4709 68.1836 47.0417 72.6647 50.3609 76.4425C55.4126 82.1907 61.9128 88.5155 70.426 88.5623C78.3195 88.6057 87.9121 86.9668 93.6512 81.6021C101.258 74.4913 104.141 66.1125 104.833 55.5043C105.156 50.5719 104.554 46.7699 103.138 43.3031C101.724 39.847 99.5088 36.7522 96.6523 33.2283ZM51.4342 24.1826C65.6817 16.0208 84.9199 20.1901 95.9517 33.8C98.7965 37.3103 100.94 40.3205 102.302 43.6485C103.659 46.9663 104.248 50.6274 103.933 55.4464C103.25 65.8996 100.426 74.0312 93.036 80.939C87.5602 86.0584 78.2696 87.6996 70.4324 87.6558C62.3631 87.6121 56.1059 81.6094 51.0383 75.8428C47.7368 72.0848 44.2126 67.6579 41.5068 62.8371C38.8004 58.0141 36.928 52.8217 36.8963 47.5273C36.8343 37.311 42.5108 29.2952 51.4342 24.1826Z" fill="#38394F" fill-opacity="0.1"/>
</svg>
