<svg width="397" height="108" viewBox="0 0 397 108" fill="none" xmlns="http://www.w3.org/2000/svg">
<line x1="392.928" y1="56.3139" x2="392.928" y2="52.9723" stroke="#EE145C" stroke-opacity="0.3" stroke-width="7" stroke-linecap="round"/>
<line x1="3.5" y1="81.5" x2="3.5" y2="29.5" stroke="#EE145C" stroke-opacity="0.3" stroke-width="7" stroke-linecap="round"/>
<line x1="23.5" y1="104.5" x2="23.5" y2="3.5" stroke="#EE145C" stroke-opacity="0.3" stroke-width="7" stroke-linecap="round"/>
<line x1="43.5" y1="90.5" x2="43.5" y2="17.5" stroke="#EE145C" stroke-opacity="0.3" stroke-width="7" stroke-linecap="round"/>
<line x1="63.5" y1="72.5" x2="63.5" y2="35.5" stroke="#EE145C" stroke-opacity="0.3" stroke-width="7" stroke-linecap="round"/>
<line x1="3.5" y1="-3.5" x2="30.972" y2="-3.5" transform="matrix(0 -1 -1 0 82.7329 71.2609)" stroke="#EE145C" stroke-opacity="0.3" stroke-width="7" stroke-linecap="round"/>
<line x1="3.5" y1="-3.5" x2="24.0776" y2="-3.5" transform="matrix(0 -1 -1 0 103.416 68.2609)" stroke="#EE145C" stroke-opacity="0.3" stroke-width="7" stroke-linecap="round"/>
<line x1="3.5" y1="-3.5" x2="13.736" y2="-3.5" transform="matrix(0 -1 -1 0 124.099 63.2609)" stroke="#EE145C" stroke-opacity="0.3" stroke-width="7" stroke-linecap="round"/>
<line x1="3.5" y1="-3.5" x2="13.736" y2="-3.5" transform="matrix(0 -1 -1 0 144.783 63.2609)" stroke="#EE145C" stroke-opacity="0.3" stroke-width="7" stroke-linecap="round"/>
<line x1="3.5" y1="-3.5" x2="30.972" y2="-3.5" transform="matrix(0 -1 -1 0 165.466 71.2609)" stroke="#EE145C" stroke-opacity="0.3" stroke-width="7" stroke-linecap="round"/>
<line x1="3.5" y1="-3.5" x2="24.0776" y2="-3.5" transform="matrix(0 -1 -1 0 186.149 68.2609)" stroke="#EE145C" stroke-opacity="0.3" stroke-width="7" stroke-linecap="round"/>
<line x1="3.5" y1="-3.5" x2="13.736" y2="-3.5" transform="matrix(0 -1 -1 0 206.832 63.2609)" stroke="#EE145C" stroke-opacity="0.3" stroke-width="7" stroke-linecap="round"/>
<line x1="3.5" y1="-3.5" x2="13.736" y2="-3.5" transform="matrix(0 -1 -1 0 227.516 62.2609)" stroke="#EE145C" stroke-opacity="0.3" stroke-width="7" stroke-linecap="round"/>
<line x1="3.5" y1="-3.5" x2="20.6304" y2="-3.5" transform="matrix(0 -1 -1 0 248.199 66.2609)" stroke="#EE145C" stroke-opacity="0.3" stroke-width="7" stroke-linecap="round"/>
<line x1="3.5" y1="-3.5" x2="44.7609" y2="-3.5" transform="matrix(0 -1 -1 0 268.882 77.2609)" stroke="#EE145C" stroke-opacity="0.3" stroke-width="7" stroke-linecap="round"/>
<line x1="3.5" y1="-3.5" x2="30.972" y2="-3.5" transform="matrix(0 -1 -1 0 289.565 70.2609)" stroke="#EE145C" stroke-opacity="0.3" stroke-width="7" stroke-linecap="round"/>
<line x1="3.5" y1="-3.5" x2="20.6304" y2="-3.5" transform="matrix(0 -1 -1 0 310.249 66.2609)" stroke="#EE145C" stroke-opacity="0.3" stroke-width="7" stroke-linecap="round"/>
<line x1="3.5" y1="-3.5" x2="17.1832" y2="-3.5" transform="matrix(0 -1 -1 0 330.932 64.2609)" stroke="#EE145C" stroke-opacity="0.3" stroke-width="7" stroke-linecap="round"/>
<line x1="3.5" y1="-3.5" x2="13.736" y2="-3.5" transform="matrix(0 -1 -1 0 351.615 63.2609)" stroke="#EE145C" stroke-opacity="0.3" stroke-width="7" stroke-linecap="round"/>
<line x1="3.5" y1="-3.5" x2="13.736" y2="-3.5" transform="matrix(0 -1 -1 0 372.298 63.2609)" stroke="#EE145C" stroke-opacity="0.3" stroke-width="7" stroke-linecap="round"/>
</svg>
