<svg width="28" height="26" viewBox="0 0 28 26" fill="none" xmlns="http://www.w3.org/2000/svg">
<path d="M25.4738 13.993L25.49 14.0105L14 25.5005L2.51002 14.0105L2.52627 13.993C1.19198 12.4374 0.494824 10.4351 0.574509 8.38722C0.654193 6.33935 1.50483 4.39724 2.95596 2.95006C4.40709 1.50288 6.35152 0.657541 8.3996 0.583442C10.4477 0.509343 12.4481 1.21196 14 2.55049C15.5519 1.21196 17.5524 0.509343 19.6004 0.583442C21.6485 0.657541 23.5929 1.50288 25.0441 2.95006C26.4952 4.39724 27.3458 6.33935 27.4255 8.38722C27.5052 10.4351 26.8081 12.4374 25.4738 13.993Z" fill="#FFD6DF"/>
</svg>
