<svg width="22" height="17" viewBox="0 0 22 17" fill="none" xmlns="http://www.w3.org/2000/svg">
<path d="M0 14H10V16H0V14ZM0 7H14V9H0V7ZM0 0H20V2H0V0ZM17 11.17V5H22V7H19V14C18.9997 14.6368 18.7967 15.2569 18.4206 15.7707C18.0444 16.2844 17.5145 16.6652 16.9076 16.8578C16.3007 17.0505 15.6482 17.045 15.0446 16.8422C14.441 16.6394 13.9176 16.2498 13.5501 15.7298C13.1826 15.2098 12.9901 14.5864 13.0004 13.9497C13.0107 13.313 13.2234 12.6961 13.6076 12.1883C13.9918 11.6805 14.5276 11.3082 15.1375 11.1251C15.7473 10.942 16.3997 10.9577 17 11.17ZM16 15C16.2652 15 16.5196 14.8946 16.7071 14.7071C16.8946 14.5196 17 14.2652 17 14C17 13.7348 16.8946 13.4804 16.7071 13.2929C16.5196 13.1054 16.2652 13 16 13C15.7348 13 15.4804 13.1054 15.2929 13.2929C15.1054 13.4804 15 13.7348 15 14C15 14.2652 15.1054 14.5196 15.2929 14.7071C15.4804 14.8946 15.7348 15 16 15Z" fill="#908890"/>
</svg>
