<svg width="17" height="16" viewBox="0 0 17 16" fill="none" xmlns="http://www.w3.org/2000/svg">
<path d="M11.4 1.9381L11.9408 1.0366C11.9741 0.980987 12.0212 0.934951 12.0776 0.902987C12.134 0.871023 12.1977 0.854221 12.2625 0.854221C12.3273 0.854221 12.3911 0.871023 12.4474 0.902987C12.5038 0.934951 12.551 0.980987 12.5843 1.0366L16.5308 7.6141C16.6009 7.73075 16.6379 7.86427 16.6379 8.00035C16.6379 8.13643 16.6009 8.26995 16.5308 8.3866L12.5843 14.9641C12.551 15.0197 12.5038 15.0658 12.4474 15.0977C12.3911 15.1297 12.3273 15.1465 12.2625 15.1465C12.1977 15.1465 12.134 15.1297 12.0776 15.0977C12.0212 15.0658 11.9741 15.0197 11.9408 14.9641L11.4 14.0626L15.0375 8.00035L11.4 1.9381ZM7.87502 1.9381L8.41577 1.0366C8.44907 0.980987 8.49621 0.934951 8.5526 0.902987C8.60899 0.871023 8.6727 0.854221 8.73752 0.854221C8.80234 0.854221 8.86605 0.871023 8.92244 0.902987C8.97883 0.934951 9.02598 0.980987 9.05927 1.0366L13.2375 8.00035L9.05927 14.9641C9.02598 15.0197 8.97884 15.0658 8.92244 15.0977C8.86605 15.1297 8.80234 15.1465 8.73752 15.1465C8.6727 15.1465 8.60899 15.1297 8.5526 15.0977C8.49621 15.0658 8.44907 15.0197 8.41577 14.9641L7.87502 14.0626L11.5125 8.00035L7.87502 1.9381ZM0.981771 7.61485L4.92827 1.0366C4.96157 0.980987 5.00871 0.934952 5.0651 0.902987C5.12149 0.871023 5.1852 0.854221 5.25002 0.854221C5.31484 0.854221 5.37855 0.871023 5.43494 0.902987C5.49133 0.934952 5.53848 0.980987 5.57177 1.0366L9.75002 8.00035L5.57177 14.9641C5.53848 15.0197 5.49133 15.0658 5.43494 15.0977C5.37855 15.1297 5.31484 15.1465 5.25002 15.1465C5.1852 15.1465 5.12149 15.1297 5.0651 15.0977C5.00871 15.0658 4.96157 15.0197 4.92827 14.9641L0.981771 8.3866C0.911689 8.26995 0.874664 8.13644 0.874664 8.00035C0.874664 7.86427 0.911689 7.73075 0.981771 7.6141L0.981771 7.61485ZM2.49902 8.00035L5.25002 12.5851L8.00102 8.00035L5.25002 3.4156L2.49902 8.00035Z" fill="white"/>
</svg>
