<svg fill="none" height="22" viewBox="0 0 20 22" width="20" xmlns="http://www.w3.org/2000/svg">
    <path
        d="M18.083 14.1998L19.285 14.9208C19.3592 14.9652 19.4205 15.0281 19.4632 15.1033C19.5058 15.1784 19.5282 15.2634 19.5282 15.3498C19.5282 15.4363 19.5058 15.5212 19.4632 15.5964C19.4205 15.6716 19.3592 15.7344 19.285 15.7788L10.515 21.0408C10.3595 21.1343 10.1814 21.1836 10 21.1836C9.81856 21.1836 9.64053 21.1343 9.485 21.0408L0.715 15.7788C0.640846 15.7344 0.579465 15.6716 0.536846 15.5964C0.494227 15.5212 0.471825 15.4363 0.471825 15.3498C0.471825 15.2634 0.494227 15.1784 0.536846 15.1033C0.579465 15.0281 0.640846 14.9652 0.715 14.9208L1.917 14.1998L10 19.0498L18.083 14.1998ZM18.083 9.49983L19.285 10.2208C19.3592 10.2652 19.4205 10.3281 19.4632 10.4033C19.5058 10.4784 19.5282 10.5634 19.5282 10.6498C19.5282 10.7363 19.5058 10.8212 19.4632 10.8964C19.4205 10.9716 19.3592 11.0344 19.285 11.0788L10 16.6498L0.715 11.0788C0.640846 11.0344 0.579465 10.9716 0.536846 10.8964C0.494227 10.8212 0.471825 10.7363 0.471825 10.6498C0.471825 10.5634 0.494227 10.4784 0.536846 10.4033C0.579465 10.3281 0.640846 10.2652 0.715 10.2208L1.917 9.49983L10 14.3498L18.083 9.49983ZM10.514 0.308825L19.285 5.57083C19.3592 5.61522 19.4205 5.67807 19.4632 5.75326C19.5058 5.82845 19.5282 5.9134 19.5282 5.99983C19.5282 6.08625 19.5058 6.1712 19.4632 6.24639C19.4205 6.32158 19.3592 6.38443 19.285 6.42883L10 11.9998L0.715 6.42883C0.640846 6.38443 0.579465 6.32158 0.536846 6.24639C0.494227 6.1712 0.471825 6.08625 0.471825 5.99983C0.471825 5.9134 0.494227 5.82845 0.536846 5.75326C0.579465 5.67807 0.640846 5.61522 0.715 5.57083L9.485 0.308825C9.64053 0.215382 9.81856 0.166016 10 0.166016C10.1814 0.166016 10.3595 0.215382 10.515 0.308825H10.514ZM10 2.33183L3.887 5.99983L10 9.66783L16.113 5.99983L10 2.33183Z"
        fill="#FDB0C1" />
</svg>
