<svg width="15" height="16" viewBox="0 0 15 16" fill="none" xmlns="http://www.w3.org/2000/svg">
<path d="M7.04266 8L2.99999 5.14667V10.8533L7.04266 8ZM0.999995 15.38C0.823184 15.38 0.653615 15.3098 0.528591 15.1847C0.403566 15.0597 0.333328 14.8901 0.333328 14.7133V1.28667C0.333261 1.16451 0.36676 1.04468 0.430167 0.940264C0.493574 0.83585 0.584451 0.750864 0.692876 0.694588C0.8013 0.638312 0.923102 0.612909 1.04498 0.621153C1.16686 0.629396 1.28414 0.67097 1.384 0.741334L10.8947 7.456C10.9816 7.5176 11.0525 7.59914 11.1015 7.69379C11.1504 7.78844 11.176 7.89344 11.176 8C11.176 8.10656 11.1504 8.21156 11.1015 8.30621C11.0525 8.40086 10.9816 8.4824 10.8947 8.544L1.384 15.2587C1.27156 15.3377 1.13744 15.3801 0.999995 15.38ZM12.3333 1.33333C12.3333 0.979711 12.4738 0.640573 12.7239 0.390525C12.9739 0.140476 13.313 0 13.6667 0C14.0203 0 14.3594 0.140476 14.6095 0.390525C14.8595 0.640573 15 0.979711 15 1.33333V14.6667C15 15.0203 14.8595 15.3594 14.6095 15.6095C14.3594 15.8595 14.0203 16 13.6667 16C13.313 16 12.9739 15.8595 12.7239 15.6095C12.4738 15.3594 12.3333 15.0203 12.3333 14.6667V1.33333Z" fill="black" fill-opacity="0.43"/>
</svg>
