<svg width="32" height="20" viewBox="0 0 32 20" fill="none" xmlns="http://www.w3.org/2000/svg">
<path d="M12.6957 20C11.8261 20 11.6174 19.2903 11.1652 10.2258C11.0261 7.48387 10.8522 3.96774 10.5739 2.09677C10.4 3.3871 10.2609 5.45161 10.1565 7.09677C9.77391 13.2903 9.56522 14.8387 8.52174 14.8387C7.4087 14.8387 7.16522 13.3548 6.92174 11.8065C6.81739 11.0968 6.64348 9.93548 6.4 9.67742C6.15652 9.74193 5.94783 10.3871 5.8087 10.8387C5.56522 11.6452 5.28696 12.5806 4.34783 12.5806C3.58261 12.5806 3.23478 12.1935 3.02609 11.9677C2.81739 11.7419 2.71304 11.6129 2.26087 11.6129H0.521739C0.243478 11.6129 0 11.3871 0 11.129C0 10.871 0.243478 10.6452 0.521739 10.6452H2.26087C3.2 10.6452 3.54783 11.0645 3.7913 11.3226C3.96522 11.5161 4.03478 11.6129 4.34783 11.6129C4.52174 11.5484 4.73043 10.9032 4.8 10.5806C5.07826 9.74194 5.3913 8.70968 6.43478 8.70968C7.51304 8.70968 7.72174 10.0645 7.96522 11.6452C8.06957 12.2258 8.2087 13.2581 8.41739 13.6774C8.76522 12.6452 8.97391 9.29032 9.11304 7C9.46087 1.32258 9.63478 0 10.5739 0C11.4783 0 11.687 0.806452 12.1739 10.1613C12.313 12.6774 12.487 15.871 12.6957 17.7097C12.9043 16.2258 13.0435 13.9032 13.1478 12.0645C13.6348 4.93548 13.8435 3.87097 14.7826 3.87097C15.7565 3.87097 15.9304 5.32258 16.2435 9.51613C16.3826 11.2581 16.5913 13.7742 16.9043 14.6452C17.113 14.0968 17.2522 12.8065 17.3565 11.9677C17.6 9.77419 17.7739 8.06452 18.9565 8.06452C20.1043 8.06452 20.2783 9.3871 20.4522 10.6452C20.5565 11.3226 20.6957 12.5806 21.0435 12.5806C21.3913 12.5806 21.5304 11.9355 21.6696 11.0968C21.8435 10.1613 22.0522 9.03226 23.1304 9.03226C24.2087 9.03226 24.5217 10 24.7304 10.7097C24.8696 11.0968 25.0087 11.6129 25.2174 11.6129C25.5304 11.6129 25.6696 11.4194 25.9478 10.9677C26.1913 10.5484 26.5391 10 27.3043 10C27.9304 10 28.2435 10.2258 28.487 10.3871C28.7304 10.5484 28.9043 10.6452 29.3913 10.6452H31.4783C31.7565 10.6452 32 10.871 32 11.129C32 11.3871 31.7565 11.6129 31.4783 11.6129H29.3913C28.5565 11.6129 28.1739 11.3548 27.8957 11.1613C27.687 11.0323 27.5826 10.9677 27.3043 10.9677C27.1652 10.9677 27.0609 11.129 26.8522 11.4516C26.5739 11.9032 26.1565 12.5806 25.2174 12.5806C24.2435 12.5806 23.9304 11.6452 23.7217 11C23.513 10.3226 23.3739 10 23.1304 10C22.9217 10 22.7826 10.8387 22.713 11.2581C22.5391 12.2258 22.2957 13.5484 21.0435 13.5484C19.7913 13.5484 19.5826 12.0645 19.4087 10.7742C19.3391 10.2258 19.2 9.25806 18.9913 9.06452C18.6783 9.41935 18.5043 11.0645 18.4 12.0645C18.1565 14.2258 17.9826 15.8065 16.8696 15.8065C15.7913 15.8065 15.5826 14.1935 15.2 9.58065C15.0957 8.29032 14.9565 6.64516 14.7826 5.64516C14.5391 7.09677 14.3652 9.93548 14.1913 12.129C13.7739 18.9677 13.5652 20 12.6957 20Z" fill="#FDB0C1"/>
</svg>
