<svg width="12" height="14" viewBox="0 0 12 14" fill="none" xmlns="http://www.w3.org/2000/svg">
<path d="M2.00001 3.48224V10.5182L8.03001 7.00024L2.00001 3.48224ZM0.75201 0.440242L11.26 6.57024C11.3353 6.61432 11.3978 6.67735 11.4412 6.75305C11.4846 6.82875 11.5074 6.91448 11.5074 7.00174C11.5074 7.089 11.4846 7.17474 11.4412 7.25044C11.3978 7.32614 11.3353 7.38916 11.26 7.43324L0.75201 13.5632C0.675804 13.6077 0.589187 13.6312 0.500955 13.6314C0.412722 13.6316 0.326016 13.6084 0.249641 13.5642C0.173266 13.52 0.109941 13.4564 0.0660977 13.3798C0.0222543 13.3033 -0.000546618 13.2165 9.95048e-06 13.1282V0.871242C-1.61235e-05 0.783265 0.0231715 0.696839 0.0672311 0.620689C0.111291 0.54454 0.174663 0.481365 0.250948 0.437541C0.327233 0.393718 0.413731 0.370798 0.501707 0.371097C0.589684 0.371395 0.676024 0.394902 0.75201 0.439242V0.440242Z" fill="white"/>
</svg>
