<svg width="15" height="16" viewBox="0 0 15 16" fill="none" xmlns="http://www.w3.org/2000/svg">
<path d="M7.95733 8L12 5.14667V10.8533L7.95733 8ZM14 15.38C14.1768 15.38 14.3464 15.3098 14.4714 15.1847C14.5964 15.0597 14.6667 14.8901 14.6667 14.7133V1.28667C14.6667 1.16451 14.6332 1.04468 14.5698 0.940264C14.5064 0.83585 14.4155 0.750864 14.3071 0.694588C14.1987 0.638312 14.0769 0.612909 13.955 0.621153C13.8331 0.629396 13.7159 0.67097 13.616 0.741334L4.10533 7.456C4.01838 7.5176 3.94746 7.59914 3.89852 7.69379C3.84957 7.78844 3.82403 7.89344 3.82403 8C3.82403 8.10656 3.84957 8.21156 3.89852 8.30621C3.94746 8.40086 4.01838 8.4824 4.10533 8.544L13.616 15.2587C13.7284 15.3377 13.8626 15.3801 14 15.38ZM2.66666 1.33333C2.66666 0.979711 2.52619 0.640573 2.27614 0.390525C2.02609 0.140476 1.68695 0 1.33333 0C0.979709 0 0.640569 0.140476 0.39052 0.390525C0.140471 0.640573 -2.86102e-06 0.979711 -2.86102e-06 1.33333V14.6667C-2.86102e-06 15.0203 0.140471 15.3594 0.39052 15.6095C0.640569 15.8595 0.979709 16 1.33333 16C1.68695 16 2.02609 15.8595 2.27614 15.6095C2.52619 15.3594 2.66666 15.0203 2.66666 14.6667V1.33333Z" fill="black" fill-opacity="0.43"/>
</svg>
