<svg width="22" height="22" viewBox="0 0 22 22" fill="none" xmlns="http://www.w3.org/2000/svg">
<path d="M7.68601 3.00037L10.293 0.393372C10.4805 0.205901 10.7348 0.100586 11 0.100586C11.2652 0.100586 11.5195 0.205901 11.707 0.393372L14.314 3.00037H18C18.2652 3.00037 18.5196 3.10573 18.7071 3.29327C18.8946 3.4808 19 3.73516 19 4.00037V7.68637L21.607 10.2934C21.7945 10.4809 21.8998 10.7352 21.8998 11.0004C21.8998 11.2655 21.7945 11.5198 21.607 11.7074L19 14.3144V18.0004C19 18.2656 18.8946 18.5199 18.7071 18.7075C18.5196 18.895 18.2652 19.0004 18 19.0004H14.314L11.707 21.6074C11.5195 21.7948 11.2652 21.9002 11 21.9002C10.7348 21.9002 10.4805 21.7948 10.293 21.6074L7.68601 19.0004H4.00001C3.73479 19.0004 3.48044 18.895 3.2929 18.7075C3.10536 18.5199 3.00001 18.2656 3.00001 18.0004V14.3144L0.393006 11.7074C0.205535 11.5198 0.10022 11.2655 0.10022 11.0004C0.10022 10.7352 0.205535 10.4809 0.393006 10.2934L3.00001 7.68637V4.00037C3.00001 3.73516 3.10536 3.4808 3.2929 3.29327C3.48044 3.10573 3.73479 3.00037 4.00001 3.00037H7.68601ZM5.00001 5.00037V8.51537L2.51501 11.0004L5.00001 13.4854V17.0004H8.51501L11 19.4854L13.485 17.0004H17V13.4854L19.485 11.0004L17 8.51537V5.00037H13.485L11 2.51537L8.51501 5.00037H5.00001ZM11 15.0004C9.93914 15.0004 8.92173 14.5789 8.17158 13.8288C7.42143 13.0787 7.00001 12.0612 7.00001 11.0004C7.00001 9.93951 7.42143 8.92209 8.17158 8.17195C8.92173 7.4218 9.93914 7.00037 11 7.00037C12.0609 7.00037 13.0783 7.4218 13.8284 8.17195C14.5786 8.92209 15 9.93951 15 11.0004C15 12.0612 14.5786 13.0787 13.8284 13.8288C13.0783 14.5789 12.0609 15.0004 11 15.0004ZM11 13.0004C11.5304 13.0004 12.0391 12.7897 12.4142 12.4146C12.7893 12.0395 13 11.5308 13 11.0004C13 10.4699 12.7893 9.96123 12.4142 9.58616C12.0391 9.21109 11.5304 9.00037 11 9.00037C10.4696 9.00037 9.96087 9.21109 9.58579 9.58616C9.21072 9.96123 9.00001 10.4699 9.00001 11.0004C9.00001 11.5308 9.21072 12.0395 9.58579 12.4146C9.96087 12.7897 10.4696 13.0004 11 13.0004Z" fill="#FDB0C1"/>
</svg>
