<svg width="24" height="24" viewBox="0 0 24 24" fill="none" xmlns="http://www.w3.org/2000/svg">
<path d="M3.9 4H20.1C20.3387 4 20.5676 4.0878 20.7364 4.24408C20.9052 4.40036 21 4.61232 21 4.83333V18.1667C21 18.3877 20.9052 18.5996 20.7364 18.7559C20.5676 18.9122 20.3387 19 20.1 19H3.9C3.66131 19 3.43239 18.9122 3.2636 18.7559C3.09482 18.5996 3 18.3877 3 18.1667V4.83333C3 4.61232 3.09482 4.40036 3.2636 4.24408C3.43239 4.0878 3.66131 4 3.9 4ZM19.2 7.53167L12.0648 13.4483L4.8 7.51333V17.3333H19.2V7.53167ZM5.2599 5.66667L12.0549 11.2183L18.7518 5.66667H5.2599Z" fill="#FDB0C1"/>
</svg>
